<?xml version="1.0" standalone="no"?>
<!DOCTYPE svg PUBLIC "-//W3C//DTD SVG 1.1//EN" "http://www.w3.org/Graphics/SVG/1.1/DTD/svg11.dtd" >
<svg xmlns="http://www.w3.org/2000/svg">
<metadata>
This is a custom SVG webfont generated by Font Squirrel.
Copyright   :  2000 Ray Larabie This font is freeware Read attached text file for details Info  updates visit wwwlarabiefontscom Donations gratefully accepted at wwwlarabiefontscomdonationhtml Also visit my commercial type foundry at wwwtypodermiccom This font was updated in 2004
Designer    : Ray Larabie
Foundry     : Ray Larabie
Foundry URL : httpwwwlarabiefontscom
</metadata>
<defs>
<font id="BeryliumboldItalic" horiz-adv-x="1185" >
<font-face units-per-em="2048" ascent="1638" descent="-410" />
<missing-glyph horiz-adv-x="587" />
<glyph unicode=" "  horiz-adv-x="587" />
<glyph unicode="&#x09;" horiz-adv-x="587" />
<glyph unicode="&#xa0;" horiz-adv-x="587" />
<glyph unicode="!" horiz-adv-x="385" d="M74 106l164 148l100 -162l-166 -168zM250 375l92 502v-3l57 482l136 145l98 -145l-150 -477l-139 -504h-94z" />
<glyph unicode="&#x22;" horiz-adv-x="614" d="M301 840l57 338l-12 196l152 156l71 -146l-86 -227l2 2l-94 -319h-90zM569 844l64 327l-8 226l166 174l57 -207l-92 -209v2l-109 -326z" />
<glyph unicode="#" horiz-adv-x="1196" d="M197 524l49 142l135 -17l139 17l123 262l-106 -4h2l-164 -19l55 158l156 -21l114 7l215 454l48 -49h73l-250 -418h88l121 13l117 221v-2l98 231l37 -53l105 24l-146 -225h2l-110 -205l110 11h-2l160 26l-47 -180l-131 27l-146 -4l-139 -265l262 17l-43 -172l-104 45 l-182 -23l-158 -319l-80 -187l-51 45l6 -2l-72 27l254 442l-196 -10l-123 -246v2l-105 -249l-106 90l248 428zM602 655l199 -6l117 244l32 33l-88 4l-108 4z" />
<glyph unicode="$" horiz-adv-x="997" d="M135 74l45 413l70 -6l16 -147l-2 4l72 -215l127 -45h31l112 543l-6 -3l-168 154l-65 287l118 239l183 132l120 24l29 143l105 -8l-45 -135h124l152 -92l-98 -326l-82 -16l22 186l-67 140l-70 16l-104 -522l176 -152l61 -272l-59 -187l-170 -176l-203 -84l-31 -172 l-108 -10l51 193h-127zM561 1065l47 -129l62 -59l102 475l-61 -19l-107 -90zM584 84l63 14l92 97l41 112l-12 195l-78 71z" />
<glyph unicode="%" horiz-adv-x="1581" d="M291 791v239l117 283l174 135l133 25l174 -60l78 -270l-66 -283l-133 -186l-141 -101l-25 21l-156 10zM301 -4l582 721l565 801l102 -121l-571 -715l-563 -813zM508 711l47 -29l109 80l75 264v-4l41 285l-67 73l-47 -10l-84 -110l-62 -287v4zM936 258l61 311l136 230 l188 43l156 -25l118 -217l-41 -289l-118 -254l-183 -96l-221 43zM1108 307l2 -196l55 -62l113 45l115 244l30 276l-12 119l-117 -14l-114 -144z" />
<glyph unicode="&#x26;" horiz-adv-x="1482" d="M145 309l76 262l193 191l123 86l-88 153l4 193l94 162l201 127h229l115 -129v-203l-121 -164l-154 -94l4 2l-18 -16l219 -381l160 225l37 106l-50 56l-4 86l185 -43l288 18l-36 -82l-136 -33l-215 -174l-186 -243l111 -232l135 -80l166 4l-29 -118l-246 -35l-203 24 l-88 265l-125 -140l-217 -135l-178 -10l-172 82zM344 393l76 -180l133 -82l197 59l120 115l-270 496l-82 -51l-119 -142zM639 1255l10 -155l101 -152l77 35l103 170l-8 166l-113 67l-102 -36z" />
<glyph unicode="'" horiz-adv-x="335" d="M305 836l51 346l2 -2v243l136 97l81 -103l-100 -254l2 2l-80 -305z" />
<glyph unicode="(" horiz-adv-x="724" d="M240 406l100 346l231 419l293 340l45 -92l-237 -307l-199 -422l-88 -407v4l-14 -371l149 -393l-61 -96l-146 280l-65 385z" />
<glyph unicode=")" horiz-adv-x="724" d="M14 -475l195 229l-2 -2l168 307l125 418v-2l59 367l-33 276l-73 176l-41 140l75 61l166 -436l37 -441l-90 -419l-213 -379l-346 -389z" />
<glyph unicode="*" horiz-adv-x="1003" d="M289 1055l141 98l193 -23l-113 187l88 168l121 -39l31 -236l116 226l183 75l-15 -184l-180 -194l227 41l66 -125l-131 -109l-197 51l101 -174l-66 -168l-147 49l-11 222l-88 -197l-162 -111l-34 176l180 199l-184 -39z" />
<glyph unicode="+" horiz-adv-x="843" d="M184 506l52 217l286 -29l82 383l150 13l-109 -383l285 -19l-56 -158l-264 -10l-45 -370l-174 18l86 344z" />
<glyph unicode="," horiz-adv-x="520" d="M4 -446l25 106l141 59l102 136l-12 116l-16 37l-66 -26l-90 118l180 176l129 -129l21 -235l-76 -164l-131 -115z" />
<glyph unicode="-" horiz-adv-x="626" d="M186 432l45 195l218 -49l229 34l-57 -223l-175 39l5 4h-265z" />
<glyph unicode="." horiz-adv-x="452" d="M92 78l174 192l101 -170l-164 -172z" />
<glyph unicode="/" horiz-adv-x="626" d="M-111 -385l471 860v-2l457 1016l137 -57l-536 -1018v2l-383 -836z" />
<glyph unicode="0" horiz-adv-x="997" d="M174 379l55 385l117 354l197 252l178 94l180 9l172 -146l41 -323l-51 -371l-156 -397l-219 -242l-225 -51l-193 112zM379 205l72 -158l94 -4l131 115l135 325l-2 -4l80 414v-2l22 338l-65 127l-94 10l-56 -16l-96 -103l-133 -409v2l-84 -346l-4 4v-293z" />
<glyph unicode="1" horiz-adv-x="749" d="M66 72l159 10l92 131l215 1044l-67 99h-133l30 119l205 -45l221 28l-286 -1235l61 -135l146 -31l-27 -92l-303 27l-297 -25z" />
<glyph unicode="2" horiz-adv-x="974" d="M-37 -53l662 631l-2 -5l198 310l29 254l-94 133l-195 -41l-176 -148l-76 41l174 209l215 133h230l155 -164l-24 -299l-156 -278l-317 -340l-246 -195h358l144 93l104 155l64 -47l-121 -192l2 2l-107 -226l-348 19z" />
<glyph unicode="3" horiz-adv-x="897" d="M102 252l148 151l110 -143l-69 -84l108 -121l174 37l125 174l19 191l-111 170l-112 43l-134 -15l-12 35l250 152l-2 -2l152 112l90 189l-84 166l-174 -27l-199 -170l-49 64l186 217l225 102l213 -35l103 -188l-60 -215l-170 -174l-131 -74l97 -16l100 -115l53 -160 l-69 -256l-136 -158l-194 -122l-250 -17l-147 176z" />
<glyph unicode="4" horiz-adv-x="997" d="M43 420l920 1077l57 -61l-174 -834l219 16l-16 -206h-228l-26 -17l-41 -196l61 -129l76 -4l-2 -93l-279 11l-260 -23l23 100l100 45l94 93l45 221h-569zM338 604l313 10l103 486z" />
<glyph unicode="5" horiz-adv-x="913" d="M102 162l4 86l173 145l98 -174l-60 -55l66 -98l100 -11l172 129l82 207v256l-135 117l-172 -31l-131 -90l-57 39l149 399l-2 -4l96 371h467l76 55l49 90l58 -51l-142 -328l-454 25l-113 -336l182 60l258 -107l111 -248l-70 -284l-207 -273l-274 -104l-236 51z" />
<glyph unicode="6" horiz-adv-x="1001" d="M150 406l73 305l248 376l326 267l348 170l-4 -84l-260 -178l-328 -355l2 2l-23 -30l136 67l247 -45l121 -196l-14 -324l-123 -270l-283 -144h-239l-180 135zM332 256l71 -178l146 -31l108 37l97 104l77 213v209l-90 176l-176 21l-125 -62l-88 -260l2 4z" />
<glyph unicode="7" horiz-adv-x="931" d="M49 -41l952 1278l-454 10l-152 -94l-63 -121l-82 21l172 407l426 -22l457 43l-603 -824v2l-442 -690z" />
<glyph unicode="8" horiz-adv-x="915" d="M92 256l82 250l168 156l127 75l-133 133l-37 222l107 243l223 125l229 27l189 -98l28 -211l-76 -199l-118 -115l-123 -76l108 -133l78 -237l-59 -219l-172 -185l-217 -63l-199 10l-152 109zM283 225l16 -116l100 -62l138 -4l147 111l57 196l-39 158l-69 104l-98 70 l-76 -53l-117 -201zM492 1124l40 -168l101 -90l-2 2l53 -43l45 35l96 184l58 185l-39 117l-80 55l-150 -39l-88 -84z" />
<glyph unicode="9" horiz-adv-x="989" d="M121 -10l303 188l-4 -2l264 234l100 174l-41 -25l-251 -41l-164 80l-82 172l20 270l168 265l207 153l270 39l187 -149l59 -287l-96 -387l-238 -344l-362 -277l-305 -131zM457 879l39 -148l110 -90l152 21l112 79l-4 11l76 290v-2l14 193l-43 108l-100 54l-131 -23 l-127 -112l-72 -175z" />
<glyph unicode=":" horiz-adv-x="450" d="M94 109l170 157l125 -147l-184 -205zM244 801l194 182l101 -188l-185 -168z" />
<glyph unicode=";" horiz-adv-x="495" d="M35 -410l110 80l-4 -2l99 115l-2 -8l53 164l-51 63l-70 -41l-84 160l174 133l100 -37l76 -176l-39 -209l-141 -174l-172 -135zM260 780l201 201l121 -201l-199 -174z" />
<glyph unicode="&#x37e;" horiz-adv-x="495" d="M35 -410l110 80l-4 -2l99 115l-2 -8l53 164l-51 63l-70 -41l-84 160l174 133l100 -37l76 -176l-39 -209l-141 -174l-172 -135zM260 780l201 201l121 -201l-199 -174z" />
<glyph unicode="&#x3c;" horiz-adv-x="964" d="M252 545l41 170l452 254l-2 -2l344 254l-51 -228l-651 -385l485 -397l-55 -186l-489 477l4 -4z" />
<glyph unicode="=" horiz-adv-x="1196" d="M236 336l49 174l448 -35l379 35l-14 -182l-383 22zM319 698l48 207l421 -33l418 13l-32 -185l-404 35z" />
<glyph unicode="&#x3e;" horiz-adv-x="964" d="M137 29l64 198l442 281l188 106l-481 379l43 205l309 -305v2l259 -221l-13 -135l-327 -195v2z" />
<glyph unicode="?" horiz-adv-x="870" d="M246 1122l174 209l213 133h256l153 -164l-22 -299l-82 -141l-397 -309l-49 -64l4 -88l75 -57l-133 -119l-100 137l59 160l332 295l53 70l27 250l-119 135l-194 -41l-174 -148zM311 82l150 149l102 -131l-151 -168z" />
<glyph unicode="@" horiz-adv-x="1775" d="M248 90l31 584l360 592l586 215l422 -162l163 -367l-112 -481l-426 -377l-119 4l-66 101l-112 -86l-174 -45l-172 112l47 291l164 127l319 107l-6 2l27 135l-25 82l-84 37l-108 -89l32 -75l-143 -111l-96 123l311 260l209 12l86 -217l-139 -557l22 -49l49 6l303 244 l129 422l-133 315l-366 137l-500 -223l-297 -495l-72 -521l187 -268l311 -100l307 51l285 190l61 -57l-335 -211l-310 -80l-409 123zM803 295l69 -78l91 -8l104 76l55 313l-276 -117z" />
<glyph unicode="A" horiz-adv-x="1284" d="M8 -29l21 99l96 12l94 113l-2 -2l719 1347l106 41l56 -868l71 -539l68 -98l94 -13l-47 -88l-244 11l-215 -15l-10 109l74 -8l69 94l-40 403l10 15h-396l5 -19l-189 -368v-123l127 -17v-86l-231 25zM590 700l332 -14l-66 514z" />
<glyph unicode="B" horiz-adv-x="1189" d="M72 -39l53 111l94 20l92 123l209 1036l-33 97l-92 22l11 90l215 -12l170 16l346 -57l125 -215l-58 -234l-168 -163l-106 -29l135 -59l104 -162l5 -180l-117 -218l-277 -172zM496 170l61 -111l115 -4l157 64l97 121l45 192l-64 166l-164 92h-143zM637 782l115 4l153 62 l117 113l35 194l-74 154l-145 73l-74 -6h2z" />
<glyph unicode="C" horiz-adv-x="1284" d="M195 309v375l141 360l239 283l326 137l377 17l209 -129l-23 -168l-28 -221l-88 18v180l-31 154l-187 71l-294 -71l-246 -248l-137 -354l-27 -320l137 -243l228 -107l192 35l217 203l98 198l76 -28l-194 -418l-222 -72l-278 -20l-309 129z" />
<glyph unicode="D" horiz-adv-x="1476" d="M78 -41l6 88l129 43l102 141l205 988l-33 135h-100l14 96l222 -8l188 31h209l287 -103l231 -252l29 -338l-127 -385l-287 -268l-299 -135l-274 -25l-218 19zM522 176l119 -117l244 35l207 154l141 239l78 340l-37 291l-187 172l-225 78l-119 -4l7 -4l-228 -1043v-141z " />
<glyph unicode="E" d="M49 -41l37 90l135 47l88 148l203 999l-39 119h-104l28 92h484h473l-78 -182l2 4l-29 -189l-78 -8l7 205l-119 72l-320 -15l-114 -548l258 10l118 78l62 139l76 -35l-86 -256l2 4l-31 -241l-90 -9v125l-94 66h-256l16 -21l-96 -428l71 -133l138 -24l190 32l168 160l76 221 l80 -41l-78 -229l-119 -231h-647z" />
<glyph unicode="F" horiz-adv-x="1056" d="M78 -33l10 72l111 33l90 102l233 1083l-49 97l-100 2l14 98h412l547 12l-80 -184l2 4l-43 -203l-92 -28l34 196l-98 117l-340 -8l23 -31l-123 -553l233 -10l125 63l88 170l51 -53l-92 -258l2 4l-35 -264h-86l13 137l-66 74l-289 18l17 -26l-80 -367l41 -162l119 -28 l-23 -109l-266 27z" />
<glyph unicode="G" horiz-adv-x="1380" d="M184 391l60 467l227 342l350 242l391 39l357 -86l-80 -193l2 4l-37 -227l-72 12l-22 244l-152 143h-250l-241 -123l-154 -231l-102 -336v4l-21 -254l111 -223l199 -133l219 -29l88 62l49 237l-21 115l-122 37l47 104l211 -33l249 35l-16 -82l-131 -82l-45 -237l55 -115 l-211 -100l-194 -31h-334l-262 139z" />
<glyph unicode="H" horiz-adv-x="1579" d="M53 -33l29 92l133 35l78 117l209 983l-31 141l-94 19l14 106l244 -16l303 29l12 -107l-110 -4l-115 -150l-98 -399h682l-17 10l78 432l-31 101l-145 26l68 80l245 -37l301 39l-20 -96l-88 -2l-111 -147l-227 -988l37 -127l100 -57l-4 -74l-264 25l-311 -33l32 101l111 12 l106 149l93 457h-662h2l-59 -332v2l-29 -237l109 -80l47 -70h-617z" />
<glyph unicode="I" horiz-adv-x="710" d="M66 -31l20 97l162 53l43 90l-2 -4l227 1075l-90 76l-80 14l45 107l268 -64l293 51l9 -88l-138 -39l-98 -137l-227 -1012l34 -104l121 -39l-18 -88l-293 51z" />
<glyph unicode="J" horiz-adv-x="710" d="M-139 -395l6 108l186 43l174 215l84 213l-2 -4l203 1039l-39 124l-92 31l10 99l273 -35l286 24v-108h-90l-125 -119l-225 -1079l-143 -308l-328 -215z" />
<glyph unicode="K" horiz-adv-x="1382" d="M70 -29l32 82l111 23l94 121l207 987l-20 153l-99 37l15 82l229 -22l268 43l-2 -101l-108 -30l-68 -82l-86 -465l201 151l321 350l-12 68l-57 12l6 76l217 -12l197 18l51 -86l-109 -16l-207 -117l4 4l-456 -452l14 6l279 -531l-5 4l175 -194l116 -39l-24 -78l-226 10 l-157 103l-150 241v-2l-217 322l-63 -287v-223l131 -68l-21 -94l-270 31z" />
<glyph unicode="L" d="M68 -31l16 99l92 4l109 100l229 1096l-57 86h-107l29 119l262 -39l369 28l-49 -102l-132 -10l-94 -93l-246 -1095l35 -62h377l143 101l121 213l97 -23l-207 -428l-434 27z" />
<glyph unicode="M" horiz-adv-x="1671" d="M-31 -37v109l107 10l106 121l316 987l-31 153l-96 37l32 99l201 -31l203 20l-2 -94l-64 -35l144 -1007l90 190l475 799l-16 113l45 45l168 -37l219 22l-23 -100l-69 -2l-121 -131l-148 -1032l39 -117l109 -16l-11 -86l-313 12l-254 -27l-2 96l105 15l129 143l131 887 l-680 -1212l-207 1087v35l-229 -823l34 -93l113 -41l-23 -90l-223 33z" />
<glyph unicode="N" horiz-adv-x="1478" d="M-18 -53l16 84l160 53l127 180l196 926l-65 156l-140 18l3 82l172 12l170 17l593 -1063l17 -45l162 841l-33 144l-152 30l27 93l262 -27l240 20v-88l-127 -26l-97 -137l-245 -1123v2l-21 -239l-680 1173l-8 43l-170 -842l60 -127l102 -38l-21 -93l-254 13z" />
<glyph unicode="O" horiz-adv-x="1480" d="M207 291v432l47 147l207 379l368 211l383 13l291 -183l92 -372l-86 -412l-217 -334l-329 -197l-299 -22l-279 104zM446 395l125 -272l240 -55l283 137l168 284l90 377l-41 314l-90 159l-174 47l-191 -49l-223 -186l-170 -416z" />
<glyph unicode="P" horiz-adv-x="1091" d="M63 -35l15 105l112 22l103 127l213 1041l-66 100h-80l19 92l172 -14l285 22l260 -41l168 -178l-37 -287l-195 -241l-282 -111h-185l-80 -375l45 -129l125 -37l-24 -84l-277 25zM584 688l125 -4l227 119l98 231l-26 213l-162 99l-133 14l14 -12z" />
<glyph unicode="Q" horiz-adv-x="1480" d="M207 291v432l47 147l207 379l368 211l383 13l291 -183l92 -372l-86 -412l-217 -334l-331 -197l186 -86l119 9l125 118l65 -65l-254 -211l-127 -14l-225 102l-205 -113l-39 99l240 153l-182 -14l-279 104zM446 395l125 -272l240 -55l283 137l168 284l90 377l-41 314 l-90 159l-174 47l-191 -49l-223 -186l-170 -416z" />
<glyph unicode="R" horiz-adv-x="1308" d="M72 -27l32 93l134 34l77 103l232 1063l-51 80l-121 26l51 88l201 -12l229 18l217 -12l211 -197l-55 -303l-152 -168l-129 -53l62 -26l47 -322v2l53 -272l188 -62v-92l-247 6l-170 131l-50 453l-65 92l-150 6l-90 -395l9 -121l145 -74l-10 -86l-287 29zM637 745l166 23 l194 160l56 268l-109 166l-143 24l-27 -4z" />
<glyph unicode="S" horiz-adv-x="997" d="M135 68l21 362l73 47l29 -246l127 -157l186 -6l177 143l22 215l-377 418l10 248l127 251l232 146h235l181 -103l-95 -339h-67l-6 258l-117 81l-172 -28l-119 -213l33 -174l256 -234l133 -221l-53 -272l-189 -203l-233 -94l-232 20z" />
<glyph unicode="T" horiz-adv-x="1189" d="M225 1108l140 426l84 -86h921l119 119l-72 -482l-86 -30v162l-114 116l-238 6l-234 -1073l17 -147l176 -68l-18 -80l-318 27l-354 -25l20 70l197 70l88 149l223 1077h-139l-203 -41l-143 -239z" />
<glyph unicode="U" horiz-adv-x="1476" d="M299 291l188 932l-36 123l-95 20l2 82l285 -12l285 26l-29 -98l-104 -14l-103 -140l-184 -872l98 -201l240 -31l229 64l150 209l170 825l-33 135l-107 47l33 68l228 -10l217 12l-23 -86l-82 -24l-86 -127l-133 -619l-129 -352l-238 -246l-309 -57l-301 69z" />
<glyph unicode="V" horiz-adv-x="1382" d="M340 1370l25 86l225 -18l280 14l-8 -82l-102 -14l-64 -119l111 -946l514 946l-10 119l-107 26l17 80l209 -18l241 16l-18 -90l-92 -20l-154 -166l4 4l-682 -1225v2l-41 -106l-33 4l-159 1296l-64 168z" />
<glyph unicode="W" horiz-adv-x="1775" d="M309 1372l23 88l219 -26l256 28l-8 -92l-97 -16l-77 -105l26 -866l441 846v-2l110 225l76 10l49 -1061l418 856l-14 97l-99 28l25 74l194 -18l222 22v-90l-88 -20l-115 -109l-709 -1386l-61 1200l-600 -1153l-35 8l-59 1405z" />
<glyph unicode="X" horiz-adv-x="1187" d="M23 -31l12 80l92 37l-2 -2l186 117l355 479l-148 590l-63 80l-105 22l8 86l252 -18l246 18l-16 -80l-72 -22l-33 -64l94 -395l250 360v107l-65 31l28 61l181 -22l229 28v-88l-117 -20l-143 -119l-326 -440l119 -488l-2 4l76 -198l112 -50l-12 -96l-235 29l-232 -31v76 l78 37l37 67l-113 439l-264 -385l-16 -103l75 -45l-16 -69l-205 20z" />
<glyph unicode="Y" d="M317 -31l41 107l78 16l92 111l86 401l-153 713l-105 53l29 82l193 -27l239 37l-8 -86l-74 -22l-37 -56l99 -536l331 508l-16 102l-82 6l19 78l196 -18l219 22l-14 -86l-61 -8l-154 -119l-412 -598l-90 -401l25 -139l114 -50l-18 -82l-276 21z" />
<glyph unicode="Z" horiz-adv-x="1288" d="M27 -39l1132 1360h6h-440l-184 -125l-119 -215l-51 45l129 416l479 -12l543 16l-1078 -1337l480 10l213 119l145 229h90l-192 -475h-885h2z" />
<glyph unicode="[" horiz-adv-x="724" d="M66 -526l260 1028l157 987l420 -31l-22 -108h-250l8 -9l-367 -1753h244l-37 -114h-413z" />
<glyph unicode="\" horiz-adv-x="618" d="M317 1442l121 57l99 -1933l-115 -37z" />
<glyph unicode="]" horiz-adv-x="724" d="M-31 -539l43 113h258l377 1765l6 4h-282l37 115h448l-47 -108l2 4l-385 -1811v2l-8 -71z" />
<glyph unicode="^" horiz-adv-x="1775" d="M512 883l616 606h129l361 -584l-113 -41l-368 420l-514 -434z" />
<glyph unicode="_" horiz-adv-x="909" d="M-102 -532l36 208l422 -38l439 22l-27 -223z" />
<glyph unicode="`" horiz-adv-x="909" d="M588 1817l178 108l108 -407l-90 -31z" />
<glyph unicode="a" horiz-adv-x="915" d="M145 178l43 387l218 297l208 142l142 -7l159 -61l144 -14l-33 -74l-86 -43l-141 -653l22 -58l66 31l8 -105l-119 -22h2l-217 -66l55 150l-2 -2l13 49l-45 -49l-187 -125l-102 41zM352 477l19 -262l75 -84l119 41l88 90h-4l109 490v-2l8 92l-141 55l-146 -102z" />
<glyph unicode="b" horiz-adv-x="995" d="M80 59l94 76l252 1202l-23 62h-47l2 90l125 18l164 95l29 -62l-86 -270v2l-92 -402l204 103l293 -39l76 -340l-100 -334l-213 -211l-279 -90zM371 307l26 -182l131 -64l183 72l133 227l28 299l-102 156l-188 16l-123 -59l12 -6z" />
<glyph unicode="c" horiz-adv-x="780" d="M113 236l51 344l246 305l297 100l163 -29l76 -125l-145 -120l-125 147h-131l-137 -135l-72 -236l35 -243l131 -115l141 12l131 84l47 -41l-119 -131l-229 -86l-219 43z" />
<glyph unicode="d" horiz-adv-x="962" d="M127 178l43 387l217 299l281 121l108 4l109 -35l-15 21l101 379l-103 88l11 78l147 6l168 80l4 -78l-31 -62l-276 -1314l22 -58l66 31l8 -105l-119 -22h2l-217 -66l56 150l-2 -2l12 49l-47 -51l-219 -123l-177 39zM334 477l16 -258l148 -88l161 43l86 88h-4l80 379 l-35 199l-143 37l-194 -111z" />
<glyph unicode="e" horiz-adv-x="811" d="M109 352l124 350l199 216l139 65l191 -16l127 -127v-295l-547 -62l-23 -49l37 -182l146 -121l164 37l129 145l45 -88l-240 -215l-184 -49l-219 88zM362 584l347 55l10 180l-103 74l-112 -35l-80 -76z" />
<glyph unicode="f" horiz-adv-x="536" d="M-182 -401l198 184l148 197l51 182v-2l123 631l-150 4l17 88l166 90l86 276l194 262l207 72l74 -6l133 -49l-143 -142l-134 78l-86 -24l-94 -195l2 4l-71 -321l159 4l-20 -133l-162 -4l-141 -717l-92 -238l-164 -159l-271 -170z" />
<glyph unicode="g" horiz-adv-x="964" d="M80 -489l45 272l65 -27l19 -166l63 -55l117 21l166 120l111 172l51 215l-213 -96l-225 25l-152 235l39 332l240 299l235 109h213l115 -80l71 114l70 -32l-63 -131l-205 -965l-101 -233l-178 -144l-209 -69l-188 14zM328 338l78 -193l155 -51l168 66l-8 8l102 481l-8 142 l-135 81l-160 -47l-137 -207z" />
<glyph unicode="h" horiz-adv-x="993" d="M33 -16l22 69l84 35l54 96l231 1153l-70 80l6 74l132 20l149 93l29 -64l-168 -674l270 131l209 -90l27 -215l-109 -540l21 -93l43 -4l-13 -78l-164 15l-213 -15v82l78 11l68 77l100 517l-63 163h-127l-150 -65h2l-141 -617l31 -65l67 -35l-28 -63l-177 20z" />
<glyph unicode="i" horiz-adv-x="493" d="M33 -23l37 95l82 10l61 92l102 555l-36 66l-48 -15l-8 88l160 54l145 79l50 -43l-203 -811l39 -77l53 -41l-23 -68l-182 29zM408 1386l176 168l88 -190l-176 -137z" />
<glyph unicode="j" horiz-adv-x="473" d="M-162 -401l172 84l131 204l152 836l-31 49l-45 6l10 86l150 45l-4 -4l137 90l55 -51l-217 -930l-121 -286l-190 -148l-182 -74zM403 1397l179 149l84 -170l-152 -139z" />
<glyph unicode="k" horiz-adv-x="878" d="M45 -29l4 82l84 33l43 90l137 576l115 573l-31 82l-30 6l8 82l131 21l-6 -5l125 82l43 -39l-203 -813l-33 -184l221 244l6 45l-32 4l2 94l182 -12l244 43l-19 -94l-92 -13l-196 -104l-183 -195l10 2l222 -430l-2 2l71 -90l52 -2l-17 -63l-153 -33l-142 115l-168 399 l-22 -20l-66 -330l23 -47l73 -15l-16 -80l-194 21z" />
<glyph unicode="l" horiz-adv-x="462" d="M31 -23l18 97l78 4l72 110l-4 -6l243 1176l-47 61l2 80l123 25l113 69l63 -34l-248 -990l-84 -426l31 -71l72 -15l-19 -90l-196 29z" />
<glyph unicode="m" horiz-adv-x="1497" d="M37 51l76 21l67 71l113 594l-64 68l-8 59l158 58l88 75l65 17l-28 -158l39 33l200 84l191 -33l53 -119l121 97l199 67l168 -65l41 -207l-113 -533l6 -96l49 -31l12 -82l-178 25l-241 -23l14 86l102 17l68 117l84 458l-37 150h-190l-99 -64l-114 -569l2 -76l69 -22 l-18 -86l-172 12l-230 -27l39 90l62 13l69 75l107 549l-64 109l-186 -6l-82 -62l-129 -575l21 -76l75 -16l-10 -107l-196 33l-191 -23z" />
<glyph unicode="n" horiz-adv-x="980" d="M55 51l72 29l66 92l118 557l-35 64l-30 -13l-15 78l156 51l129 92l41 -43l-37 -110l96 67l248 76l158 -112v-213l-125 -539l35 -66l31 -16l-15 -74l-168 21l-194 -27l8 92l74 19l59 78l109 516l-48 151l-124 10l-177 -81l-129 -611l31 -67l80 -17l-25 -71h-381z" />
<glyph unicode="o" horiz-adv-x="997" d="M119 205l24 297l179 334l268 131h233l90 -29l138 -133l22 -264l-106 -299l-191 -207l-264 -68l-248 47zM311 352l47 -221l123 -78l156 25l135 180l111 303l-19 227l-104 86l-162 -6l-174 -168z" />
<glyph unicode="p" horiz-adv-x="995" d="M-74 -543l35 99l86 32l47 101l203 1067l-47 61l-6 76l133 37l119 69l41 -32l-31 -90l199 104l229 -31l129 -188l-19 -313l-145 -273l-223 -162l-225 -47l-125 13l-62 -322l17 -82l116 -27l-20 -90l-207 31zM387 172l102 -90l175 27l118 131l86 266l-45 272l-166 64 l-188 -86l16 -13l-92 -381v5z" />
<glyph unicode="q" horiz-adv-x="995" d="M127 227l39 332l240 299l235 109h213l115 -80l71 114l70 -32l-66 -135l3 4l-259 -1170l7 -96l71 -23l-18 -79l-195 22l-225 -31l18 86l109 41l63 103l68 362l-182 -86l-225 25zM328 338l78 -193l155 -51l168 66l-8 8l102 481l-8 142l-135 81l-160 -38l-137 -216z" />
<glyph unicode="r" horiz-adv-x="657" d="M55 -29l13 82l79 27l64 102l-4 -6l100 557l-33 53h-43l15 78l114 35l-4 -4l148 96l39 -47l-56 -178l123 147l146 74l90 -153l-166 -150l-53 94l-109 -76l-69 -161l2 4l-86 -383l30 -76l107 -33l-15 -71l-229 20z" />
<glyph unicode="s" horiz-adv-x="684" d="M76 59l43 273l65 -27l19 -168l90 -76l129 31l70 162l-52 111l-215 174l6 206l119 164l176 72l86 -6l150 -70l-45 -241l-68 12l-12 143l-76 70l-90 -23l-63 -106l16 -109l240 -243l4 -164l-121 -193l-193 -82l-192 21z" />
<glyph unicode="t" horiz-adv-x="505" d="M180 180l137 606h-98l-26 62l327 297l70 -12l-53 -195h131l-17 -147l-162 -13l-77 -377v2l-33 -247l27 -50l102 41l8 -81l-160 -111l-157 45z" />
<glyph unicode="u" horiz-adv-x="989" d="M188 86l54 385l65 311l-35 68l-45 20l-2 91l150 -17l162 35l-150 -711l57 -149h136l145 90l-14 16l114 566l-26 59l-76 16l2 90l156 -14l198 35l-116 -471l-80 -367l24 -30l82 18l-31 -100l-135 -9l-168 -69l27 153l-135 -88l-195 -43z" />
<glyph unicode="v" horiz-adv-x="876" d="M203 881l18 86l158 -19l184 13l19 -82l-93 -17l-30 -65l73 -553l314 565l-19 65l-61 11l20 104l160 -45l133 25l4 -76l-90 -41l-579 -983l-117 919l-43 76z" />
<glyph unicode="w" horiz-adv-x="1357" d="M199 881l20 69l205 -8l190 35l-24 -96l-74 -9l-35 -55l51 -526l363 665l66 -18l32 -674l305 539l-6 67l-65 17l49 80l137 -29l141 33v-84l-67 -13l-84 -77l-547 -932l-53 704l-402 -702l-125 995z" />
<glyph unicode="x" horiz-adv-x="841" d="M8 -23l21 78l98 29l109 86l198 258l-129 422l-86 39l23 69l186 -8l182 19l-16 -80l-41 -8l-37 -50l70 -204l143 204l2 43l-45 11l31 82l127 -17l157 17l-4 -80l-59 -6l-109 -76l-227 -281l168 -442l55 -37l-8 -68l-207 13l-184 -13l10 58l66 45l8 57l-43 213l-166 -215 l-2 -65l49 -19l-29 -59h-143z" />
<glyph unicode="y" horiz-adv-x="876" d="M12 -387l135 129l58 -78l39 23l149 266l-102 835v-4l-25 78l-57 27l20 74l162 -15l197 29l-8 -90l-68 -10l-33 -64l60 -588l284 559l-10 86l-68 9l46 96l139 -27l168 27l-13 -90l-94 -33l-69 -92l2 2l-627 -1151l-201 -135z" />
<glyph unicode="z" horiz-adv-x="813" d="M-23 -37l693 885l-254 -10l-90 -58l-72 -153l-61 10l86 299h315l399 16l-686 -872l281 22l125 72l94 176l82 -8l-162 -350h-457z" />
<glyph unicode="{" horiz-adv-x="909" d="M279 586l12 125l121 -15l147 127l105 484l186 213l248 30l-27 -92l-153 -37l-99 -135l-106 -473l-125 -131l-109 -41l107 -37l45 -211l-86 -409l22 -121l135 -39l-22 -96l-170 30l-135 174l92 502l-59 141z" />
<glyph unicode="|" horiz-adv-x="909" d="M295 -494l428 2087l113 -10l-422 -2083z" />
<glyph unicode="}" horiz-adv-x="909" d="M104 -256l15 86l135 12l102 150l107 463l141 161l90 19l-76 18l-73 154l94 455l-41 165l-133 23l20 96l187 -26l129 -181l-107 -493l82 -137l133 -21l-26 -88l-160 -33l-113 -145l-121 -524l-188 -148z" />
<glyph unicode="~" horiz-adv-x="2895" d="M209 0v600h2v96h137v58h-37v180h37v63h-37v76h899v-94q-14 27 -49 27q-94 0 -94 -158q0 -156 98 -156q31 0 64 39v-35h49v377h766v-53h70v53h737v-1073h-2642zM211 754v180h39v-180h-39zM211 997v76h39v-76h-39zM268 160h123v86h-45v301h-78v-387zM371 823 q0 -131 94 -131q29 0 51 17q0 -47 -57 -47h-31v-62h43q113 12 113 145v252h-68v-186q0 -53 -41 -53q-39 0 -39 53v186h-65v-174zM422 160h76v73h26v-73h82v141l-53 246h-84l-47 -246v-141zM498 291v39l12 102h4l10 -102v-39h-26zM606 600h68v115q14 -25 49 -25q94 0 94 156 t-98 155q-29 0 -64 -40v36h-49v-397zM637 160h78v170h22v-170h84v155l-30 43v7l30 41v100l-22 41h-162v-387zM668 793v102q12 31 43 31q43 0 43 -78q0 -88 -45 -88q-29 0 -41 33zM715 393v84h22v-84h-22zM831 844q0 -156 111 -156q113 0 113 156q0 160 -113 160 q-111 0 -111 -160zM852 160h78v73h24v-73h78v141l-49 246h-84l-47 -246v-141zM899 844q0 84 43 84q45 0 45 -84q0 -82 -45 -82q-43 0 -43 82zM930 291v39l10 102h6l8 -102v-39h-24zM1065 160h162l22 43v127l-16 28v7l16 28v113l-22 41h-162v-387zM1130 846q0 88 46 88 q27 0 38 -33v-104q-12 -29 -40 -29q-44 0 -44 78zM1145 233v97h22v-97h-22zM1145 393v84h22v-84h-22zM1282 160h80v387h-80v-387zM1296 774q2 -86 93 -86q45 0 70.5 26.5t25.5 82.5h-31q-6 -39 -51 -39q-41 0 -41 28q0 37 41 37h20v37h-20q-41 0 -41 35q0 33 41 33 q35 0 51 -41h31v110h-31v-47q-23 53 -68 54q-88 0 -88 -89q0 -55 45 -73q-47 -19 -47 -68zM1393 160h131v86h-54v80h54v67h-54v72h54v82h-131v-387zM1507 696h90v58h-28v133q0 41 28 41q12 0 25 -13l23 68q-16 14 -35 16q-43 0 -64 -49v47h-39v-301zM1612 160h80v159h49v68 h-49v78h49v82h-129v-387zM1626 696h143v58h-38v125q0 47 38 47q31 0 31 -47v-183h105v58h-39v125q0 45 39 45q31 0 30 -45v-183h68v193q0 111 -96 110q-49 0 -64 -49q-18 49 -57 49q-35 0 -55 -49v47h-66v-243h-39v-58zM1774 203l20 -43h137l25 43v303l-23 41h-139l-20 -41 v-303zM1851 233v244h23v-244h-23zM1987 160h65v250h6l19 -250h118v387h-65v-250h-6l-23 250h-114v-387zM2013 934h31v-238h70v301h-101v-63zM2130 844q0 -154 104 -154q74 0 93 119h-33q-6 -47 -51 -47q-47 0 -48 82q0 84 48 84q47 0 51 -56h33v121h-33v-43q-25 53 -62 54 q-102 0 -102 -160zM2218 465h43v-305h80v305h43v82h-166v-82zM2406 203l23 -43h133l23 43v147l-27 43l-72 17v67h21v-49h78v78l-21 41h-135l-23 -41v-135l25 -41l76 -19v-78h-21v58h-80v-88z" />
<glyph unicode="&#xa1;" horiz-adv-x="626" d="M195 100l112 330h-2l182 617l109 -3l-121 -630v2l-31 -334l-153 -158zM465 1315l190 186l105 -205l-187 -137z" />
<glyph unicode="&#xa2;" horiz-adv-x="780" d="M195 618l51 345l246 305l176 59l47 232l114 -11l-36 -180l161 -29l72 -125l-145 -120l-117 125l-141 -703l100 8l133 84l47 -41l-119 -131l-190 -71l-47 -240l-119 6l47 234l-139 28zM418 870l35 -245l61 -56l137 672h-24l-138 -135z" />
<glyph unicode="&#xa3;" horiz-adv-x="1126" d="M-45 59l164 158l123 -27l94 170v-2l92 238l-164 16l19 72l194 29l217 438l246 281l293 43l121 -156l4 -100l-141 -121l-103 149l57 58l-26 73l-103 -22l-190 -246l-168 -379l213 -53l-31 -84l-245 10l-105 -235l-164 -187l414 -139l164 35l53 92l-70 76l138 145l73 -168 l-141 -225l-205 -111l-155 -10l-387 164l-187 -100z" />
<glyph unicode="&#xa4;" horiz-adv-x="1284" d="M29 393l49 174l117 -10v129l30 78l-112 -8l47 207l139 -13l37 92l239 285l326 137l377 17l199 -125l-136 -170l-24 129l-187 71l-294 -71l-246 -248l-51 -135l610 8l-137 -172l-449 25l-82 -9l-28 -71l-15 -174l86 -7l318 19l-119 -152l-215 9l-82 -5l137 -253l228 -107 l192 35l217 203l17 34l63 -67l-100 -215l-222 -72l-278 -20l-309 129l-178 239l-3 88z" />
<glyph unicode="&#xa5;" d="M337 -31l41 107l78 16l92 111l86 401l-153 713l-105 53l29 82l193 -27l239 37l-8 -86l-74 -22l-37 -56l99 -536l331 508l-16 102l-82 6l19 78l196 -18l219 22l-14 -86l-61 -8l-154 -119l-412 -598l-90 -401l25 -139l114 -50l-18 -82l-276 21zM216.034 239.49 l47.3467 124.021l432.879 -24.9463l366.207 24.9463l-13.5273 -129.724l-370.072 15.6807zM296.233 497.513l46.3799 147.543l406.79 -23.5215l403.892 9.26562l-30.9199 -131.862l-390.364 24.9473z" />
<glyph unicode="&#xa6;" horiz-adv-x="909" d="M283 -330l125 396v-3l55 367l182 -16l-135 -387l2 4l-45 -396zM500 672l137 381l8 -4l35 383l166 20l-113 -426v4l-55 -373z" />
<glyph unicode="&#xa7;" horiz-adv-x="729" d="M86 -63l27 276l67 -23l35 -172l92 -75l129 28l56 162l-56 119l-227 178l-10 205l110 172l148 59l-101 82l-10 211l113 164l168 72l90 -2l153 -74l-30 -246l-70 12l-20 148l-78 70l-90 -23l-56 -102l21 -115l258 -250l12 -168l-106 -194l-146 -66l90 -92l13 -170 l-105 -191l-192 -84l-193 21zM377 655l22 -112l80 -76l105 22l34 101l-16 121l-82 71l-86 -20z" />
<glyph unicode="&#xa8;" horiz-adv-x="909" d="M475 1606l164 172l113 -146l-148 -166zM852 1614l164 164l108 -154l-151 -145z" />
<glyph unicode="&#xa9;" horiz-adv-x="1775" d="M324 438l102 504l262 334l273 194l370 25l271 -172l131 -358l-43 -351l-152 -305l-293 -272l-293 -90l-252 20l-188 115zM436 479l84 -217l199 -190l313 -23l299 182l209 230l78 305l-33 319l-110 232l-246 76l-221 -17l-203 -131l4 2l-129 -127l-158 -235zM616 514 l60 379l231 248l275 84l254 -82l-31 -154l-2 4v-141l-82 -27l-41 230l-78 51l-170 -16l-164 -191l-65 -256l41 -199l108 -98l138 23l176 188l51 107l47 -89l-123 -253l-205 -82l-270 34z" />
<glyph unicode="&#xaa;" horiz-adv-x="620" d="M246 954l73 146l304 131l-21 80l-92 26l-21 -14l9 -51l-99 -90l-86 86l109 125l244 98l120 -141l-88 -459l25 -49h49v-82l-76 -19l-112 4l-62 46l6 16l-94 -64l-145 29zM383 934l53 -78l49 2l76 57l37 224l-176 -99z" />
<glyph unicode="&#xab;" horiz-adv-x="843" d="M135 489l471 402l56 -45l-191 -256l-141 -107l94 -110l94 -232l-92 -78l-135 250l4 -4zM453 477l465 412l67 -39l-180 -252l-158 -121l101 -108l81 -240l-61 -63z" />
<glyph unicode="&#xad;" horiz-adv-x="626" d="M186 432l45 195l218 -49l229 34l-57 -223l-175 39l5 4h-265z" />
<glyph unicode="&#xae;" horiz-adv-x="1466" d="M215 430l96 471l246 307l254 183l344 22l250 -158l121 -335l-41 -324l-137 -285l-275 -252l-268 -84l-238 19l-172 106zM326 471l75 -201l187 -176l289 -18l274 164l192 215l74 282l-26 295l-107 213l-229 70l-201 -12l-188 -125l2 2l-117 -115l-148 -221zM471 254l8 96 l66 8l57 54l111 555l-21 45l-86 -2l31 106l160 -6l223 12l192 -32l33 -197l-100 -154l-158 -37l21 -6l71 -84v-243l27 4l47 112l76 -8l-60 -188l-141 -37l-121 80l31 223l-55 94l-88 13l8 -11l-62 -258l103 -57l-39 -80l-146 35zM817 754l125 -4l100 69l41 96l-45 99 l-133 18l-47 -45z" />
<glyph unicode="&#xaf;" horiz-adv-x="909" d="M471 1499l25 182l299 -24l284 39l-14 -189l-291 13z" />
<glyph unicode="&#x2c9;" horiz-adv-x="909" d="M471 1499l25 182l299 -24l284 39l-14 -189l-291 13z" />
<glyph unicode="&#xb0;" horiz-adv-x="610" d="M279 1051l51 239l149 144l223 39l127 -142l-22 -233l-127 -197l-268 -29zM406 1094l73 -105l137 43l99 189l-62 110l-106 -4l-105 -88z" />
<glyph unicode="&#xb2;" horiz-adv-x="671" d="M150 528v84l423 359l93 211l-25 106l-133 21l-133 -115l-78 49l207 187l178 38l152 -131l-62 -266l-199 -227l-192 -154h219l64 31l88 108l61 -34l-151 -263l-216 21z" />
<glyph unicode="&#xb3;" horiz-adv-x="671" d="M201 709l135 114l61 -88l-18 -61l35 -39l94 4l98 111l17 133l-117 69l-154 -43l-28 60l292 155l62 121l-29 78l-121 6l-147 -123l-53 62l194 162l183 32l118 -61l11 -146l-80 -118l-121 -74l65 -27l80 -114l-14 -164l-98 -131l-170 -76h-195z" />
<glyph unicode="&#xb4;" horiz-adv-x="909" d="M698 1532l273 385l131 -137l-350 -303z" />
<glyph unicode="&#xb5;" horiz-adv-x="989" d="M-141 -258l186 367v-3l270 658l-2 -2l37 131l193 4l-242 -557l-14 -168l129 -57l145 118l275 666l180 -16l-283 -713l39 -55l100 65l103 201l59 -70l-129 -260l-192 -102l-115 88l4 96l-82 -108l-166 -64l-149 76l-10 67l-125 -413l-158 -150z" />
<glyph unicode="&#x3bc;" horiz-adv-x="989" d="M-141 -258l186 367v-3l270 658l-2 -2l37 131l193 4l-242 -557l-14 -168l129 -57l145 118l275 666l180 -16l-283 -713l39 -55l100 65l103 201l59 -70l-129 -260l-192 -102l-115 88l4 96l-82 -108l-166 -64l-149 76l-10 67l-125 -413l-158 -150z" />
<glyph unicode="&#xb6;" horiz-adv-x="909" d="M283 901l10 305l274 275l369 22h-2l260 53l-43 -145l-115 -35l-270 -1384l-154 -8l310 1386h-138l17 -6l-271 -1270l-184 -162l-39 93l90 75l144 676l-52 -8z" />
<glyph unicode="&#xb8;" horiz-adv-x="909" d="M160 -465l123 133l96 -106l59 35l-98 198l53 82l193 186l67 -30l-108 -96l-31 -41l74 -183l-25 -116l-172 -134l-137 -36z" />
<glyph unicode="&#xb9;" horiz-adv-x="673" d="M227 547l2 86h121l74 82l111 633l-134 49l33 84l160 -43l149 32l-178 -759l25 -68l125 -27l-41 -88z" />
<glyph unicode="&#xba;" horiz-adv-x="759" d="M248 930l31 268l237 225l248 39l211 -139l-31 -330l-205 -221l-268 -20zM401 956l103 -120l176 30l106 185l35 219l-30 67l-50 27l-166 -10l-143 -158z" />
<glyph unicode="&#xbb;" horiz-adv-x="843" d="M61 117l195 274l141 98l-104 140l-66 211l74 53l305 -418l-475 -409zM391 166l180 219l154 100l-86 115l-107 225l74 58l330 -416l-502 -395z" />
<glyph unicode="&#xbc;" horiz-adv-x="1538" d="M287 604l10 82l115 49l112 606l-123 31l31 111l141 -45l156 32l-156 -731l39 -41l90 -20l-45 -84zM313 10l564 723l585 774l68 -133l-578 -706l-546 -760zM954 303l525 561l84 -45l-72 -174l-47 -301l158 4l-43 -123l-162 -10l-25 -102l43 -47l74 -15l-29 -76h-338l-2 95 l92 6l37 69l15 86l-297 -6zM1124 352h197l-16 21l57 229z" />
<glyph unicode="&#xbd;" horiz-adv-x="1538" d="M238 604l30 88l94 4l72 88l103 578l-115 18l-12 90l186 -26l125 12l-152 -708l9 -68l102 8l-16 -88l-224 10zM319 -6l590 768l531 758l92 -121l-559 -684l-565 -830zM922 31l424 391l63 217l-121 70l-164 -134l-37 78l191 164h215l90 -149l-86 -240l-323 -299l-41 -20 l235 -7l125 146l88 22l-180 -297l-469 -30z" />
<glyph unicode="&#xbe;" horiz-adv-x="1538" d="M201 745l102 111l123 -51l-43 -62l53 -57l109 23l57 129l-63 125l-160 -27l-49 53l319 215l4 86l-61 51l-180 -96l-80 15l100 114l168 92l168 -6l43 -141l-72 -156l-102 -65l84 -43l53 -144l-67 -196l-134 -94l-215 -35zM303 -8l582 747l545 772l100 -104l-561 -713 l-572 -803zM934 209l33 90l499 555l82 -35l-108 -467h145l-24 -121h-140l-32 -151l84 -31l34 -82h-405l26 84l99 25l41 147l6 4zM1139 360h159l50 226z" />
<glyph unicode="&#xbf;" horiz-adv-x="933" d="M141 106l25 300l80 143l395 307l51 64l-4 88l-74 61l131 117l103 -139l-60 -158l-335 -297l-54 -70l-26 -250l116 -137l201 43l172 148l76 -41l-178 -213l-209 -127h-256zM618 1307l154 170l100 -150l-149 -151z" />
<glyph unicode="&#xc0;" horiz-adv-x="1284" d="M28 -29l21 99l96 12l94 113l-2 -2l719 1347l106 41l56 -868l71 -539l68 -98l94 -13l-47 -88l-244 11l-215 -15l-10 109l74 -8l69 94l-40 403l10 15h-396l5 -19l-189 -368v-123l127 -17v-86l-231 25zM610 700l332 -14l-66 514zM899 1817l178 108l108 -407l-90 -31z" />
<glyph unicode="&#xc1;" horiz-adv-x="1284" d="M28 -29l21 99l96 12l94 113l-2 -2l719 1347l106 41l56 -868l71 -539l68 -98l94 -13l-47 -88l-244 11l-215 -15l-10 109l74 -8l69 94l-40 403l10 15h-396l5 -19l-189 -368v-123l127 -17v-86l-231 25zM610 700l332 -14l-66 514zM819 1532l273 385l131 -137l-350 -303z" />
<glyph unicode="&#xc2;" horiz-adv-x="1284" d="M28 -29l21 99l96 12l94 113l-2 -2l719 1347l106 41l56 -868l71 -539l68 -98l94 -13l-47 -88l-244 11l-215 -15l-10 109l74 -8l69 94l-40 403l10 15h-396l5 -19l-189 -368v-123l127 -17v-86l-231 25zM610 700l332 -14l-66 514zM748 1505l49 45l299 375l148 -412l-76 -53 l-144 199l-180 -219z" />
<glyph unicode="&#xc3;" horiz-adv-x="1284" d="M28 -29l21 99l96 12l94 113l-2 -2l719 1347l106 41l56 -868l71 -539l68 -98l94 -13l-47 -88l-244 11l-215 -15l-10 109l74 -8l69 94l-40 403l10 15h-396l5 -19l-189 -368v-123l127 -17v-86l-231 25zM610 700l332 -14l-66 514zM629 1567l219 141l86 10l180 -80l105 7 l108 106l62 -61l-230 -189l-110 -12l-199 90l-180 -100z" />
<glyph unicode="&#xc4;" horiz-adv-x="1284" d="M28 -29l21 99l96 12l94 113l-2 -2l719 1347l106 41l56 -868l71 -539l68 -98l94 -13l-47 -88l-244 11l-215 -15l-10 109l74 -8l69 94l-40 403l10 15h-396l5 -19l-189 -368v-123l127 -17v-86l-231 25zM610 700l332 -14l-66 514zM698 1606l164 172l113 -146l-148 -166z M1075 1614l164 164l108 -154l-151 -145z" />
<glyph unicode="&#xc5;" horiz-adv-x="1284" d="M28 -29l21 99l96 12l94 113l-2 -2l719 1347l106 41l56 -868l71 -539l68 -98l94 -13l-47 -88l-244 11l-215 -15l-10 109l74 -8l69 94l-40 403l10 15h-396l5 -19l-189 -368v-123l127 -17v-86l-231 25zM610 700l332 -14l-66 514zM807 1606l41 192l117 115l182 31l102 -115 l-14 -187l-104 -159l-217 -23zM916 1640l59 -79l98 32l78 148l-45 82l-80 -2l-82 -70z" />
<glyph unicode="&#xc6;" horiz-adv-x="1818" d="M8 -29l21 99l96 12l1065 1331h110l310 41h420l-78 -182l2 4l-29 -189l-78 -8l6 205l-118 70l-265 -23l-112 -538l219 10l119 78l63 139l76 -35l-84 -256v4l-31 -241l-90 -9v125l-96 66h-219l16 -21l-96 -428l72 -133l84 -24l190 32l166 160l78 221l78 -41l-78 -229 l-119 -250h-924l41 113l187 96l96 494l-371 -13l-151 -174v2l-236 -286v-119l127 -17v-86l-231 25zM850 784l260 21l107 436l-64 -65l2 2z" />
<glyph unicode="&#xc7;" horiz-adv-x="1284" d="M215 309v375l141 360l239 283l326 137l377 17l209 -129l-23 -168l-28 -221l-88 18v180l-31 154l-187 71l-294 -71l-246 -248l-137 -354l-27 -320l137 -243l228 -107l192 35l217 203l98 198l76 -28l-194 -418l-222 -72l-278 -20l-309 129zM389 -473l123 133l96 -106l59 35 l-98 198l53 82l193 186l67 -30l-108 -96l-31 -41l74 -183l-25 -116l-172 -134l-137 -36z" />
<glyph unicode="&#xc8;" d="M69 -41l37 90l135 47l88 148l203 999l-39 119h-104l28 92h484h473l-78 -182l2 4l-29 -189l-78 -8l7 205l-119 72l-320 -15l-114 -548l258 10l118 78l62 139l76 -35l-86 -256l2 4l-31 -241l-90 -9v125l-94 66h-256l16 -21l-96 -428l71 -133l138 -24l190 32l168 160l76 221 l80 -41l-78 -229l-119 -231h-647zM774 1817l178 108l108 -407l-90 -31z" />
<glyph unicode="&#xc9;" d="M69 -41l37 90l135 47l88 148l203 999l-39 119h-104l28 92h484h473l-78 -182l2 4l-29 -189l-78 -8l7 205l-119 72l-320 -15l-114 -548l258 10l118 78l62 139l76 -35l-86 -256l2 4l-31 -241l-90 -9v125l-94 66h-256l16 -21l-96 -428l71 -133l138 -24l190 32l168 160l76 221 l80 -41l-78 -229l-119 -231h-647zM856 1532l273 385l131 -137l-350 -303z" />
<glyph unicode="&#xca;" d="M69 -41l37 90l135 47l88 148l203 999l-39 119h-104l28 92h484h473l-78 -182l2 4l-29 -189l-78 -8l7 205l-119 72l-320 -15l-114 -548l258 10l118 78l62 139l76 -35l-86 -256l2 4l-31 -241l-90 -9v125l-94 66h-256l16 -21l-96 -428l71 -133l138 -24l190 32l168 160l76 221 l80 -41l-78 -229l-119 -231h-647zM717 1505l49 45l299 375l148 -412l-76 -53l-144 199l-180 -219z" />
<glyph unicode="&#xcb;" d="M69 -41l37 90l135 47l88 148l203 999l-39 119h-104l28 92h484h473l-78 -182l2 4l-29 -189l-78 -8l7 205l-119 72l-320 -15l-114 -548l258 10l118 78l62 139l76 -35l-86 -256l2 4l-31 -241l-90 -9v125l-94 66h-256l16 -21l-96 -428l71 -133l138 -24l190 32l168 160l76 221 l80 -41l-78 -229l-119 -231h-647zM635 1606l164 172l113 -146l-148 -166zM1012 1614l164 164l108 -154l-151 -145z" />
<glyph unicode="&#xcc;" horiz-adv-x="710" d="M86 -31l20 97l162 53l43 90l-2 -4l227 1075l-90 76l-80 14l45 107l268 -64l293 51l9 -88l-138 -39l-98 -137l-227 -1012l34 -104l121 -39l-18 -88l-293 51zM522 1817l178 108l108 -407l-90 -31z" />
<glyph unicode="&#xcd;" horiz-adv-x="710" d="M86 -31l20 97l162 53l43 90l-2 -4l227 1075l-90 76l-80 14l45 107l268 -64l293 51l9 -88l-138 -39l-98 -137l-227 -1012l34 -104l121 -39l-18 -88l-293 51zM622 1532l273 385l131 -137l-350 -303z" />
<glyph unicode="&#xce;" horiz-adv-x="710" d="M86 -31l20 97l162 53l43 90l-2 -4l227 1075l-90 76l-80 14l45 107l268 -64l293 51l9 -88l-138 -39l-98 -137l-227 -1012l34 -104l121 -39l-18 -88l-293 51zM453 1505l49 45l299 375l148 -412l-76 -53l-144 199l-180 -219z" />
<glyph unicode="&#xcf;" horiz-adv-x="710" d="M86 -31l20 97l162 53l43 90l-2 -4l227 1075l-90 76l-80 14l45 107l268 -64l293 51l9 -88l-138 -39l-98 -137l-227 -1012l34 -104l121 -39l-18 -88l-293 51zM409 1606l164 172l113 -146l-148 -166zM786 1614l164 164l108 -154l-151 -145z" />
<glyph unicode="&#xd0;" horiz-adv-x="1476" d="M98 -41l6 88l129 43l102 141l205 988l-33 135h-100l14 96l222 -8l188 31h209l287 -103l231 -252l29 -338l-127 -385l-287 -268l-299 -135l-274 -25l-218 19zM542 176l119 -117l244 35l207 154l141 239l78 340l-37 291l-187 172l-225 78l-119 -4l7 -4l-228 -1043v-141z M278 618l45 195l218 -49l229 34l-57 -223l-175 39l5 4h-265z" />
<glyph unicode="&#xd1;" horiz-adv-x="1478" d="M2 -53l16 84l160 53l127 180l196 926l-65 156l-140 18l3 82l172 12l170 17l593 -1063l17 -45l162 841l-33 144l-152 30l27 93l262 -27l240 20v-88l-127 -26l-97 -137l-245 -1123v2l-21 -239l-680 1173l-8 43l-170 -842l60 -127l102 -38l-21 -93l-254 13zM666 1567 l219 141l86 10l180 -80l105 7l108 106l62 -61l-230 -189l-110 -12l-199 90l-180 -100z" />
<glyph unicode="&#xd2;" horiz-adv-x="1480" d="M227 291v432l47 147l207 379l368 211l383 13l291 -183l92 -372l-86 -412l-217 -334l-329 -197l-299 -22l-279 104zM466 395l125 -272l240 -55l283 137l168 284l90 377l-41 314l-90 159l-174 47l-191 -49l-223 -186l-170 -416zM871 1817l178 108l108 -407l-90 -31z" />
<glyph unicode="&#xd3;" horiz-adv-x="1480" d="M227 291v432l47 147l207 379l368 211l383 13l291 -183l92 -372l-86 -412l-217 -334l-329 -197l-299 -22l-279 104zM466 395l125 -272l240 -55l283 137l168 284l90 377l-41 314l-90 159l-174 47l-191 -49l-223 -186l-170 -416zM940 1532l273 385l131 -137l-350 -303z" />
<glyph unicode="&#xd4;" horiz-adv-x="1480" d="M227 291v432l47 147l207 379l368 211l383 13l291 -183l92 -372l-86 -412l-217 -334l-329 -197l-299 -22l-279 104zM466 395l125 -272l240 -55l283 137l168 284l90 377l-41 314l-90 159l-174 47l-191 -49l-223 -186l-170 -416zM829 1505l49 45l299 375l148 -412l-76 -53 l-144 199l-180 -219z" />
<glyph unicode="&#xd5;" horiz-adv-x="1480" d="M227 291v432l47 147l207 379l368 211l383 13l291 -183l92 -372l-86 -412l-217 -334l-329 -197l-299 -22l-279 104zM466 395l125 -272l240 -55l283 137l168 284l90 377l-41 314l-90 159l-174 47l-191 -49l-223 -186l-170 -416zM686 1567l219 141l86 10l180 -80l105 7 l108 106l62 -61l-230 -189l-110 -12l-199 90l-180 -100z" />
<glyph unicode="&#xd6;" horiz-adv-x="1480" d="M227 291v432l47 147l207 379l368 211l383 13l291 -183l92 -372l-86 -412l-217 -334l-329 -197l-299 -22l-279 104zM466 395l125 -272l240 -55l283 137l168 284l90 377l-41 314l-90 159l-174 47l-191 -49l-223 -186l-170 -416zM774 1606l164 172l113 -146l-148 -166z M1151 1614l164 164l108 -154l-151 -145z" />
<glyph unicode="&#xd8;" horiz-adv-x="1480" d="M207 291v432l47 147l207 379l368 211l383 13l291 -183l92 -372l-86 -412l-217 -334l-329 -197l-299 -22l-279 104zM446 393l428 359l418 456l-71 131l-174 47l-191 -49l-223 -186l-170 -416zM508 262l63 -139l240 -55l283 137l168 284l90 377l-27 205l-403 -387z" />
<glyph unicode="&#xd9;" horiz-adv-x="1476" d="M319 291l188 932l-36 123l-95 20l2 82l285 -12l285 26l-29 -98l-104 -14l-103 -140l-184 -872l98 -201l240 -31l229 64l150 209l170 825l-33 135l-107 47l33 68l228 -10l217 12l-23 -86l-82 -24l-86 -127l-133 -619l-129 -352l-238 -246l-309 -57l-301 69zM948 1817 l178 108l108 -407l-90 -31z" />
<glyph unicode="&#xda;" horiz-adv-x="1476" d="M319 291l188 932l-36 123l-95 20l2 82l285 -12l285 26l-29 -98l-104 -14l-103 -140l-184 -872l98 -201l240 -31l229 64l150 209l170 825l-33 135l-107 47l33 68l228 -10l217 12l-23 -86l-82 -24l-86 -127l-133 -619l-129 -352l-238 -246l-309 -57l-301 69zM1003 1532 l273 385l131 -137l-350 -303z" />
<glyph unicode="&#xdb;" horiz-adv-x="1476" d="M319 291l188 932l-36 123l-95 20l2 82l285 -12l285 26l-29 -98l-104 -14l-103 -140l-184 -872l98 -201l240 -31l229 64l150 209l170 825l-33 135l-107 47l33 68l228 -10l217 12l-23 -86l-82 -24l-86 -127l-133 -619l-129 -352l-238 -246l-309 -57l-301 69zM858 1505 l49 45l299 375l148 -412l-76 -53l-144 199l-180 -219z" />
<glyph unicode="&#xdc;" horiz-adv-x="1476" d="M319 291l188 932l-36 123l-95 20l2 82l285 -12l285 26l-29 -98l-104 -14l-103 -140l-184 -872l98 -201l240 -31l229 64l150 209l170 825l-33 135l-107 47l33 68l228 -10l217 12l-23 -86l-82 -24l-86 -127l-133 -619l-129 -352l-238 -246l-309 -57l-301 69zM811 1606 l164 172l113 -146l-148 -166zM1188 1614l164 164l108 -154l-151 -145z" />
<glyph unicode="&#xdd;" d="M337 -31l41 107l78 16l92 111l86 401l-153 713l-105 53l29 82l193 -27l239 37l-8 -86l-74 -22l-37 -56l99 -536l331 508l-16 102l-82 6l19 78l196 -18l219 22l-14 -86l-61 -8l-154 -119l-412 -598l-90 -401l25 -139l114 -50l-18 -82l-276 21zM845 1532l273 385l131 -137 l-350 -303z" />
<glyph unicode="&#xde;" horiz-adv-x="1091" d="M53 -35l45 101l113 34l74 119l215 975l-25 139l-106 41l30 76l258 -20l289 30l-12 -88l-162 -53l-63 -119v2l-21 -45l64 10l254 -30l190 -207l-29 -283l-155 -227l-283 -113l-227 -24l-27 -103l47 -59l150 -43l-49 -107l-246 31zM522 377l68 -6l160 53l145 115l72 235 l-37 180l-180 103l-76 -6z" />
<glyph unicode="&#xdf;" horiz-adv-x="993" d="M37 -35l18 94l80 7l64 90l178 862l88 219l313 266l211 29l139 -180l-32 -199l-252 -225l-29 -111l217 -395l-47 -225l-186 -197l-158 -39l-68 -4l-69 109l125 135l78 -113l61 18l68 117l10 133l-223 320l30 147l74 117l170 186l39 158l-41 102l-82 39l-180 -172 l-103 -307l2 2l-170 -846l52 -47l90 6l-8 -100l-244 31z" />
<glyph unicode="&#xe0;" horiz-adv-x="890" d="M165 178l43 387l218 297l208 142l142 -7l159 -61l144 -14l-33 -74l-86 -43l-141 -653l22 -58l66 31l8 -105l-119 -22h2l-217 -66l55 150l-2 -2l13 49l-45 -49l-187 -125l-102 41zM372 477l19 -262l75 -84l119 41l88 90h-4l109 490v-2l8 92l-141 55l-146 -102zM611 1332 l178 108l108 -407l-90 -31z" />
<glyph unicode="&#xe1;" horiz-adv-x="886" d="M165 178l43 387l218 297l208 142l142 -7l159 -61l144 -14l-33 -74l-86 -43l-141 -653l22 -58l66 31l8 -105l-119 -22h2l-217 -66l55 150l-2 -2l13 49l-45 -49l-187 -125l-102 41zM372 477l19 -262l75 -84l119 41l88 90h-4l109 490v-2l8 92l-141 55l-146 -102zM542 1047 l273 385l131 -137l-350 -303z" />
<glyph unicode="&#xe2;" horiz-adv-x="878" d="M165 178l43 387l218 297l208 142l142 -7l159 -61l144 -14l-33 -74l-86 -43l-141 -653l22 -58l66 31l8 -105l-119 -22h2l-217 -66l55 150l-2 -2l13 49l-45 -49l-187 -125l-102 41zM372 477l19 -262l75 -84l119 41l88 90h-4l109 490v-2l8 92l-141 55l-146 -102zM453 1020 l49 45l299 375l148 -412l-76 -53l-144 199l-180 -219z" />
<glyph unicode="&#xe3;" horiz-adv-x="878" d="M165 178l43 387l218 297l208 142l142 -7l159 -61l144 -14l-33 -74l-86 -43l-141 -653l22 -58l66 31l8 -105l-119 -22h2l-217 -66l55 150l-2 -2l13 49l-45 -49l-187 -125l-102 41zM372 477l19 -262l75 -84l119 41l88 90h-4l109 490v-2l8 92l-141 55l-146 -102zM369 1082 l219 141l86 10l180 -80l105 7l108 106l62 -61l-230 -189l-110 -12l-199 90l-180 -100z" />
<glyph unicode="&#xe4;" horiz-adv-x="886" d="M165 178l43 387l218 297l208 142l142 -7l159 -61l144 -14l-33 -74l-86 -43l-141 -653l22 -58l66 31l8 -105l-119 -22h2l-217 -66l55 150l-2 -2l13 49l-45 -49l-187 -125l-102 41zM372 477l19 -262l75 -84l119 41l88 90h-4l109 490v-2l8 92l-141 55l-146 -102zM381 1121 l164 172l113 -146l-148 -166zM758 1129l164 164l108 -154l-151 -145z" />
<glyph unicode="&#xe5;" horiz-adv-x="813" d="M165 178l43 387l218 297l208 142l142 -7l159 -61l144 -14l-33 -74l-86 -43l-141 -653l22 -58l66 31l8 -105l-119 -22h2l-217 -66l55 150l-2 -2l13 49l-45 -49l-187 -125l-102 41zM372 477l19 -262l75 -84l119 41l88 90h-4l109 490v-2l8 92l-141 55l-146 -102zM518 1121 l41 192l117 115l182 31l102 -115l-14 -187l-104 -159l-217 -23zM627 1155l59 -79l98 32l78 148l-45 82l-80 -2l-82 -70z" />
<glyph unicode="&#xe6;" horiz-adv-x="1300" d="M80 178l43 387l217 297l207 142l143 -7l160 -61l94 -12l92 43l193 -15l127 -127v-295l-555 -57l-15 -76v2l-14 -188l146 -107l212 48l130 145l40 -94l-235 -209l-272 -49l-103 88l-31 -88l-202 22l92 117l12 45l-45 -49l-188 -125l-103 41zM285 477l20 -262l76 -84 l119 41l88 90h-6l108 490v-2l10 92l-143 55l-143 -102zM829 569l330 56l10 180l-102 76l-94 -35l-72 -80z" />
<glyph unicode="&#xe7;" horiz-adv-x="780" d="M133 236l51 344l246 305l297 100l163 -29l76 -125l-145 -120l-125 147h-131l-137 -135l-72 -236l35 -243l131 -115l141 12l131 84l47 -41l-119 -131l-229 -86l-219 43zM125 -465l123 133l96 -106l59 35l-98 198l53 82l193 186l67 -30l-108 -96l-31 -41l74 -183l-25 -116 l-172 -134l-137 -36z" />
<glyph unicode="&#xe8;" horiz-adv-x="811" d="M129 352l124 350l199 216l139 65l191 -16l127 -127v-295l-547 -62l-23 -49l37 -182l146 -121l164 37l129 145l45 -88l-240 -215l-184 -49l-219 88zM382 584l347 55l10 180l-103 74l-112 -35l-80 -76zM525 1332l178 108l108 -407l-90 -31z" />
<glyph unicode="&#xe9;" horiz-adv-x="811" d="M129 352l124 350l199 216l139 65l191 -16l127 -127v-295l-547 -62l-23 -49l37 -182l146 -121l164 37l129 145l45 -88l-240 -215l-184 -49l-219 88zM382 584l347 55l10 180l-103 74l-112 -35l-80 -76zM493 1047l273 385l131 -137l-350 -303z" />
<glyph unicode="&#xea;" horiz-adv-x="811" d="M129 352l124 350l199 216l139 65l191 -16l127 -127v-295l-547 -62l-23 -49l37 -182l146 -121l164 37l129 145l45 -88l-240 -215l-184 -49l-219 88zM382 584l347 55l10 180l-103 74l-112 -35l-80 -76zM408 1020l49 45l299 375l148 -412l-76 -53l-144 199l-180 -219z" />
<glyph unicode="&#xeb;" horiz-adv-x="811" d="M129 352l124 350l199 216l139 65l191 -16l127 -127v-295l-547 -62l-23 -49l37 -182l146 -121l164 37l129 145l45 -88l-240 -215l-184 -49l-219 88zM382 584l347 55l10 180l-103 74l-112 -35l-80 -76zM354 1121l164 172l113 -146l-148 -166zM731 1129l164 164l108 -154 l-151 -145z" />
<glyph unicode="&#xec;" horiz-adv-x="493" d="M53 -23l37 95l82 10l61 92l102 555l-36 66l-48 -15l-8 88l160 54l145 79l50 -43l-203 -811l39 -77l53 -41l-23 -68l-182 29zM361 1332l178 108l108 -407l-90 -31z" />
<glyph unicode="&#xed;" horiz-adv-x="493" d="M53 -23l37 95l82 10l61 92l102 555l-36 66l-48 -15l-8 88l160 54l145 79l50 -43l-203 -811l39 -77l53 -41l-23 -68l-182 29zM346 1047l273 385l131 -137l-350 -303z" />
<glyph unicode="&#xee;" horiz-adv-x="493" d="M53 -23l37 95l82 10l61 92l102 555l-36 66l-48 -15l-8 88l160 54l145 79l50 -43l-203 -811l39 -77l53 -41l-23 -68l-182 29zM229 1020l49 45l299 375l148 -412l-76 -53l-144 199l-180 -219z" />
<glyph unicode="&#xef;" horiz-adv-x="493" d="M53 -23l37 95l82 10l61 92l102 555l-36 66l-48 -15l-8 88l160 54l145 79l50 -43l-203 -811l39 -77l53 -41l-23 -68l-182 29zM192 1121l164 172l113 -146l-148 -166zM569 1129l164 164l108 -154l-151 -145z" />
<glyph unicode="&#xf0;" horiz-adv-x="954" d="M104 326l103 340l266 270l252 74l111 -68l-91 250l-219 -164l-80 92l242 146l-96 94l-90 2l-2 72l129 59h-2l118 66l105 -183l186 170l74 -106l-225 -146l57 -108l102 -383l-36 -369l-252 -371l-289 -112l-264 78zM336 459l35 -266l110 -121l148 14l92 121l92 258l14 342 l-100 88l-160 -23l-57 -28l-70 -88l2 6z" />
<glyph unicode="&#xf1;" horiz-adv-x="980" d="M75 51l72 29l66 92l118 557l-35 64l-30 -13l-15 78l156 51l129 92l41 -43l-37 -110l96 67l248 76l158 -112v-213l-125 -539l35 -66l31 -16l-15 -74l-168 21l-194 -27l8 92l74 19l59 78l109 516l-48 151l-124 10l-177 -81l-129 -611l31 -67l80 -17l-25 -71h-381zM406 1082 l219 141l86 10l180 -80l105 7l108 106l62 -61l-230 -189l-110 -12l-199 90l-180 -100z" />
<glyph unicode="&#xf2;" horiz-adv-x="997" d="M139 205l24 297l179 334l268 131h233l90 -29l138 -133l22 -264l-106 -299l-191 -207l-264 -68l-248 47zM331 352l47 -221l123 -78l156 25l135 180l111 303l-19 227l-104 86l-162 -6l-174 -168zM568 1332l178 108l108 -407l-90 -31z" />
<glyph unicode="&#xf3;" horiz-adv-x="997" d="M139 205l24 297l179 334l268 131h233l90 -29l138 -133l22 -264l-106 -299l-191 -207l-264 -68l-248 47zM331 352l47 -221l123 -78l156 25l135 180l111 303l-19 227l-104 86l-162 -6l-174 -168zM587 1047l273 385l131 -137l-350 -303z" />
<glyph unicode="&#xf4;" horiz-adv-x="997" d="M139 205l24 297l179 334l268 131h233l90 -29l138 -133l22 -264l-106 -299l-191 -207l-264 -68l-248 47zM331 352l47 -221l123 -78l156 25l135 180l111 303l-19 227l-104 86l-162 -6l-174 -168zM494 1020l49 45l299 375l148 -412l-76 -53l-144 199l-180 -219z" />
<glyph unicode="&#xf5;" horiz-adv-x="997" d="M139 205l24 297l179 334l268 131h233l90 -29l138 -133l22 -264l-106 -299l-191 -207l-264 -68l-248 47zM331 352l47 -221l123 -78l156 25l135 180l111 303l-19 227l-104 86l-162 -6l-174 -168zM391 1082l219 141l86 10l180 -80l105 7l108 106l62 -61l-230 -189l-110 -12 l-199 90l-180 -100z" />
<glyph unicode="&#xf6;" horiz-adv-x="997" d="M139 205l24 297l179 334l268 131h233l90 -29l138 -133l22 -264l-106 -299l-191 -207l-264 -68l-248 47zM331 352l47 -221l123 -78l156 25l135 180l111 303l-19 227l-104 86l-162 -6l-174 -168zM444 1121l164 172l113 -146l-148 -166zM821 1129l164 164l108 -154 l-151 -145z" />
<glyph unicode="&#xf8;" horiz-adv-x="997" d="M119 205l24 297l179 334l268 131h233l90 -29l138 -133l22 -264l-106 -299l-191 -207l-264 -68l-248 47zM311 352l17 -76l295 256l-2 -4l231 279l-90 67l-164 -6l-174 -168zM350 162l8 -31l123 -78l156 25l135 180l-2 -6l113 309l-11 101l-217 -195z" />
<glyph unicode="&#xf9;" horiz-adv-x="989" d="M208 86l54 385l65 311l-35 68l-45 20l-2 91l150 -17l162 35l-150 -711l57 -149h136l145 90l-14 16l114 566l-26 59l-76 16l2 90l156 -14l198 35l-116 -471l-80 -367l24 -30l82 18l-31 -100l-135 -9l-168 -69l27 153l-135 -88l-195 -43zM582 1332l178 108l108 -407 l-90 -31z" />
<glyph unicode="&#xfa;" horiz-adv-x="989" d="M208 86l54 385l65 311l-35 68l-45 20l-2 91l150 -17l162 35l-150 -711l57 -149h136l145 90l-14 16l114 566l-26 59l-76 16l2 90l156 -14l198 35l-116 -471l-80 -367l24 -30l82 18l-31 -100l-135 -9l-168 -69l27 153l-135 -88l-195 -43zM573 1047l273 385l131 -137 l-350 -303z" />
<glyph unicode="&#xfb;" horiz-adv-x="989" d="M208 86l54 385l65 311l-35 68l-45 20l-2 91l150 -17l162 35l-150 -711l57 -149h136l145 90l-14 16l114 566l-26 59l-76 16l2 90l156 -14l198 35l-116 -471l-80 -367l24 -30l82 18l-31 -100l-135 -9l-168 -69l27 153l-135 -88l-195 -43zM461 1020l49 45l299 375l148 -412 l-76 -53l-144 199l-180 -219z" />
<glyph unicode="&#xfc;" horiz-adv-x="989" d="M208 86l54 385l65 311l-35 68l-45 20l-2 91l150 -17l162 35l-150 -711l57 -149h136l145 90l-14 16l114 566l-26 59l-76 16l2 90l156 -14l198 35l-116 -471l-80 -367l24 -30l82 18l-31 -100l-135 -9l-168 -69l27 153l-135 -88l-195 -43zM426 1121l164 172l113 -146 l-148 -166zM803 1129l164 164l108 -154l-151 -145z" />
<glyph unicode="&#xfd;" horiz-adv-x="876" d="M32 -387l135 129l58 -78l39 23l149 266l-102 835v-4l-25 78l-57 27l20 74l162 -15l197 29l-8 -90l-68 -10l-33 -64l60 -588l284 559l-10 86l-68 9l46 96l139 -27l168 27l-13 -90l-94 -33l-69 -92l2 2l-627 -1151l-201 -135zM573 1047l273 385l131 -137l-350 -303z" />
<glyph unicode="&#xfe;" horiz-adv-x="995" d="M-92 -612l8 100l107 4l63 109l332 1679l-62 96l9 82l133 17l125 86l45 -64l-181 -639l244 123l268 -61l84 -283l-100 -352l-199 -211l-213 -94l-182 -23l-63 41l6 -33l-103 -405l27 -66l156 -20l-21 -101l-237 43zM399 322l29 -218l115 -41l159 91l127 211l35 276 l-90 170l-166 20l-123 -67h2z" />
<glyph unicode="&#xff;" horiz-adv-x="876" d="M32 -387l135 129l58 -78l39 23l149 266l-102 835v-4l-25 78l-57 27l20 74l162 -15l197 29l-8 -90l-68 -10l-33 -64l60 -588l284 559l-10 86l-68 9l46 96l139 -27l168 27l-13 -90l-94 -33l-69 -92l2 2l-627 -1151l-201 -135zM405 1121l164 172l113 -146l-148 -166z M782 1129l164 164l108 -154l-151 -145z" />
<glyph unicode="&#x100;" horiz-adv-x="1284" d="M28 -29l21 99l96 12l94 113l-2 -2l719 1347l106 41l56 -868l71 -539l68 -98l94 -13l-47 -88l-244 11l-215 -15l-10 109l74 -8l69 94l-40 403l10 15h-396l5 -19l-189 -368v-123l127 -17v-86l-231 25zM610 700l332 -14l-66 514zM692 1499l25 182l299 -24l284 39l-14 -189 l-291 13z" />
<glyph unicode="&#x101;" horiz-adv-x="813" d="M165 178l43 387l218 297l208 142l142 -7l159 -61l144 -14l-33 -74l-86 -43l-141 -653l22 -58l66 31l8 -105l-119 -22h2l-217 -66l55 150l-2 -2l13 49l-45 -49l-187 -125l-102 41zM372 477l19 -262l75 -84l119 41l88 90h-4l109 490v-2l8 92l-141 55l-146 -102zM367 1014 l25 182l299 -24l284 39l-14 -189l-291 13z" />
<glyph unicode="&#x102;" horiz-adv-x="1284" d="M28 -29l21 99l96 12l94 113l-2 -2l719 1347l106 41l56 -868l71 -539l68 -98l94 -13l-47 -88l-244 11l-215 -15l-10 109l74 -8l69 94l-40 403l10 15h-396l5 -19l-189 -368v-123l127 -17v-86l-231 25zM610 700l332 -14l-66 514zM834 1585v322l88 20v-198l69 -70l92 12 l80 92l-2 -6l66 170l86 -8l-80 -264l-129 -139l-145 -31z" />
<glyph unicode="&#x103;" horiz-adv-x="813" d="M165 178l43 387l218 297l208 142l142 -7l159 -61l144 -14l-33 -74l-86 -43l-141 -653l22 -58l66 31l8 -105l-119 -22h2l-217 -66l55 150l-2 -2l13 49l-45 -49l-187 -125l-102 41zM372 477l19 -262l75 -84l119 41l88 90h-4l109 490v-2l8 92l-141 55l-146 -102zM498 1100 v322l88 20v-198l69 -70l92 12l80 92l-2 -6l66 170l86 -8l-80 -264l-129 -139l-145 -31z" />
<glyph unicode="&#x104;" horiz-adv-x="1284" d="M28 -29l21 99l96 12l94 113l-2 -2l719 1347l106 41l56 -868l71 -539l68 -98l94 -13l-47 -88l-244 11l-215 -15l-10 109l74 -8l69 94l-40 403l10 15h-396l5 -19l-189 -368v-123l127 -17v-86l-231 25zM610 700l332 -14l-66 514zM873 -399l24 120l152 183l-10 37l-70 75 l76 66l117 -156l-19 -76l-117 -124l-6 -33l129 -127l70 47l37 -68l-139 -116l-125 34z" />
<glyph unicode="&#x105;" horiz-adv-x="813" d="M165 178l43 387l218 297l208 142l142 -7l159 -61l144 -14l-33 -74l-86 -43l-141 -653l22 -58l66 31l8 -105l-119 -22h2l-217 -66l55 150l-2 -2l13 49l-45 -49l-187 -125l-102 41zM372 477l19 -262l75 -84l119 41l88 90h-4l109 490v-2l8 92l-141 55l-146 -102zM475 -399 l24 120l152 183l-10 37l-70 75l76 66l117 -156l-19 -76l-117 -124l-6 -33l129 -127l70 47l37 -68l-139 -116l-125 34z" />
<glyph unicode="&#x106;" horiz-adv-x="1284" d="M215 309v375l141 360l239 283l326 137l377 17l209 -129l-23 -168l-28 -221l-88 18v180l-31 154l-187 71l-294 -71l-246 -248l-137 -354l-27 -320l137 -243l228 -107l192 35l217 203l98 198l76 -28l-194 -418l-222 -72l-278 -20l-309 129zM962 1532l273 385l131 -137 l-350 -303z" />
<glyph unicode="&#x107;" horiz-adv-x="780" d="M133 236l51 344l246 305l297 100l163 -29l76 -125l-145 -120l-125 147h-131l-137 -135l-72 -236l35 -243l131 -115l141 12l131 84l47 -41l-119 -131l-229 -86l-219 43zM553 1047l273 385l131 -137l-350 -303z" />
<glyph unicode="&#x10c;" horiz-adv-x="1284" d="M215 309v375l141 360l239 283l326 137l377 17l209 -129l-23 -168l-28 -221l-88 18v180l-31 154l-187 71l-294 -71l-246 -248l-137 -354l-27 -320l137 -243l228 -107l192 35l217 203l98 198l76 -28l-194 -418l-222 -72l-278 -20l-309 129zM958 1880l82 51l131 -207 l186 230l95 -66l-45 -45l-297 -375z" />
<glyph unicode="&#x10d;" horiz-adv-x="780" d="M133 236l51 344l246 305l297 100l163 -29l76 -125l-145 -120l-125 147h-131l-137 -135l-72 -236l35 -243l131 -115l141 12l131 84l47 -41l-119 -131l-229 -86l-219 43zM543 1395l82 51l131 -207l186 230l95 -66l-45 -45l-297 -375z" />
<glyph unicode="&#x10e;" horiz-adv-x="1476" d="M98 -41l6 88l129 43l102 141l205 988l-33 135h-100l14 96l222 -8l188 31h209l287 -103l231 -252l29 -338l-127 -385l-287 -268l-299 -135l-274 -25l-218 19zM542 176l119 -117l244 35l207 154l141 239l78 340l-37 291l-187 172l-225 78l-119 -4l7 -4l-228 -1043v-141z M803 1880l82 51l131 -207l186 230l95 -66l-45 -45l-297 -375z" />
<glyph unicode="&#x10f;" horiz-adv-x="1181" d="M147 178l43 387l217 299l281 121l108 4l109 -35l-15 21l101 379l-103 88l11 78l147 6l168 80l4 -78l-31 -62l-276 -1314l22 -58l66 31l8 -105l-119 -22h2l-217 -66l56 150l-2 -2l12 49l-47 -51l-219 -123l-177 39zM354 477l16 -258l148 -88l161 43l86 88h-4l80 379 l-35 199l-143 37l-194 -111zM1130 1047l25 106l141 59l102 136l-12 116l-16 37l-66 -26l-90 118l180 176l129 -129l21 -235l-76 -164l-131 -115z" />
<glyph unicode="&#x110;" horiz-adv-x="1476" d="M98 -41l6 88l129 43l102 141l205 988l-33 135h-100l14 96l222 -8l188 31h209l287 -103l231 -252l29 -338l-127 -385l-287 -268l-299 -135l-274 -25l-218 19zM542 176l119 -117l244 35l207 154l141 239l78 340l-37 291l-187 172l-225 78l-119 -4l7 -4l-228 -1043v-141z M292 631l45 195l218 -49l229 34l-57 -223l-175 39l5 4h-265z" />
<glyph unicode="&#x111;" horiz-adv-x="962" d="M147 178l43 387l217 299l281 121l108 4l109 -35l-15 21l101 379l-103 88l11 78l147 6l168 80l4 -78l-31 -62l-276 -1314l22 -58l66 31l8 -105l-119 -22h2l-217 -66l56 150l-2 -2l12 49l-47 -51l-219 -123l-177 39zM354 477l16 -258l148 -88l161 43l86 88h-4l80 379 l-35 199l-143 37l-194 -111zM807 1143l45 195l218 -49l229 34l-57 -223l-175 39l5 4h-265z" />
<glyph unicode="&#x112;" d="M69 -41l37 90l135 47l88 148l203 999l-39 119h-104l28 92h484h473l-78 -182l2 4l-29 -189l-78 -8l7 205l-119 72l-320 -15l-114 -548l258 10l118 78l62 139l76 -35l-86 -256l2 4l-31 -241l-90 -9v125l-94 66h-256l16 -21l-96 -428l71 -133l138 -24l190 32l168 160l76 221 l80 -41l-78 -229l-119 -231h-647zM682 1499l25 182l299 -24l284 39l-14 -189l-291 13z" />
<glyph unicode="&#x113;" horiz-adv-x="811" d="M129 352l124 350l199 216l139 65l191 -16l127 -127v-295l-547 -62l-23 -49l37 -182l146 -121l164 37l129 145l45 -88l-240 -215l-184 -49l-219 88zM382 584l347 55l10 180l-103 74l-112 -35l-80 -76zM358 1014l25 182l299 -24l284 39l-14 -189l-291 13z" />
<glyph unicode="&#x116;" d="M69 -41l37 90l135 47l88 148l203 999l-39 119h-104l28 92h484h473l-78 -182l2 4l-29 -189l-78 -8l7 205l-119 72l-320 -15l-114 -548l258 10l118 78l62 139l76 -35l-86 -256l2 4l-31 -241l-90 -9v125l-94 66h-256l16 -21l-96 -428l71 -133l138 -24l190 32l168 160l76 221 l80 -41l-78 -229l-119 -231h-647zM842 1663l185 164l110 -182l-192 -160z" />
<glyph unicode="&#x117;" horiz-adv-x="811" d="M129 352l124 350l199 216l139 65l191 -16l127 -127v-295l-547 -62l-23 -49l37 -182l146 -121l164 37l129 145l45 -88l-240 -215l-184 -49l-219 88zM382 584l347 55l10 180l-103 74l-112 -35l-80 -76zM536 1178l185 164l110 -182l-192 -160z" />
<glyph unicode="&#x118;" d="M69 -41l37 90l135 47l88 148l203 999l-39 119h-104l28 92h484h473l-78 -182l2 4l-29 -189l-78 -8l7 205l-119 72l-320 -15l-114 -548l258 10l118 78l62 139l76 -35l-86 -256l2 4l-31 -241l-90 -9v125l-94 66h-256l16 -21l-96 -428l71 -133l138 -24l190 32l168 160l76 221 l80 -41l-78 -229l-119 -231h-647zM465 -399l24 120l152 183l-10 37l-70 75l76 66l117 -156l-19 -76l-117 -124l-6 -33l129 -127l70 47l37 -68l-139 -116l-125 34z" />
<glyph unicode="&#x119;" horiz-adv-x="811" d="M129 352l124 350l199 216l139 65l191 -16l127 -127v-295l-547 -62l-23 -49l37 -182l146 -121l164 37l129 145l45 -88l-240 -215l-184 -49l-219 88zM382 584l347 55l10 180l-103 74l-112 -35l-80 -76zM229 -399l24 120l152 183l-10 37l-70 75l76 66l117 -156l-19 -76 l-117 -124l-6 -33l129 -127l70 47l37 -68l-139 -116l-125 34z" />
<glyph unicode="&#x11a;" d="M69 -41l37 90l135 47l88 148l203 999l-39 119h-104l28 92h484h473l-78 -182l2 4l-29 -189l-78 -8l7 205l-119 72l-320 -15l-114 -548l258 10l118 78l62 139l76 -35l-86 -256l2 4l-31 -241l-90 -9v125l-94 66h-256l16 -21l-96 -428l71 -133l138 -24l190 32l168 160l76 221 l80 -41l-78 -229l-119 -231h-647zM823 1880l82 51l131 -207l186 230l95 -66l-45 -45l-297 -375z" />
<glyph unicode="&#x11b;" horiz-adv-x="811" d="M129 352l124 350l199 216l139 65l191 -16l127 -127v-295l-547 -62l-23 -49l37 -182l146 -121l164 37l129 145l45 -88l-240 -215l-184 -49l-219 88zM382 584l347 55l10 180l-103 74l-112 -35l-80 -76zM504 1395l82 51l131 -207l186 230l95 -66l-45 -45l-297 -375z" />
<glyph unicode="&#x11e;" horiz-adv-x="1380" d="M204 391l60 467l227 342l350 242l391 39l357 -86l-80 -193l2 4l-37 -227l-72 12l-22 244l-152 143h-250l-241 -123l-154 -231l-102 -336v4l-21 -254l111 -223l199 -133l219 -29l88 62l49 237l-21 115l-122 37l47 104l211 -33l249 35l-16 -82l-131 -82l-45 -237l55 -115 l-211 -100l-194 -31h-334l-262 139zM959 1585v322l88 20v-198l69 -70l92 12l80 92l-2 -6l66 170l86 -8l-80 -264l-129 -139l-145 -31z" />
<glyph unicode="&#x11f;" horiz-adv-x="964" d="M100 -489l45 272l65 -27l19 -166l63 -55l117 21l166 120l111 172l51 215l-213 -96l-225 25l-152 235l39 332l240 299l235 109h213l115 -80l71 114l70 -32l-63 -131l-205 -965l-101 -233l-178 -144l-209 -69l-188 14zM348 338l78 -193l155 -51l168 66l-8 8l102 481l-8 142 l-135 81l-160 -47l-137 -207zM527 1100v322l88 20v-198l69 -70l92 12l80 92l-2 -6l66 170l86 -8l-80 -264l-129 -139l-145 -31z" />
<glyph unicode="&#x122;" horiz-adv-x="1380" d="M204 391l60 467l227 342l350 242l391 39l357 -86l-80 -193l2 4l-37 -227l-72 12l-22 244l-152 143h-250l-241 -123l-154 -231l-102 -336v4l-21 -254l111 -223l199 -133l219 -29l88 62l49 237l-21 115l-122 37l47 104l211 -33l249 35l-16 -82l-131 -82l-45 -237l55 -115 l-211 -100l-194 -31h-334l-262 139zM459 -465l123 133l96 -106l59 35l-98 198l53 82l193 186l67 -30l-108 -96l-31 -41l74 -183l-25 -116l-172 -134l-137 -36z" />
<glyph unicode="&#x123;" horiz-adv-x="964" d="M100 -489l45 272l65 -27l19 -166l63 -55l117 21l166 120l111 172l51 215l-213 -96l-225 25l-152 235l39 332l240 299l235 109h213l115 -80l71 114l70 -32l-63 -131l-205 -965l-101 -233l-178 -144l-209 -69l-188 14zM348 338l78 -193l155 -51l168 66l-8 8l102 481l-8 142 l-135 81l-160 -47l-137 -207zM579 963l25 106l141 59l102 136l-12 116l-16 37l-66 -26l-90 118l180 176l129 -129l21 -235l-76 -164l-131 -115z" />
<glyph unicode="&#x12a;" horiz-adv-x="710" d="M86 -31l20 97l162 53l43 90l-2 -4l227 1075l-90 76l-80 14l45 107l268 -64l293 51l9 -88l-138 -39l-98 -137l-227 -1012l34 -104l121 -39l-18 -88l-293 51zM432 1499l25 182l299 -24l284 39l-14 -189l-291 13z" />
<glyph unicode="&#x12b;" horiz-adv-x="493" d="M53 -23l37 95l82 10l61 92l102 555l-36 66l-48 -15l-8 88l160 54l145 79l50 -43l-203 -811l39 -77l53 -41l-23 -68l-182 29zM201 1014l25 182l299 -24l284 39l-14 -189l-291 13z" />
<glyph unicode="&#x12e;" horiz-adv-x="710" d="M86 -31l20 97l162 53l43 90l-2 -4l227 1075l-90 76l-80 14l45 107l268 -64l293 51l9 -88l-138 -39l-98 -137l-227 -1012l34 -104l121 -39l-18 -88l-293 51zM223 -387l24 120l152 183l-10 37l-70 75l76 66l117 -156l-19 -76l-117 -124l-6 -33l129 -127l70 47l37 -68 l-139 -116l-125 34z" />
<glyph unicode="&#x12f;" horiz-adv-x="493" d="M53 -23l37 95l82 10l61 92l102 555l-36 66l-48 -15l-8 88l160 54l145 79l50 -43l-203 -811l39 -77l53 -41l-23 -68l-182 29zM428 1386l176 168l88 -190l-176 -137zM98 -399l24 120l152 183l-10 37l-70 75l76 66l117 -156l-19 -76l-117 -124l-6 -33l129 -127l70 47l37 -68 l-139 -116l-125 34z" />
<glyph unicode="&#x130;" horiz-adv-x="710" d="M86 -31l20 97l162 53l43 90l-2 -4l227 1075l-90 76l-80 14l45 107l268 -64l293 51l9 -88l-138 -39l-98 -137l-227 -1012l34 -104l121 -39l-18 -88l-293 51zM577 1663l185 164l110 -182l-192 -160z" />
<glyph unicode="&#x131;" horiz-adv-x="493" d="M33 -23l37 95l82 10l61 92l102 555l-36 66l-48 -15l-8 88l160 54l145 79l50 -43l-203 -811l39 -77l53 -41l-23 -68l-182 29z" />
<glyph unicode="&#x136;" horiz-adv-x="1382" d="M90 -29l32 82l111 23l94 121l207 987l-20 153l-99 37l15 82l229 -22l268 43l-2 -101l-108 -30l-68 -82l-86 -465l201 151l321 350l-12 68l-57 12l6 76l217 -12l197 18l51 -86l-109 -16l-207 -117l4 4l-456 -452l14 6l279 -531l-5 4l175 -194l116 -39l-24 -78l-226 10 l-157 103l-150 241v-2l-217 322l-63 -287v-223l131 -68l-21 -94l-270 31zM369 -465l123 133l96 -106l59 35l-98 198l53 82l193 186l67 -30l-108 -96l-31 -41l74 -183l-25 -116l-172 -134l-137 -36z" />
<glyph unicode="&#x137;" horiz-adv-x="878" d="M65 -29l4 82l84 33l43 90l137 576l115 573l-31 82l-30 6l8 82l131 21l-6 -5l125 82l43 -39l-203 -813l-33 -184l221 244l6 45l-32 4l2 94l182 -12l244 43l-19 -94l-92 -13l-196 -104l-183 -195l10 2l222 -430l-2 2l71 -90l52 -2l-17 -63l-153 -33l-142 115l-168 399 l-22 -20l-66 -330l23 -47l73 -15l-16 -80l-194 21zM154 -465l123 133l96 -106l59 35l-98 198l53 82l193 186l67 -30l-108 -96l-31 -41l74 -183l-25 -116l-172 -134l-137 -36z" />
<glyph unicode="&#x139;" d="M88 -31l16 99l92 4l109 100l229 1096l-57 86h-107l29 119l262 -39l369 28l-49 -102l-132 -10l-94 -93l-246 -1095l35 -62h377l143 101l121 213l97 -23l-207 -428l-434 27zM635 1532l273 385l131 -137l-350 -303z" />
<glyph unicode="&#x13a;" horiz-adv-x="466" d="M51 -23l18 97l78 4l72 110l-4 -6l243 1176l-47 61l2 80l123 25l113 69l63 -34l-248 -990l-84 -426l31 -71l72 -15l-19 -90l-196 29zM405 1579l273 385l131 -137l-350 -303z" />
<glyph unicode="&#x13b;" d="M88 -31l16 99l92 4l109 100l229 1096l-57 86h-107l29 119l262 -39l369 28l-49 -102l-132 -10l-94 -93l-246 -1095l35 -62h377l143 101l121 213l97 -23l-207 -428l-434 27zM180 -465l123 133l96 -106l59 35l-98 198l53 82l193 186l67 -30l-108 -96l-31 -41l74 -183 l-25 -116l-172 -134l-137 -36z" />
<glyph unicode="&#x13c;" horiz-adv-x="466" d="M51 -23l18 97l78 4l72 110l-4 -6l243 1176l-47 61l2 80l123 25l113 69l63 -34l-248 -990l-84 -426l31 -71l72 -15l-19 -90l-196 29zM-76 -465l123 133l96 -106l59 35l-98 198l53 82l193 186l67 -30l-108 -96l-31 -41l74 -183l-25 -116l-172 -134l-137 -36z" />
<glyph unicode="&#x13d;" d="M88 -31l16 99l92 4l109 100l229 1096l-57 86h-107l29 119l262 -39l369 28l-49 -102l-132 -10l-94 -93l-246 -1095l35 -62h377l143 101l121 213l97 -23l-207 -428l-434 27zM909 781l25 106l141 59l102 136l-12 116l-16 37l-66 -26l-90 118l180 176l129 -129l21 -235 l-76 -164l-131 -115z" />
<glyph unicode="&#x13e;" horiz-adv-x="649" d="M51 -23l18 97l78 4l72 110l-4 -6l243 1176l-47 61l2 80l123 25l113 69l63 -34l-248 -990l-84 -426l31 -71l72 -15l-19 -90l-196 29zM612 957l25 106l141 59l102 136l-12 116l-16 37l-66 -26l-90 118l180 176l129 -129l21 -235l-76 -164l-131 -115z" />
<glyph unicode="&#x141;" d="M68 -31l16 99l92 4l109 100l104 500l-217 -99l-37 127l279 91l100 477l-57 86h-107l29 119l262 -39l369 28l-49 -102l-132 -10l-94 -93l-82 -360l224 115l6 -140l-256 -100l-138 -610l35 -62h377l143 101l121 213l97 -23l-207 -428l-434 27z" />
<glyph unicode="&#x142;" horiz-adv-x="466" d="M33 -23l18 97l78 4l68 104l114 518l-164 -92l-8 178l203 56l98 514l-47 63l2 80l123 25l113 69l63 -34l-172 -652l191 78l-6 -137l-215 -66l-130 -639l31 -71l72 -15l-19 -90l-196 29z" />
<glyph unicode="&#x143;" horiz-adv-x="1478" d="M2 -53l16 84l160 53l127 180l196 926l-65 156l-140 18l3 82l172 12l170 17l593 -1063l17 -45l162 841l-33 144l-152 30l27 93l262 -27l240 20v-88l-127 -26l-97 -137l-245 -1123v2l-21 -239l-680 1173l-8 43l-170 -842l60 -127l102 -38l-21 -93l-254 13zM903 1532 l273 385l131 -137l-350 -303z" />
<glyph unicode="&#x144;" horiz-adv-x="980" d="M75 51l72 29l66 92l118 557l-35 64l-30 -13l-15 78l156 51l129 92l41 -43l-37 -110l96 67l248 76l158 -112v-213l-125 -539l35 -66l31 -16l-15 -74l-168 21l-194 -27l8 92l74 19l59 78l109 516l-48 151l-124 10l-177 -81l-129 -611l31 -67l80 -17l-25 -71h-381zM604 1047 l273 385l131 -137l-350 -303z" />
<glyph unicode="&#x145;" horiz-adv-x="1478" d="M2 -53l16 84l160 53l127 180l196 926l-65 156l-140 18l3 82l172 12l170 17l593 -1063l17 -45l162 841l-33 144l-152 30l27 93l262 -27l240 20v-88l-127 -26l-97 -137l-245 -1123v2l-21 -239l-680 1173l-8 43l-170 -842l60 -127l102 -38l-21 -93l-254 13zM404 -465 l123 133l96 -106l59 35l-98 198l53 82l193 186l67 -30l-108 -96l-31 -41l74 -183l-25 -116l-172 -134l-137 -36z" />
<glyph unicode="&#x146;" horiz-adv-x="980" d="M75 51l72 29l66 92l118 557l-35 64l-30 -13l-15 78l156 51l129 92l41 -43l-37 -110l96 67l248 76l158 -112v-213l-125 -539l35 -66l31 -16l-15 -74l-168 21l-194 -27l8 92l74 19l59 78l109 516l-48 151l-124 10l-177 -81l-129 -611l31 -67l80 -17l-25 -71h-381zM131 -465 l123 133l96 -106l59 35l-98 198l53 82l193 186l67 -30l-108 -96l-31 -41l74 -183l-25 -116l-172 -134l-137 -36z" />
<glyph unicode="&#x147;" horiz-adv-x="1478" d="M2 -53l16 84l160 53l127 180l196 926l-65 156l-140 18l3 82l172 12l170 17l593 -1063l17 -45l162 841l-33 144l-152 30l27 93l262 -27l240 20v-88l-127 -26l-97 -137l-245 -1123v2l-21 -239l-680 1173l-8 43l-170 -842l60 -127l102 -38l-21 -93l-254 13zM858 1880l82 51 l131 -207l186 230l95 -66l-45 -45l-297 -375z" />
<glyph unicode="&#x148;" horiz-adv-x="980" d="M75 51l72 29l66 92l118 557l-35 64l-30 -13l-15 78l156 51l129 92l41 -43l-37 -110l96 67l248 76l158 -112v-213l-125 -539l35 -66l31 -16l-15 -74l-168 21l-194 -27l8 92l74 19l59 78l109 516l-48 151l-124 10l-177 -81l-129 -611l31 -67l80 -17l-25 -71h-381zM598 1395 l82 51l131 -207l186 230l95 -66l-45 -45l-297 -375z" />
<glyph unicode="&#x14c;" horiz-adv-x="1480" d="M227 291v432l47 147l207 379l368 211l383 13l291 -183l92 -372l-86 -412l-217 -334l-329 -197l-299 -22l-279 104zM466 395l125 -272l240 -55l283 137l168 284l90 377l-41 314l-90 159l-174 47l-191 -49l-223 -186l-170 -416zM797 1499l25 182l299 -24l284 39l-14 -189 l-291 13z" />
<glyph unicode="&#x14d;" horiz-adv-x="997" d="M139 205l24 297l179 334l268 131h233l90 -29l138 -133l22 -264l-106 -299l-191 -207l-264 -68l-248 47zM331 352l47 -221l123 -78l156 25l135 180l111 303l-19 227l-104 86l-162 -6l-174 -168zM471 1014l25 182l299 -24l284 39l-14 -189l-291 13z" />
<glyph unicode="&#x150;" horiz-adv-x="1480" d="M227 291v432l47 147l207 379l368 211l383 13l291 -183l92 -372l-86 -412l-217 -334l-329 -197l-299 -22l-279 104zM466 395l125 -272l240 -55l283 137l168 284l90 377l-41 314l-90 159l-174 47l-191 -49l-223 -186l-170 -416zM868 1556l307 373l127 -78l-391 -374z M1022 1542l356 361l119 -95l-428 -342z" />
<glyph unicode="&#x151;" horiz-adv-x="997" d="M139 205l24 297l179 334l268 131h233l90 -29l138 -133l22 -264l-106 -299l-191 -207l-264 -68l-248 47zM331 352l47 -221l123 -78l156 25l135 180l111 303l-19 227l-104 86l-162 -6l-174 -168zM469 1071l307 373l127 -78l-391 -374zM623 1057l356 361l119 -95l-428 -342z " />
<glyph unicode="&#x152;" horiz-adv-x="1775" d="M193 535l141 516l287 299l374 110l658 -18l317 26l-57 -155l2 2l-41 -191l-96 -18l20 129l-125 111h-287l-124 -545h190l125 55l78 143l90 25l-105 -297l2 4l-26 -258l-78 16l6 101l-82 88h-221l6 -2l-102 -494l100 -114l201 6l199 133l88 221l98 -16l-176 -426h-639 l-375 -11l-332 179zM440 598l23 -305l201 -211l167 -14l101 82l131 571l131 641l-152 10l-215 -63l-286 -303z" />
<glyph unicode="&#x153;" horiz-adv-x="1507" d="M109 205l30 297l172 344l248 135h215l86 -37l123 -133v-16l113 123l141 65l188 -16l129 -127v-295l-555 -56l7 -8l-23 -47l37 -182l149 -121l160 37l129 143l43 -92l-233 -209l-187 -49l-221 88l-31 111l-112 -131l-248 -72l-227 49zM293 348l37 -223l116 -78l136 25 l129 182l108 311l-12 230l-92 90l-146 -6l-166 -170zM1042 592l318 47l8 180l-100 76l-94 -33l-72 -78z" />
<glyph unicode="&#x154;" horiz-adv-x="1382" d="M92 -27l32 93l134 34l77 103l232 1063l-51 80l-121 26l51 88l201 -12l229 18l217 -12l211 -197l-55 -303l-152 -168l-129 -53l62 -26l47 -322v2l53 -272l188 -62v-92l-247 6l-170 131l-50 453l-65 92l-150 6l-90 -395l9 -121l145 -74l-10 -86l-287 29zM657 745l166 23 l194 160l56 268l-109 166l-143 24l-27 -4zM798 1532l273 385l131 -137l-350 -303z" />
<glyph unicode="&#x155;" horiz-adv-x="657" d="M75 -29l13 82l79 27l64 102l-4 -6l100 557l-33 53h-43l15 78l114 35l-4 -4l148 96l39 -47l-56 -178l123 147l146 74l90 -153l-166 -150l-53 94l-109 -76l-69 -161l2 4l-86 -383l30 -76l107 -33l-15 -71l-229 20zM481 1047l273 385l131 -137l-350 -303z" />
<glyph unicode="&#x156;" horiz-adv-x="1382" d="M92 -27l32 93l134 34l77 103l232 1063l-51 80l-121 26l51 88l201 -12l229 18l217 -12l211 -197l-55 -303l-152 -168l-129 -53l62 -26l47 -322v2l53 -272l188 -62v-92l-247 6l-170 131l-50 453l-65 92l-150 6l-90 -395l9 -121l145 -74l-10 -86l-287 29zM657 745l166 23 l194 160l56 268l-109 166l-143 24l-27 -4zM404 -465l123 133l96 -106l59 35l-98 198l53 82l193 186l67 -30l-108 -96l-31 -41l74 -183l-25 -116l-172 -134l-137 -36z" />
<glyph unicode="&#x157;" horiz-adv-x="657" d="M75 -29l13 82l79 27l64 102l-4 -6l100 557l-33 53h-43l15 78l114 35l-4 -4l148 96l39 -47l-56 -178l123 147l146 74l90 -153l-166 -150l-53 94l-109 -76l-69 -161l2 4l-86 -383l30 -76l107 -33l-15 -71l-229 20zM-35 -465l123 133l96 -106l59 35l-98 198l53 82l193 186 l67 -30l-108 -96l-31 -41l74 -183l-25 -116l-172 -134l-137 -36z" />
<glyph unicode="&#x158;" horiz-adv-x="1382" d="M92 -27l32 93l134 34l77 103l232 1063l-51 80l-121 26l51 88l201 -12l229 18l217 -12l211 -197l-55 -303l-152 -168l-129 -53l62 -26l47 -322v2l53 -272l188 -62v-92l-247 6l-170 131l-50 453l-65 92l-150 6l-90 -395l9 -121l145 -74l-10 -86l-287 29zM657 745l166 23 l194 160l56 268l-109 166l-143 24l-27 -4zM770 1880l82 51l131 -207l186 230l95 -66l-45 -45l-297 -375z" />
<glyph unicode="&#x159;" horiz-adv-x="657" d="M75 -29l13 82l79 27l64 102l-4 -6l100 557l-33 53h-43l15 78l114 35l-4 -4l148 96l39 -47l-56 -178l123 147l146 74l90 -153l-166 -150l-53 94l-109 -76l-69 -161l2 4l-86 -383l30 -76l107 -33l-15 -71l-229 20zM438 1395l82 51l131 -207l186 230l95 -66l-45 -45 l-297 -375z" />
<glyph unicode="&#x15a;" horiz-adv-x="997" d="M155 68l21 362l73 47l29 -246l127 -157l186 -6l177 143l22 215l-377 418l10 248l127 251l232 146h235l181 -103l-95 -339h-67l-6 258l-117 81l-172 -28l-119 -213l33 -174l256 -234l133 -221l-53 -272l-189 -203l-233 -94l-232 20zM792 1532l273 385l131 -137l-350 -303z " />
<glyph unicode="&#x15b;" horiz-adv-x="684" d="M96 59l43 273l65 -27l19 -168l90 -76l129 31l70 162l-52 111l-215 174l6 206l119 164l176 72l86 -6l150 -70l-45 -241l-68 12l-12 143l-76 70l-90 -23l-63 -106l16 -109l240 -243l4 -164l-121 -193l-193 -82l-192 21zM450 1047l273 385l131 -137l-350 -303z" />
<glyph unicode="&#x15e;" horiz-adv-x="997" d="M155 68l21 362l73 47l29 -246l127 -157l186 -6l177 143l22 215l-377 418l10 248l127 251l232 146h235l181 -103l-95 -339h-67l-6 258l-117 81l-172 -28l-119 -213l33 -174l256 -234l133 -221l-53 -272l-189 -203l-233 -94l-232 20zM180 -465l123 133l96 -106l59 35 l-98 198l53 82l193 186l67 -30l-108 -96l-31 -41l74 -183l-25 -116l-172 -134l-137 -36z" />
<glyph unicode="&#x15f;" horiz-adv-x="684" d="M96 59l43 273l65 -27l19 -168l90 -76l129 31l70 162l-52 111l-215 174l6 206l119 164l176 72l86 -6l150 -70l-45 -241l-68 12l-12 143l-76 70l-90 -23l-63 -106l16 -109l240 -243l4 -164l-121 -193l-193 -82l-192 21zM-6 -465l123 133l96 -106l59 35l-98 198l53 82 l193 186l67 -30l-108 -96l-31 -41l74 -183l-25 -116l-172 -134l-137 -36z" />
<glyph unicode="&#x160;" horiz-adv-x="997" d="M155 68l21 362l73 47l29 -246l127 -157l186 -6l177 143l22 215l-377 418l10 248l127 251l232 146h235l181 -103l-95 -339h-67l-6 258l-117 81l-172 -28l-119 -213l33 -174l256 -234l133 -221l-53 -272l-189 -203l-233 -94l-232 20zM766 1880l82 51l131 -207l186 230 l95 -66l-45 -45l-297 -375z" />
<glyph unicode="&#x161;" horiz-adv-x="684" d="M96 59l43 273l65 -27l19 -168l90 -76l129 31l70 162l-52 111l-215 174l6 206l119 164l176 72l86 -6l150 -70l-45 -241l-68 12l-12 143l-76 70l-90 -23l-63 -106l16 -109l240 -243l4 -164l-121 -193l-193 -82l-192 21zM426 1395l82 51l131 -207l186 230l95 -66l-45 -45 l-297 -375z" />
<glyph unicode="&#x162;" horiz-adv-x="1189" d="M245 1108l140 426l84 -86h921l119 119l-72 -482l-86 -30v162l-114 116l-238 6l-234 -1073l17 -147l176 -68l-18 -80l-318 27l-354 -25l20 70l197 70l88 149l223 1077h-139l-203 -41l-143 -239zM180 -465l123 133l96 -106l59 35l-98 198l53 82l193 186l67 -30l-108 -96 l-31 -41l74 -183l-25 -116l-172 -134l-137 -36z" />
<glyph unicode="&#x163;" horiz-adv-x="505" d="M200 180l137 606h-98l-26 62l327 297l70 -12l-53 -195h131l-17 -147l-162 -13l-77 -377v2l-33 -247l27 -50l102 41l8 -81l-160 -111l-157 45zM-20 -465l123 133l96 -106l59 35l-98 198l53 82l193 186l67 -30l-108 -96l-31 -41l74 -183l-25 -116l-172 -134l-137 -36z" />
<glyph unicode="&#x164;" horiz-adv-x="1189" d="M245 1108l140 426l84 -86h921l119 119l-72 -482l-86 -30v162l-114 116l-238 6l-234 -1073l17 -147l176 -68l-18 -80l-318 27l-354 -25l20 70l197 70l88 149l223 1077h-139l-203 -41l-143 -239zM760 1880l82 51l131 -207l186 230l95 -66l-45 -45l-297 -375z" />
<glyph unicode="&#x165;" horiz-adv-x="643" d="M200 180l137 606h-98l-26 62l327 297l70 -12l-53 -195h131l-17 -147l-162 -13l-77 -377v2l-33 -247l27 -50l102 41l8 -81l-160 -111l-157 45zM522 605l25 106l141 59l102 136l-12 116l-16 37l-66 -26l-90 118l180 176l129 -129l21 -235l-76 -164l-131 -115z" />
<glyph unicode="&#x16a;" horiz-adv-x="1476" d="M319 291l188 932l-36 123l-95 20l2 82l285 -12l285 26l-29 -98l-104 -14l-103 -140l-184 -872l98 -201l240 -31l229 64l150 209l170 825l-33 135l-107 47l33 68l228 -10l217 12l-23 -86l-82 -24l-86 -127l-133 -619l-129 -352l-238 -246l-309 -57l-301 69zM805 1499 l25 182l299 -24l284 39l-14 -189l-291 13z" />
<glyph unicode="&#x16b;" horiz-adv-x="989" d="M208 86l54 385l65 311l-35 68l-45 20l-2 91l150 -17l162 35l-150 -711l57 -149h136l145 90l-14 16l114 566l-26 59l-76 16l2 90l156 -14l198 35l-116 -471l-80 -367l24 -30l82 18l-31 -100l-135 -9l-168 -69l27 153l-135 -88l-195 -43zM434 1014l25 182l299 -24l284 39 l-14 -189l-291 13z" />
<glyph unicode="&#x16e;" horiz-adv-x="1476" d="M319 291l188 932l-36 123l-95 20l2 82l285 -12l285 26l-29 -98l-104 -14l-103 -140l-184 -872l98 -201l240 -31l229 64l150 209l170 825l-33 135l-107 47l33 68l228 -10l217 12l-23 -86l-82 -24l-86 -127l-133 -619l-129 -352l-238 -246l-309 -57l-301 69zM913 1606 l41 192l117 115l182 31l102 -115l-14 -187l-104 -159l-217 -23zM1022 1640l59 -79l98 32l78 148l-45 82l-80 -2l-82 -70z" />
<glyph unicode="&#x16f;" horiz-adv-x="989" d="M208 86l54 385l65 311l-35 68l-45 20l-2 91l150 -17l162 35l-150 -711l57 -149h136l145 90l-14 16l114 566l-26 59l-76 16l2 90l156 -14l198 35l-116 -471l-80 -367l24 -30l82 18l-31 -100l-135 -9l-168 -69l27 153l-135 -88l-195 -43zM553 1121l41 192l117 115l182 31 l102 -115l-14 -187l-104 -159l-217 -23zM662 1155l59 -79l98 32l78 148l-45 82l-80 -2l-82 -70z" />
<glyph unicode="&#x170;" horiz-adv-x="1476" d="M319 291l188 932l-36 123l-95 20l2 82l285 -12l285 26l-29 -98l-104 -14l-103 -140l-184 -872l98 -201l240 -31l229 64l150 209l170 825l-33 135l-107 47l33 68l228 -10l217 12l-23 -86l-82 -24l-86 -127l-133 -619l-129 -352l-238 -246l-309 -57l-301 69zM930 1556 l307 373l127 -78l-391 -374zM1084 1542l356 361l119 -95l-428 -342z" />
<glyph unicode="&#x171;" horiz-adv-x="989" d="M208 86l54 385l65 311l-35 68l-45 20l-2 91l150 -17l162 35l-150 -711l57 -149h136l145 90l-14 16l114 566l-26 59l-76 16l2 90l156 -14l198 35l-116 -471l-80 -367l24 -30l82 18l-31 -100l-135 -9l-168 -69l27 153l-135 -88l-195 -43zM471 1071l307 373l127 -78 l-391 -374zM625 1057l356 361l119 -95l-428 -342z" />
<glyph unicode="&#x172;" horiz-adv-x="1476" d="M319 291l188 932l-36 123l-95 20l2 82l285 -12l285 26l-29 -98l-104 -14l-103 -140l-184 -872l98 -201l240 -31l229 64l150 209l170 825l-33 135l-107 47l33 68l228 -10l217 12l-23 -86l-82 -24l-86 -127l-133 -619l-129 -352l-238 -246l-309 -57l-301 69zM602 -399 l24 120l152 183l-10 37l-70 75l76 66l117 -156l-19 -76l-117 -124l-6 -33l129 -127l70 47l37 -68l-139 -116l-125 34z" />
<glyph unicode="&#x173;" horiz-adv-x="989" d="M208 86l54 385l65 311l-35 68l-45 20l-2 91l150 -17l162 35l-150 -711l57 -149h136l145 90l-14 16l114 566l-26 59l-76 16l2 90l156 -14l198 35l-116 -471l-80 -367l24 -30l82 18l-31 -100l-135 -9l-168 -69l27 153l-135 -88l-195 -43zM305 -399l24 120l152 183l-10 37 l-70 75l76 66l117 -156l-19 -76l-117 -124l-6 -33l129 -127l70 47l37 -68l-139 -116l-125 34z" />
<glyph unicode="&#x178;" d="M337 -31l41 107l78 16l92 111l86 401l-153 713l-105 53l29 82l193 -27l239 37l-8 -86l-74 -22l-37 -56l99 -536l331 508l-16 102l-82 6l19 78l196 -18l219 22l-14 -86l-61 -8l-154 -119l-412 -598l-90 -401l25 -139l114 -50l-18 -82l-276 21zM625 1606l164 172l113 -146 l-148 -166zM1002 1614l164 164l108 -154l-151 -145z" />
<glyph unicode="&#x179;" horiz-adv-x="1288" d="M47 -39l1132 1360h6h-440l-184 -125l-119 -215l-51 45l129 416l479 -12l543 16l-1078 -1337l480 10l213 119l145 229h90l-192 -475h-885h2zM929 1532l273 385l131 -137l-350 -303z" />
<glyph unicode="&#x17a;" horiz-adv-x="813" d="M-3 -37l693 885l-254 -10l-90 -58l-72 -153l-61 10l86 299h315l399 16l-686 -872l281 22l125 72l94 176l82 -8l-162 -350h-457zM505 1047l273 385l131 -137l-350 -303z" />
<glyph unicode="&#x17b;" horiz-adv-x="1288" d="M47 -39l1132 1360h6h-440l-184 -125l-119 -215l-51 45l129 416l479 -12l543 16l-1078 -1337l480 10l213 119l145 229h90l-192 -475h-885h2zM936 1663l185 164l110 -182l-192 -160z" />
<glyph unicode="&#x17c;" horiz-adv-x="813" d="M-3 -37l693 885l-254 -10l-90 -58l-72 -153l-61 10l86 299h315l399 16l-686 -872l281 22l125 72l94 176l82 -8l-162 -350h-457zM545 1178l185 164l110 -182l-192 -160z" />
<glyph unicode="&#x17d;" horiz-adv-x="1288" d="M47 -39l1132 1360h6h-440l-184 -125l-119 -215l-51 45l129 416l479 -12l543 16l-1078 -1337l480 10l213 119l145 229h90l-192 -475h-885h2zM885 1880l82 51l131 -207l186 230l95 -66l-45 -45l-297 -375z" />
<glyph unicode="&#x17e;" horiz-adv-x="813" d="M-3 -37l693 885l-254 -10l-90 -58l-72 -153l-61 10l86 299h315l399 16l-686 -872l281 22l125 72l94 176l82 -8l-162 -350h-457zM545 1395l82 51l131 -207l186 230l95 -66l-45 -45l-297 -375z" />
<glyph unicode="&#x192;" horiz-adv-x="997" d="M-80 -227l172 155l78 -141l113 107l247 751l-184 4l49 101h117l82 86l242 512l331 225l154 -64l41 -120l-137 -121l-117 157l-82 -34l-264 -623l254 -10l-68 -115h-219l-289 -741l-307 -285h-123z" />
<glyph unicode="&#x2c6;" horiz-adv-x="909" d="M512 1505l49 45l299 375l148 -412l-76 -53l-144 199l-180 -219z" />
<glyph unicode="&#x2c7;" horiz-adv-x="909" d="M598 1880l82 51l131 -207l186 230l95 -66l-45 -45l-297 -375z" />
<glyph unicode="&#x2d8;" horiz-adv-x="909" d="M623 1585v322l88 20v-198l69 -70l92 12l80 92l-2 -6l66 170l86 -8l-80 -264l-129 -139l-145 -31z" />
<glyph unicode="&#x2d9;" horiz-adv-x="638" d="M520 1663l185 164l110 -182l-192 -160z" />
<glyph unicode="&#x2db;" horiz-adv-x="909" d="M209 -399l24 120l152 183l-10 37l-70 75l76 66l117 -156l-19 -76l-117 -124l-6 -33l129 -127l70 47l37 -68l-139 -116l-125 34z" />
<glyph unicode="&#x2dc;" horiz-adv-x="909" d="M420 1567l219 141l86 10l180 -80l105 7l108 106l62 -61l-230 -189l-110 -12l-199 90l-180 -100z" />
<glyph unicode="&#x2dd;" horiz-adv-x="909" d="M551 1556l307 373l127 -78l-391 -374zM705 1542l356 361l119 -95l-428 -342z" />
<glyph unicode="&#x2013;" horiz-adv-x="909" d="M84 410l35 180l446 -35l430 23l-14 -162l-412 10z" />
<glyph unicode="&#x2014;" horiz-adv-x="1775" d="M80 395l53 189h973h760l-19 -168l-770 22z" />
<glyph unicode="&#x2018;" horiz-adv-x="428" d="M274 1147l150 270l172 82l141 -8l-28 -72l-138 -18l-131 -131l-8 -140l39 -43l57 31l72 -145l-117 -129l-153 65z" />
<glyph unicode="&#x2019;" horiz-adv-x="428" d="M236 920l200 86l74 182l-37 82l-57 -8l-99 120l199 162l123 -145v-279l-150 -190l-241 -84z" />
<glyph unicode="&#x201a;" horiz-adv-x="428" d="M-63 -416l30 105h117l137 123l29 143l-47 70l-56 -27l-108 117l145 143l183 -129v-256l-119 -174l-150 -86z" />
<glyph unicode="&#x201c;" horiz-adv-x="804" d="M276 1176l115 202l166 99l145 20v-84l-141 -29l-102 -71l-33 -176l45 -64l59 39l68 -139l-125 -142l-176 103zM643 1083l62 230l192 151l205 31l-43 -80l-139 -31l-99 -104l-12 -119l59 -94l62 57l65 -157l-118 -125l-146 35z" />
<glyph unicode="&#x201d;" horiz-adv-x="804" d="M236 852l8 113l82 -21l182 127l-6 199l-33 10l-57 -20l-78 126l145 138l154 -115l20 -227l-114 -224l-164 -86zM582 864l32 92l80 -8l187 127l-37 211l-62 -22l-96 112l154 166l196 -174l-28 -254l-131 -184l-175 -72z" />
<glyph unicode="&#x201e;" horiz-adv-x="804" d="M-41 -412l14 84l115 21l135 139l19 139l-45 39l-39 -18l-111 112l166 160l174 -176l-6 -194l-125 -199l-172 -98zM338 -389l14 82l113 4l151 166l7 102l-48 58l-61 -13l-98 92l162 162l184 -198l-14 -193l-148 -217l-184 -62z" />
<glyph unicode="&#x2020;" horiz-adv-x="1003" d="M268 -305l359 1184l-338 -17l43 197l332 -49l57 460h231l-174 -458l355 57l-68 -258l-322 70l-186 -1186h-289z" />
<glyph unicode="&#x2021;" horiz-adv-x="1003" d="M135 135l70 197l311 -29l125 594l-352 -43l51 256l315 -92l62 430l268 45l-197 -489l318 59l-41 -197l-315 27l-121 -596l327 16l-65 -207l-305 54l-62 -453l-200 -16l157 489z" />
<glyph unicode="&#x2022;" horiz-adv-x="1062" d="M399 590l58 305l217 186l203 6l104 -206l-29 -226l-198 -204l-232 -9z" />
<glyph unicode="&#x2026;" horiz-adv-x="1775" d="M188 88l183 182l90 -166l-162 -174zM752 109l204 165l103 -190l-176 -154zM1331 104l197 187l92 -182l-160 -162z" />
<glyph unicode="&#x2030;" horiz-adv-x="2195" d="M291 791v239l117 283l174 135l133 25l174 -60l78 -270l-66 -283l-133 -186l-141 -101l-25 21l-156 10zM301 -4l582 721l565 801l102 -121l-571 -715l-563 -813zM508 711l47 -29l109 80l75 264v-4l41 285l-67 73l-47 -10l-84 -110l-62 -287v4zM936 258l61 311l136 248 l188 25l156 -25l118 -217l-41 -289l-118 -254l-183 -96l-221 43zM1108 307l2 -196l55 -62l113 45l115 244l30 276l-12 119l-117 -14l-114 -144zM1563 258l61 311l135 230l189 43l155 -25l119 -217l-41 -289l-119 -254l-182 -96l-221 43zM1735 307l2 -196l55 -62l113 45 l114 244l31 276l-12 119l-117 -14l-115 -144z" />
<glyph unicode="&#x2039;" horiz-adv-x="522" d="M111 477l471 397l82 -26l-187 -244l-176 -125l111 -80l98 -272l-76 -66z" />
<glyph unicode="&#x203a;" horiz-adv-x="522" d="M61 139l193 238l137 106l-88 101l-94 239l78 58l311 -420l-477 -387z" />
<glyph unicode="&#x20ac;" horiz-adv-x="1284" d="M49 393l49 174l117 -10v129l30 78l-112 -8l47 207l139 -13l37 92l239 285l326 137l377 17l199 -125l-136 -170l-24 129l-187 71l-294 -71l-246 -248l-51 -135l610 8l-137 -172l-449 25l-82 -9l-28 -71l-15 -174l86 -7l318 19l-119 -152l-215 9l-82 -5l137 -253l228 -107 l192 35l217 203l17 34l63 -67l-100 -215l-222 -72l-278 -20l-309 129l-178 239l-3 88z" />
<glyph unicode="&#x2122;" horiz-adv-x="1466" d="M467 1274l82 199l166 -9l225 15l-12 -209l-86 -8l8 98l-41 33l-39 2l6 -9l-92 -401l6 -31l62 7l-33 -93l-107 27l-120 -10l12 82l47 -13l22 29l78 408h-20l-37 -29l-51 -107zM844 881l12 73h51l33 33l86 365l-2 37l-41 12l-12 80l110 -17l84 11l31 -365l190 367l50 -17 h116l-14 -82l-39 11l-14 -21l-99 -381l9 -31l71 7l-22 -89l-115 25l-137 -31l8 93l64 -7l30 58l52 225l-187 -352l-65 2l-23 344l-49 -215l-2 -53l65 -5l5 -77h-246z" />
<glyph unicode="&#x2212;" horiz-adv-x="626" d="M147 371l50 102l14 115l219 10l256 35l-51 -133v-105l-229 31z" />
<glyph unicode="&#x2219;" horiz-adv-x="520" d="M264 733l191 139l102 -163l-188 -170z" />
<glyph unicode="&#xe000;" horiz-adv-x="970" d="M0 970h970v-970h-970v970z" />
<glyph horiz-adv-x="610" d="M430 1606l41 192l117 115l182 31l102 -115l-14 -187l-104 -159l-217 -23zM539 1640l59 -79l98 32l78 148l-45 82l-80 -2l-82 -70z" />
</font>
</defs>
</svg>
