<?xml version="1.0" standalone="no"?>
<!DOCTYPE svg PUBLIC "-//W3C//DTD SVG 1.1//EN" "http://www.w3.org/Graphics/SVG/1.1/DTD/svg11.dtd" >
<svg xmlns="http://www.w3.org/2000/svg">
<metadata>
This is a custom SVG webfont generated by Font Squirrel.
Copyright   :  2000 Ray Larabie This font is freeware Read attached text file for details Info  updates visit wwwlarabiefontscom Donations gratefully accepted at wwwlarabiefontscomdonationhtml Also visit my commercial type foundry at wwwtypodermiccom This font was updated in 2004
Designer    : Ray Larabie
Foundry     : Ray Larabie
Foundry URL : httpwwwlarabiefontscom
</metadata>
<defs>
<font id="Beryliumbold" horiz-adv-x="1312" >
<font-face units-per-em="2048" ascent="1638" descent="-410" />
<missing-glyph horiz-adv-x="653" />
<glyph unicode=" "  horiz-adv-x="653" />
<glyph unicode="&#x09;" horiz-adv-x="653" />
<glyph unicode="&#xa0;" horiz-adv-x="653" />
<glyph unicode="!" horiz-adv-x="423" d="M57 104l148 148l147 -156l-147 -170zM125 1354l117 145l137 -139l-55 -477l-37 -508h-99l-16 497v-2z" />
<glyph unicode="&#x22;" horiz-adv-x="677" d="M57 1370l133 158l113 -142l-43 -225v2l-31 -323h-92l-16 334v-5zM365 1393l143 174l106 -199l-51 -209v2l-45 -330l-84 11l-6 327v-6z" />
<glyph unicode="#" horiz-adv-x="1325" d="M94 524l21 142l157 -17l150 17l74 262l-125 -4h2l-172 -17l26 156l181 -21l124 7l132 456l61 -51h76l-178 -418h108l131 13l76 217l-2 -2l55 235l53 -53l105 22l-107 -221v2l-77 -209l133 11l159 24l-12 -178l-149 27l-164 -4l-90 -265l291 15l-11 -170l-125 47l-196 -23 l-101 -319v2l-41 -189l-65 39l-76 25l178 446l-225 -10l-78 -242v3l-57 -252l-135 88l178 428l-139 -6h2zM506 655l231 -6l72 240l31 37l-109 4l-123 4z" />
<glyph unicode="$" horiz-adv-x="1103" d="M86 487l74 -4l53 -143v2l129 -215l160 -49h26v547l-16 -7l-215 150l-139 289l75 239l175 134l124 24v143l109 -8l-18 -135h145l188 -90l-34 -328l-82 -14l-19 180l-112 141l-74 17v-518l233 -154l129 -268l-22 -191l-148 -176l-204 -82l6 -174l-111 -10l12 193h-145 l-252 92zM367 1069l82 -129l94 -66v480l-74 -21l-96 -88zM623 82l75 16l76 92l19 115l-58 195l-112 73v-491z" />
<glyph unicode="%" horiz-adv-x="1763" d="M82 1026l61 285l166 137l144 27l196 -58l150 -270v-285l-109 -186l-176 -131l12 47l-180 12l-207 182zM336 -8l479 725l-2 -2l440 803l136 -115l-469 -719h2l-437 -815zM344 981l49 -270l64 -31l102 82l21 258l-21 283l-98 77l-51 -12l-66 -104v-283zM977 252v313l96 252 l197 25l176 -25l182 -211l19 -295l-70 -252l-182 -98l-252 43zM1151 315l51 -200l82 -66l115 45l67 244l-30 274l-43 123l-133 -16l-93 -139z" />
<glyph unicode="&#x26;" horiz-adv-x="1642" d="M92 303l23 268l170 191l112 84l-137 153l-37 189l70 168l190 127h252l154 -129l49 -201l-94 -162l-156 -96l4 2l-12 -12l338 -389l123 223l16 108l-67 56l-23 88l217 -43l305 18l-20 -82l-142 -30l-200 -179l-148 -239l183 -234l170 -80l176 4v-118l-267 -35l-229 24 l-160 267l-104 -135l-219 -142l-189 -10l-209 80zM285 399l131 -186l170 -82l202 59l107 113l-422 500l-84 -55l-92 -138zM410 1260l45 -158l155 -154l78 35l72 164l-47 170l-146 69l-108 -36z" />
<glyph unicode="'" horiz-adv-x="368" d="M61 1421l129 97l111 -97l-53 -254v2l-17 -309l-90 -22l-22 340v-2z" />
<glyph unicode="(" horiz-adv-x="800" d="M174 397l29 351l157 419l246 340l64 -84l-193 -309l4 4l-127 -430v-397l74 -373l-4 6l260 -399l-45 -96l-219 274l-168 391z" />
<glyph unicode=")" horiz-adv-x="800" d="M119 1432l69 61l281 -428l145 -444v-416l-149 -387l-287 -383l-51 86l166 233l-2 -6l115 311l-3 -4l41 416l-20 369l2 -4l-102 280l2 -6l-123 174z" />
<glyph unicode="*" horiz-adv-x="1110" d="M72 1053l137 100l213 -23l-164 181l59 172l136 -35l94 -248l80 238l176 71l28 -180l-155 -199l248 44l100 -123l-123 -111l-225 51l147 -170l-32 -174l-170 49l-68 232l-55 -203l-150 -109l-74 168l154 205l-205 -41z" />
<glyph unicode="+" horiz-adv-x="933" d="M86 506l6 217l324 -29v383l157 13l-28 -383l321 -19l-24 -158l-291 -10l37 -370l-189 18l11 346z" />
<glyph unicode="," horiz-adv-x="573" d="M74 96l162 178l167 -122l78 -238l-45 -158l-125 -123l-200 -77l4 104l141 59l84 134l-43 110l-33 47l-67 -26z" />
<glyph unicode="-" horiz-adv-x="692" d="M106 432l9 195l247 -49l240 34l-12 -223l-203 39l4 4h-285z" />
<glyph unicode="." horiz-adv-x="497" d="M86 74l147 194l144 -164l-141 -176z" />
<glyph unicode="/" horiz-adv-x="692" d="M-31 -387l322 860l-2 -2l268 1018l158 -55l-355 -1016h2l-227 -838z" />
<glyph unicode="0" horiz-adv-x="1103" d="M76 766l43 344l166 262l174 92l194 9l221 -144l123 -323l29 -371l-78 -397l-186 -244l-238 -51l-237 112l-185 320zM303 502l64 -293l120 -160l113 -6l113 111l73 325l-8 410v-4l-55 342l-105 129l-114 10l-55 -16l-82 -103l-54 -405v2z" />
<glyph unicode="1" horiz-adv-x="829" d="M49 1356l8 119l238 -45l231 26l-26 -1227l104 -141l164 -31l-10 -92l-342 27l-318 -25l-45 105l178 10l66 131v1040l-104 103h-144z" />
<glyph unicode="2" horiz-adv-x="1079" d="M-25 -51l584 626l146 306l-29 252l-139 139l-213 -43l-158 -148l-84 39l143 211l207 133h252l209 -159l41 -297l-109 -285l-268 -336l-231 -199h407l137 93l80 155l76 -45l-88 -192l2 2l-66 -228l-393 19z" />
<glyph unicode="3" horiz-adv-x="993" d="M53 250l129 151l152 -139l-58 -82l156 -125l184 37l97 172l-23 189l-166 170l-143 45l-141 -13l-13 33l244 152h-2l133 110l57 187l-135 170l-192 -27l-176 -166l-66 53l162 226l223 100l242 -35l151 -184l-12 -219l-147 -174l-129 -74l112 -14l146 -121l88 -148 l-19 -262l-112 -160l-189 -122l-268 -17l-205 174z" />
<glyph unicode="4" horiz-adv-x="1103" d="M-51 420l768 1075l76 -55v-838l241 16l31 -206h-256l-25 -19v-188l105 -133l84 -4l16 -95l-313 11l-275 -23v98l103 47l82 91v223h-637zM223 604l357 10v500z" />
<glyph unicode="5" horiz-adv-x="1009" d="M61 242l158 147l141 -166l-51 -55l101 -102l116 -11l156 127l43 207l-59 260l-179 115l-190 -31l-121 -90l-70 37l74 397v-4l17 375h520l74 55l32 88l68 -47l-78 -330l-510 25l-47 -340l193 62l313 -105l174 -242l-10 -290l-162 -271l-287 -106l-266 51l-135 162z" />
<glyph unicode="6" horiz-adv-x="1107" d="M70 403l12 308l184 372l301 271l340 168l17 -80l-250 -180l-281 -353l2 2l-22 -39l149 72l281 -41l180 -196l59 -324l-75 -270l-283 -146h-264l-227 129zM272 489l31 -229l123 -182l172 -31l115 39l80 98l30 215l-45 207l-141 180l-207 21l-123 -59l4 -7z" />
<glyph unicode="7" horiz-adv-x="1030" d="M31 1051l94 409l481 -22l490 43l-478 -822v3l-327 -693l-223 -10l757 1284l-14 -6l-506 10l-145 -94l-43 -121z" />
<glyph unicode="8" horiz-adv-x="1011" d="M41 254l33 248l153 160l119 73l-176 129l-96 226l61 243l223 127l244 27l229 -98l82 -209l-36 -197l-109 -119l-115 -73l152 -132l139 -233l-14 -227l-150 -183l-223 -65l-225 10l-189 105zM256 231l47 -120l129 -64l156 -4l137 111l16 190l-82 162l5 -4l-105 106 l-131 74l-76 -53l-80 -197zM274 1130l88 -172l136 -90h-2l69 -43l47 35l62 184l-2 -4l20 181l-76 122l-106 58l-154 -39l-77 -82z" />
<glyph unicode="9" horiz-adv-x="1093" d="M51 1038l121 265l201 155l289 37l233 -141l135 -289l-16 -389l-183 -344l-339 -279l-304 -129l-51 64l295 190l-4 -2l238 234l73 182l-53 -33l-268 -41l-201 78l-125 168zM274 1087l21 -204l78 -150l147 -92l168 21l103 77l10 297l-29 191l-76 114l-127 54l-145 -23 l-109 -110z" />
<glyph unicode=":" horiz-adv-x="495" d="M78 104l151 162l172 -145l-159 -205zM78 797l176 184l152 -182l-164 -170z" />
<glyph unicode=";" horiz-adv-x="546" d="M68 117l165 139l113 -37l129 -174v-209l-119 -180l-153 -131l-68 63l103 80l77 109l23 157l-80 68l-63 -39zM102 778l181 201l176 -197l-185 -174z" />
<glyph unicode="&#x37e;" horiz-adv-x="546" d="M68 117l165 139l113 -37l129 -174v-209l-119 -180l-153 -131l-68 63l103 80l77 109l23 157l-80 68l-63 -39zM102 778l181 201l176 -197l-185 -174z" />
<glyph unicode="&#x3c;" horiz-adv-x="1067" d="M154 543l4 170l444 256l-2 -2l311 247v-219l-630 -385l628 -395l-16 -188l-653 473z" />
<glyph unicode="=" horiz-adv-x="1325" d="M184 336l15 174l506 -35l405 35l29 -182l-432 22zM193 698v207l481 -33l452 13l7 -185l-457 35z" />
<glyph unicode="&#x3e;" horiz-adv-x="1067" d="M150 33l18 194l430 281l178 102l-620 379v209l411 -303h-2l336 -221l21 -133l-322 -197l2 2z" />
<glyph unicode="?" horiz-adv-x="962" d="M10 1120l144 211l206 133h281l207 -159l41 -297l-58 -148l-366 -307l-37 -64l25 -88l96 -57l-119 -119l-141 133l26 158l303 297l41 70l-28 250l-166 139l-213 -43l-158 -148zM326 80l133 151l139 -129l-129 -168z" />
<glyph unicode="@" horiz-adv-x="1968" d="M154 668l260 598l598 217l506 -162l262 -363l-11 -485l-385 -379l-129 4l-100 103l-102 -88l-185 -45l-213 106l-16 295l162 133l315 100l-4 134l-47 86l-104 39l-101 -87l53 -75l-133 -111l-133 119l289 262l225 12l142 -211l-21 -557l39 -55l53 6l283 246l41 414 l-221 319l-449 139l-502 -223l-209 -489l43 -523l271 -270l377 -102l329 51l271 188l73 -53l-325 -213l-324 -78l-479 121l-301 297zM817 299l101 -80l104 -10l100 76l-16 317l-285 -121z" />
<glyph unicode="A" horiz-adv-x="1421" d="M18 -29v99l103 12l80 113l-2 -7l483 1352l102 39l263 -862l-3 2l209 -541l103 -102l100 -13l-33 -88l-272 11l-225 -13l-39 107l86 -8l53 92l-141 403l10 17h-446l8 -17l-119 -368l27 -123l145 -19l25 -86l-271 25zM481 700l381 -14l-198 524z" />
<glyph unicode="B" horiz-adv-x="1316" d="M90 -39l33 111l100 20l62 121v1034l-66 99l-102 24l-11 90l244 -12l182 16l396 -57l188 -213l-10 -233l-150 -164l-112 -29l22 -2l150 -59l151 -158l45 -176l-79 -223l-273 -189h-770zM498 690l10 -518l96 -113l131 -4l164 64l76 117l4 190l-115 172l-207 92h-159z M518 782l135 4l156 62l102 110l-8 191l-125 160l-178 75l-82 -6v-596z" />
<glyph unicode="C" horiz-adv-x="1421" d="M55 682l70 358l203 287l329 137l412 17l260 -127l14 -166l21 -225l-100 16l-41 182l2 -4l-72 154l-233 75l-308 -69l-213 -250l-69 -352l45 -316l215 -249l278 -107l207 35l191 198l65 205l86 -26l-117 -420l-233 -74l-303 -20l-371 129l-252 235z" />
<glyph unicode="D" horiz-adv-x="1636" d="M84 45l131 45l78 139v983l-76 142h-108l-3 96l248 -8l205 31h234l333 -99l314 -250l112 -344l-49 -381l-260 -272l-299 -135l-301 -25l-244 19l-303 -27zM500 326l35 -146l163 -121l267 35l192 154l105 233v342l-109 291l-248 172l-282 82l-123 -4v-1038z" />
<glyph unicode="E" d="M63 -41l21 90l141 47l54 142v999l-74 125h-113l8 92h539h516l-43 -178l14 -189l-79 -8l-43 203l-152 74l-348 -15v-548l289 10l110 76l39 141l86 -33l-33 -252l23 -243l-96 -9l-29 123l-125 68h-279l11 -17v-428l112 -137l164 -24l207 32l143 156l35 225l92 -39l-28 -227 l-78 -235h-723z" />
<glyph unicode="F" horiz-adv-x="1169" d="M90 39l115 33l80 100v1081l-80 103h-111l-2 98h455l598 12l-45 -180v-203l-92 -26l-7 190l-141 121l-373 -8l23 -27v-557l270 -10l123 65l62 168l59 -49l-41 -258l23 -264h-91l-18 135l-92 76l-326 16l23 -20v-365l84 -166l135 -30v-109l-303 27l-322 -25z" />
<glyph unicode="G" horiz-adv-x="1529" d="M72 856l170 344l329 242l428 39l410 -84l-43 -191l14 -227l-80 12l-79 240l-207 147h-281l-239 -123l-117 -233l-33 -328l37 -250l178 -227l256 -135l254 -29l78 60v235l-51 119l-146 37l29 104l244 -33l260 33l4 -80l-129 -79l10 -236l88 -117l-215 -102l-209 -31h-366 l-322 139l-231 285z" />
<glyph unicode="H" horiz-adv-x="1748" d="M70 -33l10 90l137 37l62 117v979l-70 143l-111 19l-6 108l275 -16l323 29l37 -105l-123 -6l-90 -145l-16 -404h757l-12 6l-16 430l-62 107l-161 26l57 80l280 -37l318 37v-94l-98 -2l-86 -147l-21 -983l70 -130l127 -57l12 -76l-301 25l-328 -31l10 99l121 12l78 149v457 h-739l10 -328v2l25 -237l141 -80l65 -59z" />
<glyph unicode="I" horiz-adv-x="784" d="M59 1370l27 107l315 -64l310 51l26 -86l-143 -39l-90 -139v-1003l65 -109l142 -39v-92l-338 51l-291 -37v97l166 53l22 86v1071l-118 78z" />
<glyph unicode="J" horiz-adv-x="784" d="M-82 -287l203 41l139 213l23 213v1032l-74 129l-109 31l-10 101l311 -35l306 24l26 -108h-106l-103 -117v-1083l-88 -306l-309 -215l-188 -26z" />
<glyph unicode="K" horiz-adv-x="1531" d="M88 -29l12 82l123 23l70 117v985l-60 155l-118 37l-2 86l260 -22l282 41l21 -99l-117 -30l-43 -78v-480l201 160l268 350l-27 70l-63 10l-18 78l249 -12l213 16l72 -82l-117 -18l-204 -117l-400 -450l23 8l430 -527l235 -190l138 -39l-9 -82l-254 10l-192 99l-223 241 l-322 326l-6 -281l57 -229l158 -70v-94l-309 31z" />
<glyph unicode="L" d="M70 1354l8 119l297 -39l397 28l-31 -100l-145 -12l-96 -90v-1092l59 -68h422l133 101l86 211l107 -19l-129 -430l-492 27l-604 -21l-2 99l102 4l90 98v1094l-86 90h-116z" />
<glyph unicode="M" horiz-adv-x="1853" d="M-51 72l117 10l92 121l116 981l-71 155l-115 35l12 105l230 -31l217 20l16 -94l-61 -33l401 -1017l53 178l344 815l-45 117l41 45l195 -37l229 22v-100l-75 -2l-105 -129l82 -1032l70 -119l125 -16l8 -86l-352 12l-271 -27l-24 94l114 17l109 141l-66 909l-471 -1224 l-485 1083l-14 51l-58 -839l60 -93l137 -41l-8 -94l-254 33l-271 -37z" />
<glyph unicode="N" horiz-adv-x="1638" d="M-31 1446l191 12l180 17l907 -1061l19 -54v844l-74 148l-174 30l8 93l299 -27l254 20l23 -88l-140 -24l-80 -137v-1119l35 -243l-1026 1165l-18 63v-847l98 -132l119 -38l2 -95l-289 13l-307 -37l-8 84l170 53l98 178v922l-117 160l-155 18z" />
<glyph unicode="O" horiz-adv-x="1640" d="M61 715l17 151l143 383l361 211l419 13l361 -179l190 -370v-418l-163 -332l-322 -199l-328 -22l-325 100l-248 234zM334 739l63 -340l205 -276l285 -55l282 137l119 278l10 379l-118 320l2 -8l-146 165l-205 47l-204 -49l-201 -182z" />
<glyph unicode="P" horiz-adv-x="1208" d="M72 68l121 24l73 125v1036l-100 107h-86v92l196 -14l310 22l297 -41l223 -174l24 -287l-159 -245l-287 -111h-205v-369l84 -135l144 -35l-9 -86l-311 25l-307 -35zM473 1360l8 -8v-664l148 -4l221 117l55 231l-80 215l-204 99z" />
<glyph unicode="Q" horiz-adv-x="1640" d="M61 715l17 151l143 383l361 211l419 13l361 -179l190 -370v-418l-163 -332l-320 -197l236 -88l129 9l110 116l82 -59l-237 -215l-138 -14l-272 102l-197 -111l-67 95l233 155l-209 -14l-325 100l-248 234zM334 739l63 -340l205 -276l285 -55l282 137l119 278l10 379 l-118 320l2 -8l-146 165l-205 47l-204 -49l-201 -182z" />
<glyph unicode="R" horiz-adv-x="1449" d="M82 -27l18 90l142 37l67 99v1061l-80 86l-135 24l39 90l223 -12l252 18l240 -12l276 -192l9 -306l-125 -170l-131 -53l75 -26l125 -316l123 -272l225 -62l25 -96l-279 6l-210 125l-164 455l-101 96l-170 6l-8 -385l39 -129l180 -74l6 -88l-325 29zM526 743l183 25 l182 160v262l-168 172l-168 27l-29 -7v-639z" />
<glyph unicode="S" horiz-adv-x="1103" d="M74 426l65 49l88 -239l183 -162l213 -6l157 141l-24 213l-516 420l-52 245l84 252l230 150h256l219 -100l-27 -342h-69l-68 256l-156 83l-184 -28l-80 -209l78 -172l338 -234l201 -223l6 -274l-164 -205l-238 -94l-256 20l-225 99z" />
<glyph unicode="T" horiz-adv-x="1316" d="M-14 1104l57 430l113 -86h1024l100 115l35 -476l-82 -30l-43 155l-158 121l-272 6v-1071l53 -145l211 -68v-84l-362 27l-379 -25l8 70l203 70l53 143v1083h-162l-215 -41l-102 -237z" />
<glyph unicode="U" horiz-adv-x="1636" d="M57 1450l322 -14l301 26l-8 -98l-113 -14l-80 -140v-866l162 -207l277 -31l237 64l113 209v819l-72 139l-129 47l23 70l258 -10l225 12l-2 -86l-86 -24l-68 -125v-629l-55 -340l-211 -248l-330 -59l-344 69l-221 273v930l-74 129l-110 18z" />
<glyph unicode="V" horiz-adv-x="1531" d="M55 1366l8 90l256 -18l302 12l10 -80l-117 -14l-39 -113l348 -950v-27l357 967l-43 123l-125 26v80l237 -18l258 16v-88l-100 -22l-127 -164l-467 -1221l2 4l-31 -170l-505 1356l-111 168z" />
<glyph unicode="W" horiz-adv-x="1968" d="M23 1370l2 90l249 -26l275 28l10 -92l-104 -16l-60 -103l234 -854v-32l297 860h-2l67 227l84 10l303 -1069l264 862l-38 97l-117 28l8 76l225 -18l236 22l18 -90l-96 -20l-102 -111l-455 -1374l-346 1165l-4 45l-418 -1222l-414 1462z" />
<glyph unicode="X" horiz-adv-x="1314" d="M25 47l100 39l-2 -2l176 115l279 477l-304 592l-88 82l-120 20l-13 88l289 -18l258 18v-80l-76 -22l-20 -56l203 -397v-14l192 364l-22 109l-80 31l22 63l203 -22l244 28l18 -86l-129 -22l-127 -117l-258 -440l248 -484l-2 2l133 -202l135 -47l6 -99l-270 29l-244 -31 l-18 74l82 39l22 61l-227 426l-4 23l-205 -387l4 -103l96 -45v-71l-235 20l-254 -31z" />
<glyph unicode="Y" d="M74 1368l10 84l225 -27l250 35l10 -84l-77 -20l-25 -56l235 -544l252 512l-45 104l-88 4v80l226 -18l233 22v-86l-68 -8l-139 -117l-321 -598v-401l59 -139l137 -50v-84l-313 21l-275 -27l21 105l84 16l76 109v399l-340 715z" />
<glyph unicode="Z" horiz-adv-x="1427" d="M41 -37l938 1358h6h-498l-180 -125l-76 -213l-59 39l43 420l539 -12l589 14l-884 -1338l542 13l207 117l109 231h94l-106 -475h-979z" />
<glyph unicode="[" horiz-adv-x="800" d="M186 1489l469 -31v-108h-274l14 -4v-1758h275l-17 -114h-452l43 1022z" />
<glyph unicode="\" horiz-adv-x="681" d="M12 1440l121 57l563 -1929l-118 -37z" />
<glyph unicode="]" horiz-adv-x="800" d="M94 -539l23 113h286v1763l11 6h-318l15 115h491l-27 -104v-1803l13 -77z" />
<glyph unicode="^" horiz-adv-x="1968" d="M360 881l547 608h137l535 -582l-113 -41l-512 420l-473 -436z" />
<glyph unicode="_" horiz-adv-x="1005" d="M2 -324l483 -38l476 20l20 -221l-969 31z" />
<glyph unicode="`" horiz-adv-x="1005" d="M225 1815l168 108l215 -403l-90 -31z" />
<glyph unicode="a" horiz-adv-x="894" d="M78 367l162 133l315 100l-4 133l-47 86l-105 39l-100 -86l53 -76l-133 -110l-133 119l289 262l225 12l141 -211l-20 -557l82 -117l57 6l19 -84l-232 -49l-98 92l-57 -49l-185 -45l-213 107zM256 197l100 -80l105 -11l100 76l-16 318l-285 -121z" />
<glyph unicode="b" horiz-adv-x="1101" d="M47 1487l135 20l160 92l39 -53l-37 -272v-408l209 107l330 -39l159 -336l-32 -340l-183 -207l-292 -92l-461 98l86 78v1198l-43 66h-51zM324 772l10 -4v-457l72 -184l169 -66l187 72l92 223l-39 299l-156 160l-215 16z" />
<glyph unicode="c" horiz-adv-x="862" d="M47 578l203 307l303 100l190 -29l107 -120l-135 -125l-172 147h-148l-119 -133l-24 -231l98 -250l174 -115l156 12l125 84l59 -39l-100 -133l-238 -86l-250 41l-204 225z" />
<glyph unicode="d" horiz-adv-x="1064" d="M57 563l170 299l285 123l117 4l123 -33l-13 13l21 383l-137 90l-7 78l168 6l164 78l17 -70l-17 -64v-1312l43 -66l66 31l33 -103l-132 -22h3l-218 -64l25 146v-4l2 65l-47 -61l-219 -125l-199 37l-207 182zM252 481l86 -262l186 -88l172 43l76 90h-10v373l-86 203 l-174 37l-187 -109z" />
<glyph unicode="e" horiz-adv-x="897" d="M37 350l55 348l172 220l142 65l215 -16l167 -123l68 -299l-592 -62l-14 -47l82 -182l196 -125l172 39l111 145l63 -86l-215 -217l-196 -49l-256 84zM258 584l379 53l-33 178l-135 80l-119 -37l-69 -74z" />
<glyph unicode="f" horiz-adv-x="591" d="M20 795v86l164 90l29 278l156 260l213 74l88 -6l133 -113l-156 -137l-129 137l-80 -24l-65 -193v-319l176 4l10 -133l-178 -4l14 -607v5l19 -97l127 -39l-9 -86l-227 27l-250 -21l19 74l73 23l56 88l-15 629z" />
<glyph unicode="g" horiz-adv-x="1067" d="M61 111l129 157l76 60l-106 98l-70 221l111 252l211 98l241 -12l99 -63l299 41l-11 -164l-217 16l49 -94l-20 -225l-125 -170l-246 -66l-125 19l-88 -97l58 -104l567 -74l117 -205l-125 -211l-295 -98h-320l-164 53l-40 287l96 -10l102 -172l195 -76l227 47l111 229 l-17 58l-610 45zM281 672l30 -178l101 -125l84 -15l114 37l60 109v211l-125 186l-92 21l-109 -56z" />
<glyph unicode="h" horiz-adv-x="1099" d="M41 -16l12 69l82 35l23 90v1155l-99 80l-10 78l144 20l143 91l37 -56l-27 -684l279 133l247 -88l86 -211v-540l48 -97l45 -4l4 -78l-185 15l-229 -15l-16 80l84 13l59 75l-12 514l-115 168h-145l-156 -65v-610l51 -72l80 -33l-14 -65l-205 20z" />
<glyph unicode="i" horiz-adv-x="544" d="M41 868l170 54l139 77l58 -38l-33 -809l63 -78l70 -41l-10 -72l-211 29l-244 -13l16 95l91 10l49 92l-19 549l-63 74l-45 -15zM129 1382l154 170l139 -186l-166 -137z" />
<glyph unicode="j" horiz-adv-x="520" d="M-86 -401l172 84l98 204l-26 832l-49 53l-52 6l-8 86l160 45l123 86l69 -47l-24 -936l-66 -282l-178 -150l-180 -72zM117 1393l166 149l129 -164l-140 -139z" />
<glyph unicode="k" horiz-adv-x="972" d="M41 51l88 35l27 92l8 -6v1149l-58 84l-30 6l-15 82l142 20l116 80l50 -34l-33 -814l8 -196l193 250l-5 47l-38 4l-17 94l205 -12l256 41v-92l-104 -13l-189 -104l-160 -195l17 2l344 -428l102 -90l56 -2l-7 -61l-161 -35l-183 115l-280 401l-15 -20v-326l35 -53l84 -13 v-82l-221 21l-199 -25z" />
<glyph unicode="l" horiz-adv-x="509" d="M39 74l86 4l43 104v1170l-68 63l-18 84l139 27l-6 -4l111 69l67 -30l-41 -988l10 -423l52 -78l82 -13v-92l-226 29l-229 -19z" />
<glyph unicode="m" horiz-adv-x="1658" d="M29 49l82 23l57 69l-16 592l-84 68l-27 61l166 60l82 75l59 15l4 -156l-6 -12l49 45l203 84l213 -33l90 -119l111 94l213 70l192 -61l94 -207v-529l31 -102l66 -31l26 -84l-204 25l-259 -23v86l111 17l47 110l-16 459l-80 156h-215l-88 -62v-567v6l22 -82l80 -22v-90 l-194 12l-238 -25l18 88l66 13l61 73l-12 547l-100 113l-211 -6l-80 -66v2v-567l43 -80l84 -16l14 -109l-225 33l-207 -23z" />
<glyph unicode="n" horiz-adv-x="1085" d="M51 51l72 27l53 94v551l-61 72l-27 -13l-35 76l166 51l121 92l49 -40l-16 -119l96 73l258 76l193 -108l41 -209v-543l57 -68l37 -14l4 -78l-197 21l-205 -25l-10 90l80 19l45 74v514l-92 157l-145 10l-173 -81v-605l50 -73l92 -17l-15 -71h-413z" />
<glyph unicode="o" horiz-adv-x="1103" d="M43 494l123 342l262 131h260l105 -29l178 -127l90 -272l-45 -293l-168 -211l-279 -68l-280 45l-205 189zM258 356l102 -221l166 -82l164 25l105 176l51 303l-74 229l-137 88l-182 -6l-154 -166z" />
<glyph unicode="p" horiz-adv-x="1101" d="M47 -543l14 97l86 32l33 105l-28 1061l-68 63l-25 76l144 39l114 69l50 -30l-15 -97l201 109l256 -29l190 -188l50 -307l-99 -283l-211 -160l-239 -47l-131 13v-318l37 -86l135 -27v-90l-238 31zM340 760l20 -12l-14 -379l39 -195l139 -94l191 29l100 131l33 262 l-115 272l-209 68z" />
<glyph unicode="q" horiz-adv-x="1101" d="M55 555l199 303l231 109h238l147 -80l54 112l80 -28l-43 -135l-13 6v-1166l33 -102l82 -23v-81l-223 22l-238 -29l2 84l113 41l45 99l-10 370l-193 -90l-252 25l-221 229zM274 623l7 -279l133 -194l192 -56l164 64l-8 6v477l-43 147l-172 84l-172 -47z" />
<glyph unicode="r" horiz-adv-x="724" d="M63 55l82 27l43 92l-18 553l-55 59h-41l-4 78l123 35l135 92l45 -43l-19 -196l109 159l147 74l129 -147l-149 -152l-82 94l-102 -75l-39 -160l-5 4v-381l56 -80l121 -33l4 -73l-262 20l-213 -29z" />
<glyph unicode="s" horiz-adv-x="755" d="M55 332l74 -25l61 -168l121 -80l135 31l41 160l-86 112l-278 175l-43 206l94 166l180 72l97 -6l178 -68l6 -243l-76 12l-45 141l-106 72l-95 -23l-45 -100l45 -111l324 -243l43 -164l-90 -197l-197 -82l-217 21l-106 65z" />
<glyph unicode="t" horiz-adv-x="557" d="M16 846l297 299l70 -10l-14 -197h147l16 -147l-176 -13v-372v2l23 -248l43 -54l104 39l25 -77l-152 -113l-180 43l-51 180v608h-115z" />
<glyph unicode="u" horiz-adv-x="1095" d="M25 961l172 -17l165 33v-703l103 -155h153l138 88l-23 14v563l-49 64l-88 16l-14 92l176 -14l203 33l-19 -465v-367l39 -34l84 16l-12 -98l-150 -9l-162 -65l-6 153l-137 -92l-207 -43l-203 111l-30 385v311l-58 70l-55 20z" />
<glyph unicode="v" horiz-adv-x="968" d="M18 879v88l183 -19l196 10l39 -79l-100 -15l-19 -67l218 -561l215 569l-37 67l-72 11v106l188 -45l142 25l18 -74l-94 -43l-408 -975l-69 168l-275 746l2 -9l-71 82z" />
<glyph unicode="w" horiz-adv-x="1503" d="M14 879l6 71l230 -8l194 33v-94l-84 -9l-24 -53l188 -538l246 675l70 -18l202 -682l211 541l-22 73l-78 15l41 82l158 -29l143 31l21 -80l-78 -15l-76 -77l-383 -924l-225 702l-281 -700l-369 985z" />
<glyph unicode="x" horiz-adv-x="931" d="M16 -23l4 78l101 27l104 90l-2 -6l160 258l-248 424l-98 39l8 71l207 -8l192 19v-80l-45 -8l-28 -47l131 -213l110 208l-6 45l-55 11l18 82l146 -17l164 17l16 -80l-70 -6l-100 -74l-184 -279l290 -442l68 -37l8 -72l-233 13l-197 -13v56l64 45l-4 57l-105 221l-135 -215 l14 -67l60 -19l-21 -63h-160z" />
<glyph unicode="y" horiz-adv-x="968" d="M25 887l4 76l186 -15l205 27l10 -86l-76 -12l-20 -58l211 -606l188 565l-35 90l-75 9l26 100l164 -29l170 25l10 -86l-98 -35l-55 -90v4l-424 -1155l-191 -133l-123 131l125 131l82 -76l39 23l103 260l-312 835v-2l-49 82z" />
<glyph unicode="z" horiz-adv-x="899" d="M-14 -37l565 885l-293 -10l-84 -58l-43 -153l-68 8l25 301h354l428 16l-553 -872l314 22l123 72l65 176l82 -8l-92 -350h-514z" />
<glyph unicode="{" horiz-adv-x="1005" d="M158 711l137 -15l135 125v479l160 222l258 26l-8 -90l-162 -37l-82 -135v-473l-109 -131l-108 -39l125 -35l102 -211v-409l53 -125l158 -37l-2 -98l-194 28l-187 172l-16 500l-105 147l-143 9z" />
<glyph unicode="|" horiz-adv-x="1005" d="M428 -496v2089l145 -10v-2083z" />
<glyph unicode="}" horiz-adv-x="1005" d="M176 -170l143 12l89 148v459l122 167l91 19l-89 18l-118 150v454l-86 168l-152 23v98l207 -24l184 -179v-495l125 -139l150 -19l-8 -90l-172 -33l-89 -141l-12 -528l-172 -148l-213 -6v86z" />
<glyph unicode="~" horiz-adv-x="2895" d="M209 0v600h2v96h137v58h-37v180h37v63h-37v76h899v-94q-14 27 -49 27q-94 0 -94 -158q0 -156 98 -156q31 0 64 39v-35h49v377h766v-53h70v53h737v-1073h-2642zM211 754v180h39v-180h-39zM211 997v76h39v-76h-39zM268 160h123v86h-45v301h-78v-387zM371 823 q0 -131 94 -131q29 0 51 17q0 -47 -57 -47h-31v-62h43q113 12 113 145v252h-68v-186q0 -53 -41 -53q-39 0 -39 53v186h-65v-174zM422 160h76v73h26v-73h82v141l-53 246h-84l-47 -246v-141zM498 291v39l12 102h4l10 -102v-39h-26zM606 600h68v115q14 -25 49 -25q94 0 94 156 t-98 155q-29 0 -64 -40v36h-49v-397zM637 160h78v170h22v-170h84v155l-30 43v7l30 41v100l-22 41h-162v-387zM668 793v102q12 31 43 31q43 0 43 -78q0 -88 -45 -88q-29 0 -41 33zM715 393v84h22v-84h-22zM831 844q0 -156 111 -156q113 0 113 156q0 160 -113 160 q-111 0 -111 -160zM852 160h78v73h24v-73h78v141l-49 246h-84l-47 -246v-141zM899 844q0 84 43 84q45 0 45 -84q0 -82 -45 -82q-43 0 -43 82zM930 291v39l10 102h6l8 -102v-39h-24zM1065 160h162l22 43v127l-16 28v7l16 28v113l-22 41h-162v-387zM1130 846q0 88 46 88 q27 0 38 -33v-104q-12 -29 -40 -29q-44 0 -44 78zM1145 233v97h22v-97h-22zM1145 393v84h22v-84h-22zM1282 160h80v387h-80v-387zM1296 774q2 -86 93 -86q45 0 70.5 26.5t25.5 82.5h-31q-6 -39 -51 -39q-41 0 -41 28q0 37 41 37h20v37h-20q-41 0 -41 35q0 33 41 33 q35 0 51 -41h31v110h-31v-47q-23 53 -68 54q-88 0 -88 -89q0 -55 45 -73q-47 -19 -47 -68zM1393 160h131v86h-54v80h54v67h-54v72h54v82h-131v-387zM1507 696h90v58h-28v133q0 41 28 41q12 0 25 -13l23 68q-16 14 -35 16q-43 0 -64 -49v47h-39v-301zM1612 160h80v159h49v68 h-49v78h49v82h-129v-387zM1626 696h143v58h-38v125q0 47 38 47q31 0 31 -47v-183h105v58h-39v125q0 45 39 45q31 0 30 -45v-183h68v193q0 111 -96 110q-49 0 -64 -49q-18 49 -57 49q-35 0 -55 -49v47h-66v-243h-39v-58zM1774 203l20 -43h137l25 43v303l-23 41h-139l-20 -41 v-303zM1851 233v244h23v-244h-23zM1987 160h65v250h6l19 -250h118v387h-65v-250h-6l-23 250h-114v-387zM2013 934h31v-238h70v301h-101v-63zM2130 844q0 -154 104 -154q74 0 93 119h-33q-6 -47 -51 -47q-47 0 -48 82q0 84 48 84q47 0 51 -56h33v121h-33v-43q-25 53 -62 54 q-102 0 -102 -160zM2218 465h43v-305h80v305h43v82h-166v-82zM2406 203l23 -43h133l23 43v147l-27 43l-72 17v67h21v-49h78v78l-21 41h-135l-23 -41v-135l25 -41l76 -19v-78h-21v58h-80v-88z" />
<glyph unicode="&#xa1;" horiz-adv-x="692" d="M193 98l47 328l59 621l113 -3l14 -626v2l45 -338l-135 -156zM205 1313l168 184l162 -199l-177 -137z" />
<glyph unicode="&#xa2;" horiz-adv-x="862" d="M47 961l203 307l178 57v234l125 -11v-182l190 -27l107 -120l-135 -123l-148 123v-703l113 8l125 84l59 -39l-100 -133l-191 -71v-240l-131 4v233l-166 29l-204 225zM252 877l98 -250l82 -60v674h-37l-119 -133z" />
<glyph unicode="&#xa3;" horiz-adv-x="1247" d="M-66 55l150 162l145 -27l62 166l-2 -2l47 242l-182 16v72l211 29l131 428l215 291l311 43l168 -154l29 -100l-132 -121l-141 145l47 55l-53 78l-111 -24l-151 -242l4 6l-100 -385l252 -53l-19 -86l-272 8l-60 -231l-145 -193l12 6l498 -141l172 35l35 86l-99 78l121 145 l115 -162l-107 -225l-198 -113l-170 -10l-471 164l-185 -98z" />
<glyph unicode="&#xa4;" horiz-adv-x="1421" d="M-59 393l14 174l127 -10l-27 125l15 82l-121 -8v207l157 -13l19 90l203 287l329 137l412 17l260 -127v-17l-108 -174l-68 148l-233 75l-308 -69l-213 -250l-26 -135l708 8l-110 -174l-539 27l-90 -9l-12 -69l24 -176l107 -7l375 19l-97 -154l-276 11l-88 -5l215 -253 l278 -107l207 35l156 162l106 -74l-37 -131l-233 -74l-303 -20l-371 129l-252 235l-22 92z" />
<glyph unicode="&#xa5;" d="M94 1368l10 84l225 -27l250 35l10 -84l-77 -20l-25 -56l235 -544l252 512l-45 104l-88 4v80l226 -18l233 22v-86l-68 -8l-139 -117l-321 -598v-401l59 -139l137 -50v-84l-313 21l-275 -27l21 105l84 16l76 109v399l-340 715zM182 246l15 174l506 -35l405 35l29 -182 l-432 22zM191 608v207l481 -33l452 13l7 -185l-457 35z" />
<glyph unicode="&#xa6;" horiz-adv-x="1005" d="M393 -330l45 389l-24 371l202 -16l-59 -383l41 -396zM393 672l64 377l-41 383l176 18l-25 -418l25 -375z" />
<glyph unicode="&#xa7;" horiz-adv-x="804" d="M72 631l82 176l147 59l-129 82l-61 207l86 166l172 74l102 -2l178 -72l25 -248l-76 12l-55 144l-113 76l-94 -25l-35 -96l51 -117l342 -248l56 -168l-76 -202l-142 -62l119 -88l58 -172l-74 -195l-195 -84l-219 21l-108 65l-37 281l76 -20l77 -175l125 -77l138 28l22 158 l-92 121l-293 176zM260 662l51 -115l113 -80l108 20l15 101l-45 121l-115 75l-92 -22z" />
<glyph unicode="&#xa8;" horiz-adv-x="1005" d="M150 1602l141 174l153 -142l-125 -166zM565 1612l146 166l151 -152l-135 -147z" />
<glyph unicode="&#xa9;" horiz-adv-x="1968" d="M252 938l217 340l254 192l405 25l334 -168l232 -358l32 -355l-92 -301l-266 -276l-305 -90l-279 20l-233 113l-293 352zM367 485l145 -219l270 -194l359 -23l282 176l181 234l16 303l-113 321l2 -6l-186 240l-295 76l-240 -17l-194 -131l-113 -127l4 4l-118 -235v-402z M543 891l200 250l283 84l293 -80l4 -152v4l31 -143l-82 -27l-98 224l-105 55l-190 -16l-134 -187l-10 -256l92 -196l150 -107l149 25l146 184l35 109l67 -84l-74 -254l-213 -84l-303 32l-219 238z" />
<glyph unicode="&#xaa;" horiz-adv-x="684" d="M49 952l47 146l303 131l-41 82l-112 26l-21 -12l23 -49l-90 -92l-109 80l92 129l248 96l162 -135l10 -459l43 -53h51l19 -82l-82 -19l-125 4l-76 41l6 23l-94 -66l-166 29zM203 936l78 -80l59 2l68 55l-13 230l-176 -101z" />
<glyph unicode="&#xab;" horiz-adv-x="933" d="M33 485l432 406l67 -43l-153 -256l-131 -105l135 -112l154 -228l-84 -81l-203 243zM393 475l418 414l76 -37l-139 -252l-144 -119l139 -112l144 -234l-53 -69z" />
<glyph unicode="&#xad;" horiz-adv-x="692" d="M106 432l9 195l247 -49l240 34l-12 -223l-203 39l4 4h-285z" />
<glyph unicode="&#xae;" horiz-adv-x="1624" d="M135 897l203 313l237 181l375 22l310 -153l215 -336l30 -328l-86 -281l-245 -256l-283 -84l-260 19l-219 106l-160 183l-113 143zM246 477l133 -203l250 -180l329 -18l267 164l164 213l16 280l-105 297l3 -6l-173 221l-274 70l-221 -12l-180 -125l-101 -113l-108 -217 v-371zM436 1010l10 106l181 -6l245 12l213 -32l82 -195l-73 -156l-162 -34l20 -7l92 -82l66 -249l31 6l26 112l78 -8l-20 -186l-148 -39l-147 74l-17 227l-88 96l-98 13v-267l127 -57l-25 -82l-174 35l-190 -35l-16 94l73 8l43 52v551l-39 51zM715 989l8 -235l149 -4l93 67 l22 94l-76 101l-155 20z" />
<glyph unicode="&#xaf;" horiz-adv-x="1005" d="M156 1681l336 -24l305 37l26 -187l-329 13l-324 -21z" />
<glyph unicode="&#x2c9;" horiz-adv-x="1005" d="M156 1681l336 -24l305 37l26 -187l-329 13l-324 -21z" />
<glyph unicode="&#xb0;" horiz-adv-x="673" d="M61 1047v241l134 146l241 39l164 -138l33 -235l-96 -197l-289 -29zM186 1098l115 -111l143 45l64 182l-100 119l-121 -6l-94 -86z" />
<glyph unicode="&#xb2;" horiz-adv-x="741" d="M23 608l385 361l53 211l-53 106l-160 23l-123 -115l-88 45l186 188l187 41l196 -129l-6 -262l-174 -237l-174 -144l254 -6l65 31l70 108l68 -32l-109 -265l-244 21l-315 -25z" />
<glyph unicode="&#xb3;" horiz-adv-x="741" d="M55 707l125 114l84 -80l-10 -63l55 -43l111 4l76 106l-13 136l-149 71l-162 -43l-41 56l291 159l39 115l-53 84l-142 8l-131 -123l-67 58l178 164l192 30l142 -59l45 -141l-62 -121l-117 -74l82 -29l117 -110l19 -166l-78 -131l-174 -78h-211z" />
<glyph unicode="&#xb4;" horiz-adv-x="1005" d="M416 1530l211 385l172 -131l-322 -305z" />
<glyph unicode="&#xb5;" horiz-adv-x="1095" d="M-96 -264l123 368l-2 -2l145 658v-2l10 139h207l-139 -555l24 -168l164 -59l131 116l150 668l196 -16l-141 -709l62 -61l94 67l65 201l78 -66l-80 -262l-192 -104l-144 84l-22 106l-64 -112l-174 -64l-178 72l-33 80l-41 -422l-133 -148z" />
<glyph unicode="&#x3bc;" horiz-adv-x="1095" d="M-96 -264l123 368l-2 -2l145 658v-2l10 139h207l-139 -555l24 -168l164 -59l131 116l150 668l196 -16l-141 -709l62 -61l94 67l65 201l78 -66l-80 -262l-192 -104l-144 84l-22 106l-64 -112l-174 -64l-178 72l-33 80l-41 -422l-133 -148z" />
<glyph unicode="&#xb6;" horiz-adv-x="1005" d="M41 1204l238 277l409 22h-2l264 53l-8 -145l-96 -35v-1384l-146 -8v1386h-145l8 -2v-1272l-164 -162l-63 86l82 78v680l-66 -8l-252 127z" />
<glyph unicode="&#xb8;" horiz-adv-x="1005" d="M287 -467l110 133l127 -104l58 30l-158 201l39 80l174 190l76 -28l-99 -96l-20 -39l123 -181v-122l-162 -134l-141 -34z" />
<glyph unicode="&#xb9;" horiz-adv-x="743" d="M102 633h140l63 80l-26 630l-162 52l16 86l191 -43l147 32l-16 -753l45 -74l145 -25l-27 -90l-495 19z" />
<glyph unicode="&#xba;" horiz-adv-x="839" d="M31 1194l207 227l270 39l258 -133l45 -332l-178 -223l-293 -20l-281 174zM195 1198l20 -235l147 -127l193 30l74 178l-15 220l-53 73l-65 29l-183 -12z" />
<glyph unicode="&#xbb;" horiz-adv-x="933" d="M39 113l154 276l135 98l-150 140l-123 209l70 55l430 -412l-434 -411zM395 823l70 58l461 -410l-465 -395l-64 86l152 225l139 96l-125 117z" />
<glyph unicode="&#xbc;" horiz-adv-x="1703" d="M123 1370l8 113l170 -45l156 30v-723l57 -47l100 -18l-30 -86l-408 10l-10 80l119 51l-19 604zM346 4l457 727h-2l469 774l100 -127l-477 -710l2 2l-430 -760zM991 301l451 561l96 -41l-39 -176l19 -301l176 4l-21 -123l-178 -10l-2 -98l66 -51l79 -15l-12 -76h-375 l-24 95l106 6l23 63l-6 86h-330zM1159 352h221l-16 15l8 245z" />
<glyph unicode="&#xbd;" horiz-adv-x="1703" d="M109 1470l215 -26l127 12v-704l28 -74l111 10l2 -88l-252 10l-217 -6l10 88l107 4l59 86l-23 580l-133 18zM358 -10l473 770l410 758l127 -117l-461 -686l2 2l-436 -830zM1020 29l377 393l20 215l-162 74l-149 -133l-51 71l178 168h229l135 -147l-38 -238l-293 -303 l-41 -18l274 -9l103 146l79 20l-125 -295l-505 -28z" />
<glyph unicode="&#xbe;" horiz-adv-x="1703" d="M49 741l88 113l139 -47l-30 -59l78 -62l112 21l33 127l-100 129l-174 -27l-64 49l305 217l-18 86l-84 53l-180 -96l-76 15l82 114l164 92l182 -6l78 -137l-41 -160l-97 -63l103 -45l90 -142l-29 -196l-129 -96l-225 -35zM340 -12l473 749h-2l424 772l127 -98l-457 -715h2 l-446 -802zM989 209l12 86l429 557l90 -33l-11 -467h166v-121h-155v-147l104 -33l55 -84h-448l14 82l103 27l8 145l8 6zM1171 360h191v240z" />
<glyph unicode="&#xbf;" horiz-adv-x="1034" d="M90 397l55 154l371 307l37 55l-29 95l-92 59l117 117l143 -135l-33 -158l-303 -299l2 4l-43 -70l29 -250l168 -141l213 43l158 148l86 -39l-146 -211l-207 -131h-278l-207 157zM377 1305l133 170l143 -146l-133 -153z" />
<glyph unicode="&#xc0;" horiz-adv-x="1421" d="M38 -29v99l103 12l80 113l-2 -7l483 1352l102 39l263 -862l-3 2l209 -541l103 -102l100 -13l-33 -88l-272 11l-225 -13l-39 107l86 -8l53 92l-141 403l10 17h-446l8 -17l-119 -368l27 -123l145 -19l25 -86l-271 25zM501 700l381 -14l-198 524zM569 1815l168 108l215 -403 l-90 -31z" />
<glyph unicode="&#xc1;" horiz-adv-x="1421" d="M38 -29v99l103 12l80 113l-2 -7l483 1352l102 39l263 -862l-3 2l209 -541l103 -102l100 -13l-33 -88l-272 11l-225 -13l-39 107l86 -8l53 92l-141 403l10 17h-446l8 -17l-119 -368l27 -123l145 -19l25 -86l-271 25zM501 700l381 -14l-198 524zM549 1530l211 385l172 -131 l-322 -305z" />
<glyph unicode="&#xc2;" horiz-adv-x="1421" d="M38 -29v99l103 12l80 113l-2 -7l483 1352l102 39l263 -862l-3 2l209 -541l103 -102l100 -13l-33 -88l-272 11l-225 -13l-39 107l86 -8l53 92l-141 403l10 17h-446l8 -17l-119 -368l27 -123l145 -19l25 -86l-271 25zM501 700l381 -14l-198 524zM475 1501l47 51l-2 -4 l240 371l258 -403l-76 -54l-199 197l2 8l-155 -227z" />
<glyph unicode="&#xc3;" horiz-adv-x="1421" d="M38 -29v99l103 12l80 113l-2 -7l483 1352l102 39l263 -862l-3 2l209 -541l103 -102l100 -13l-33 -88l-272 11l-225 -13l-39 107l86 -8l53 92l-141 403l10 17h-446l8 -17l-119 -368l27 -123l145 -19l25 -86l-271 25zM501 700l381 -14l-198 524zM323 1565l213 143l94 10 l217 -80l115 7l98 104l76 -55l-213 -193l-121 -12l-241 90l-172 -98z" />
<glyph unicode="&#xc4;" horiz-adv-x="1421" d="M38 -29v99l103 12l80 113l-2 -7l483 1352l102 39l263 -862l-3 2l209 -541l103 -102l100 -13l-33 -88l-272 11l-225 -13l-39 107l86 -8l53 92l-141 403l10 17h-446l8 -17l-119 -368l27 -123l145 -19l25 -86l-271 25zM501 700l381 -14l-198 524zM396 1602l141 174l153 -142 l-125 -166zM811 1612l146 166l151 -152l-135 -147z" />
<glyph unicode="&#xc5;" horiz-adv-x="1421" d="M38 -29v99l103 12l80 113l-2 -7l483 1352l102 39l263 -862l-3 2l209 -541l103 -102l100 -13l-33 -88l-272 11l-225 -13l-39 107l86 -8l53 92l-141 403l10 17h-446l8 -17l-119 -368l27 -123l145 -19l25 -86l-271 25zM501 700l381 -14l-198 524zM514 1602v194l107 117 l194 31l133 -111l27 -188l-78 -160l-233 -23zM621 1645l88 -84l108 34l50 140l-76 90l-92 -4l-72 -68z" />
<glyph unicode="&#xc6;" horiz-adv-x="2017" d="M18 -29v99l103 12l80 113v-2l790 1220h123l336 41h457l-43 -178l14 -189l-80 -8l-43 203l-151 74l-287 -25v-538l246 10l112 78l39 139l86 -33l-33 -252l23 -243l-96 -9l-29 123l-125 68h-237l10 -17v-428l112 -137l105 -24l205 32l143 156l35 225l92 -39l-29 -227 l-78 -254h-1019l18 111l178 96v496l-420 -13l-127 -172l-188 -282l25 -121l145 -19l25 -86l-271 25zM750 782l292 23l19 446l-62 -73v2z" />
<glyph unicode="&#xc7;" horiz-adv-x="1421" d="M75 682l70 358l203 287l329 137l412 17l260 -127l14 -166l21 -225l-100 16l-41 182l2 -4l-72 154l-233 75l-308 -69l-213 -250l-69 -352l45 -316l215 -249l278 -107l207 35l191 198l65 205l86 -26l-117 -420l-233 -74l-303 -20l-371 129l-252 235zM543 -475l110 133 l127 -104l58 30l-158 201l39 80l174 190l76 -28l-99 -96l-20 -39l123 -181v-122l-162 -134l-141 -34z" />
<glyph unicode="&#xc8;" d="M83 -41l21 90l141 47l54 142v999l-74 125h-113l8 92h539h516l-43 -178l14 -189l-79 -8l-43 203l-152 74l-348 -15v-548l289 10l110 76l39 141l86 -33l-33 -252l23 -243l-96 -9l-29 123l-125 68h-279l11 -17v-428l112 -137l164 -24l207 32l143 156l35 225l92 -39l-28 -227 l-78 -235h-723zM430 1815l168 108l215 -403l-90 -31z" />
<glyph unicode="&#xc9;" d="M83 -41l21 90l141 47l54 142v999l-74 125h-113l8 92h539h516l-43 -178l14 -189l-79 -8l-43 203l-152 74l-348 -15v-548l289 10l110 76l39 141l86 -33l-33 -252l23 -243l-96 -9l-29 123l-125 68h-279l11 -17v-428l112 -137l164 -24l207 32l143 156l35 225l92 -39l-28 -227 l-78 -235h-723zM588 1530l211 385l172 -131l-322 -305z" />
<glyph unicode="&#xca;" d="M83 -41l21 90l141 47l54 142v999l-74 125h-113l8 92h539h516l-43 -178l14 -189l-79 -8l-43 203l-152 74l-348 -15v-548l289 10l110 76l39 141l86 -33l-33 -252l23 -243l-96 -9l-29 123l-125 68h-279l11 -17v-428l112 -137l164 -24l207 32l143 156l35 225l92 -39l-28 -227 l-78 -235h-723zM440 1501l47 51l-2 -4l240 371l258 -403l-76 -54l-199 197l2 8l-155 -227z" />
<glyph unicode="&#xcb;" d="M83 -41l21 90l141 47l54 142v999l-74 125h-113l8 92h539h516l-43 -178l14 -189l-79 -8l-43 203l-152 74l-348 -15v-548l289 10l110 76l39 141l86 -33l-33 -252l23 -243l-96 -9l-29 123l-125 68h-279l11 -17v-428l112 -137l164 -24l207 32l143 156l35 225l92 -39l-28 -227 l-78 -235h-723zM326 1602l141 174l153 -142l-125 -166zM741 1612l146 166l151 -152l-135 -147z" />
<glyph unicode="&#xcc;" horiz-adv-x="784" d="M79 1370l27 107l315 -64l310 51l26 -86l-143 -39l-90 -139v-1003l65 -109l142 -39v-92l-338 51l-291 -37v97l166 53l22 86v1071l-118 78zM149 1815l168 108l215 -403l-90 -31z" />
<glyph unicode="&#xcd;" horiz-adv-x="784" d="M79 1370l27 107l315 -64l310 51l26 -86l-143 -39l-90 -139v-1003l65 -109l142 -39v-92l-338 51l-291 -37v97l166 53l22 86v1071l-118 78zM328 1530l211 385l172 -131l-322 -305z" />
<glyph unicode="&#xce;" horiz-adv-x="784" d="M79 1370l27 107l315 -64l310 51l26 -86l-143 -39l-90 -139v-1003l65 -109l142 -39v-92l-338 51l-291 -37v97l166 53l22 86v1071l-118 78zM145 1501l47 51l-2 -4l240 371l258 -403l-76 -54l-199 197l2 8l-155 -227z" />
<glyph unicode="&#xcf;" horiz-adv-x="784" d="M79 1370l27 107l315 -64l310 51l26 -86l-143 -39l-90 -139v-1003l65 -109l142 -39v-92l-338 51l-291 -37v97l166 53l22 86v1071l-118 78zM74 1602l141 174l153 -142l-125 -166zM489 1612l146 166l151 -152l-135 -147z" />
<glyph unicode="&#xd0;" horiz-adv-x="1636" d="M104 45l131 45l78 139v983l-76 142h-108l-3 96l248 -8l205 31h234l333 -99l314 -250l112 -344l-49 -381l-260 -272l-299 -135l-301 -25l-244 19l-303 -27zM520 326l35 -146l163 -121l267 35l192 154l105 233v342l-109 291l-248 172l-282 82l-123 -4v-1038zM163 618l9 195 l247 -49l240 34l-12 -223l-203 39l4 4h-285z" />
<glyph unicode="&#xd1;" horiz-adv-x="1638" d="M-11 1446l191 12l180 17l907 -1061l19 -54v844l-74 148l-174 30l8 93l299 -27l254 20l23 -88l-140 -24l-80 -137v-1119l35 -243l-1026 1165l-18 63v-847l98 -132l119 -38l2 -95l-289 13l-307 -37l-8 84l170 53l98 178v922l-117 160l-155 18zM364 1565l213 143l94 10 l217 -80l115 7l98 104l76 -55l-213 -193l-121 -12l-241 90l-172 -98z" />
<glyph unicode="&#xd2;" horiz-adv-x="1640" d="M81 715l17 151l143 383l361 211l419 13l361 -179l190 -370v-418l-163 -332l-322 -199l-328 -22l-325 100l-248 234zM354 739l63 -340l205 -276l285 -55l282 137l119 278l10 379l-118 320l2 -8l-146 165l-205 47l-204 -49l-201 -182zM536 1815l168 108l215 -403l-90 -31z " />
<glyph unicode="&#xd3;" horiz-adv-x="1640" d="M81 715l17 151l143 383l361 211l419 13l361 -179l190 -370v-418l-163 -332l-322 -199l-328 -22l-325 100l-248 234zM354 739l63 -340l205 -276l285 -55l282 137l119 278l10 379l-118 320l2 -8l-146 165l-205 47l-204 -49l-201 -182zM682 1530l211 385l172 -131l-322 -305 z" />
<glyph unicode="&#xd4;" horiz-adv-x="1640" d="M81 715l17 151l143 383l361 211l419 13l361 -179l190 -370v-418l-163 -332l-322 -199l-328 -22l-325 100l-248 234zM354 739l63 -340l205 -276l285 -55l282 137l119 278l10 379l-118 320l2 -8l-146 165l-205 47l-204 -49l-201 -182zM565 1501l47 51l-2 -4l240 371 l258 -403l-76 -54l-199 197l2 8l-155 -227z" />
<glyph unicode="&#xd5;" horiz-adv-x="1640" d="M81 715l17 151l143 383l361 211l419 13l361 -179l190 -370v-418l-163 -332l-322 -199l-328 -22l-325 100l-248 234zM354 739l63 -340l205 -276l285 -55l282 137l119 278l10 379l-118 320l2 -8l-146 165l-205 47l-204 -49l-201 -182zM387 1565l213 143l94 10l217 -80 l115 7l98 104l76 -55l-213 -193l-121 -12l-241 90l-172 -98z" />
<glyph unicode="&#xd6;" horiz-adv-x="1640" d="M81 715l17 151l143 383l361 211l419 13l361 -179l190 -370v-418l-163 -332l-322 -199l-328 -22l-325 100l-248 234zM354 739l63 -340l205 -276l285 -55l282 137l119 278l10 379l-118 320l2 -8l-146 165l-205 47l-204 -49l-201 -182zM480 1602l141 174l153 -142l-125 -166 zM895 1612l146 166l151 -152l-135 -147z" />
<glyph unicode="&#xd8;" horiz-adv-x="1640" d="M61 715l17 151l143 383l361 211l419 13l361 -179l190 -370v-418l-163 -332l-322 -199l-328 -22l-325 100l-248 234zM334 739l63 -340l6 -8l392 359l356 454l-117 135l-203 47l-204 -49l-201 -182zM498 264l104 -141l285 -55l282 137l119 278l10 377l-81 215l-361 -391h2z " />
<glyph unicode="&#xd9;" horiz-adv-x="1636" d="M77 1450l322 -14l301 26l-8 -98l-113 -14l-80 -140v-866l162 -207l277 -31l237 64l113 209v819l-72 139l-129 47l23 70l258 -10l225 12l-2 -86l-86 -24l-68 -125v-629l-55 -340l-211 -248l-330 -59l-344 69l-221 273v930l-74 129l-110 18zM622 1815l168 108l215 -403 l-90 -31z" />
<glyph unicode="&#xda;" horiz-adv-x="1636" d="M77 1450l322 -14l301 26l-8 -98l-113 -14l-80 -140v-866l162 -207l277 -31l237 64l113 209v819l-72 139l-129 47l23 70l258 -10l225 12l-2 -86l-86 -24l-68 -125v-629l-55 -340l-211 -248l-330 -59l-344 69l-221 273v930l-74 129l-110 18zM754 1530l211 385l172 -131 l-322 -305z" />
<glyph unicode="&#xdb;" horiz-adv-x="1636" d="M77 1450l322 -14l301 26l-8 -98l-113 -14l-80 -140v-866l162 -207l277 -31l237 64l113 209v819l-72 139l-129 47l23 70l258 -10l225 12l-2 -86l-86 -24l-68 -125v-629l-55 -340l-211 -248l-330 -59l-344 69l-221 273v930l-74 129l-110 18zM598 1501l47 51l-2 -4l240 371 l258 -403l-76 -54l-199 197l2 8l-155 -227z" />
<glyph unicode="&#xdc;" horiz-adv-x="1636" d="M77 1450l322 -14l301 26l-8 -98l-113 -14l-80 -140v-866l162 -207l277 -31l237 64l113 209v819l-72 139l-129 47l23 70l258 -10l225 12l-2 -86l-86 -24l-68 -125v-629l-55 -340l-211 -248l-330 -59l-344 69l-221 273v930l-74 129l-110 18zM521 1602l141 174l153 -142 l-125 -166zM936 1612l146 166l151 -152l-135 -147z" />
<glyph unicode="&#xdd;" d="M94 1368l10 84l225 -27l250 35l10 -84l-77 -20l-25 -56l235 -544l252 512l-45 104l-88 4v80l226 -18l233 22v-86l-68 -8l-139 -117l-321 -598v-401l59 -139l137 -50v-84l-313 21l-275 -27l21 105l84 16l76 109v399l-340 715zM578 1530l211 385l172 -131l-322 -305z" />
<glyph unicode="&#xde;" horiz-adv-x="1208" d="M68 -35l28 98l117 37l63 115v975l-63 139l-129 43l18 78l293 -20l305 30l11 -86l-172 -55l-43 -115h2l-15 -47l80 10l285 -30l256 -203l35 -285l-119 -229l-291 -113l-244 -22l-6 -99l76 -65l168 -43l-29 -107l-282 31zM487 379l80 -8l174 55l129 113l25 229l-90 184 l-227 107l-91 -8v-672z" />
<glyph unicode="&#xdf;" horiz-adv-x="1099" d="M51 -33v92l84 7l45 90v864l45 215l287 268l225 29l191 -176l10 -201l-225 -225l-8 -109l337 -395v-229l-161 -197l-166 -39l-72 -4l-100 106l110 136l111 -113l67 20l43 113l-18 133l-324 320v151l52 113l149 188l6 154l-75 108l-103 39l-158 -168l-30 -307v-844l76 -51 l94 4l14 -98l-281 31z" />
<glyph unicode="&#xe0;" horiz-adv-x="899" d="M98 367l162 133l315 100l-4 133l-47 86l-105 39l-100 -86l53 -76l-133 -110l-133 119l289 262l225 12l141 -211l-20 -557l82 -117l57 6l19 -84l-232 -49l-98 92l-57 -49l-185 -45l-213 107zM276 197l100 -80l105 -11l100 76l-16 318l-285 -121zM241 1330l168 108 l215 -403l-90 -31z" />
<glyph unicode="&#xe1;" horiz-adv-x="1064" d="M98 367l162 133l315 100l-4 133l-47 86l-105 39l-100 -86l53 -76l-133 -110l-133 119l289 262l225 12l141 -211l-20 -557l82 -117l57 6l19 -84l-232 -49l-98 92l-57 -49l-185 -45l-213 107zM276 197l100 -80l105 -11l100 76l-16 318l-285 -121zM350 1045l211 385 l172 -131l-322 -305z" />
<glyph unicode="&#xe2;" horiz-adv-x="899" d="M98 367l162 133l315 100l-4 133l-47 86l-105 39l-100 -86l53 -76l-133 -110l-133 119l289 262l225 12l141 -211l-20 -557l82 -117l57 6l19 -84l-232 -49l-98 92l-57 -49l-185 -45l-213 107zM276 197l100 -80l105 -11l100 76l-16 318l-285 -121zM215 1016l47 51l-2 -4 l240 371l258 -403l-76 -54l-199 197l2 8l-155 -227z" />
<glyph unicode="&#xe3;" horiz-adv-x="899" d="M98 367l162 133l315 100l-4 133l-47 86l-105 39l-100 -86l53 -76l-133 -110l-133 119l289 262l225 12l141 -211l-20 -557l82 -117l57 6l19 -84l-232 -49l-98 92l-57 -49l-185 -45l-213 107zM276 197l100 -80l105 -11l100 76l-16 318l-285 -121zM88 1080l213 143l94 10 l217 -80l115 7l98 104l76 -55l-213 -193l-121 -12l-241 90l-172 -98z" />
<glyph unicode="&#xe4;" horiz-adv-x="899" d="M98 367l162 133l315 100l-4 133l-47 86l-105 39l-100 -86l53 -76l-133 -110l-133 119l289 262l225 12l141 -211l-20 -557l82 -117l57 6l19 -84l-232 -49l-98 92l-57 -49l-185 -45l-213 107zM276 197l100 -80l105 -11l100 76l-16 318l-285 -121zM123 1117l141 174 l153 -142l-125 -166zM538 1127l146 166l151 -152l-135 -147z" />
<glyph unicode="&#xe5;" horiz-adv-x="899" d="M98 367l162 133l315 100l-4 133l-47 86l-105 39l-100 -86l53 -76l-133 -110l-133 119l289 262l225 12l141 -211l-20 -557l82 -117l57 6l19 -84l-232 -49l-98 92l-57 -49l-185 -45l-213 107zM276 197l100 -80l105 -11l100 76l-16 318l-285 -121zM250 1117v194l107 117 l194 31l133 -111l27 -188l-78 -160l-233 -23zM357 1160l88 -84l108 34l50 140l-76 90l-92 -4l-72 -68z" />
<glyph unicode="&#xe6;" horiz-adv-x="1386" d="M61 365l162 131l314 55l12 108l-62 160l-106 39l-100 -86l57 -76l-137 -110l-133 119l286 262l228 12l98 -148l55 72l144 64l215 -15l166 -123l71 -299l-616 -57l41 -260l192 -109l226 48l108 143l64 -88l-216 -213l-284 -49l-228 143l3 -2l-41 16l-113 -92l-178 -45 l-213 107zM238 197l100 -80l104 -11l99 76v271l-299 -80zM735 569l359 54l-33 178l-137 80l-97 -35l-59 -76z" />
<glyph unicode="&#xe7;" horiz-adv-x="862" d="M67 578l203 307l303 100l190 -29l107 -120l-135 -125l-172 147h-148l-119 -133l-24 -231l98 -250l174 -115l156 12l125 84l59 -39l-100 -133l-238 -86l-250 41l-204 225zM246 -467l110 133l127 -104l58 30l-158 201l39 80l174 190l76 -28l-99 -96l-20 -39l123 -181v-122 l-162 -134l-141 -34z" />
<glyph unicode="&#xe8;" horiz-adv-x="897" d="M57 350l55 348l172 220l142 65l215 -16l167 -123l68 -299l-592 -62l-14 -47l82 -182l196 -125l172 39l111 145l63 -86l-215 -217l-196 -49l-256 84zM278 584l379 53l-33 178l-135 80l-119 -37l-69 -74zM262 1330l168 108l215 -403l-90 -31z" />
<glyph unicode="&#xe9;" horiz-adv-x="897" d="M57 350l55 348l172 220l142 65l215 -16l167 -123l68 -299l-592 -62l-14 -47l82 -182l196 -125l172 39l111 145l63 -86l-215 -217l-196 -49l-256 84zM278 584l379 53l-33 178l-135 80l-119 -37l-69 -74zM301 1045l211 385l172 -131l-322 -305z" />
<glyph unicode="&#xea;" horiz-adv-x="897" d="M57 350l55 348l172 220l142 65l215 -16l167 -123l68 -299l-592 -62l-14 -47l82 -182l196 -125l172 39l111 145l63 -86l-215 -217l-196 -49l-256 84zM278 584l379 53l-33 178l-135 80l-119 -37l-69 -74zM213 1016l47 51l-2 -4l240 371l258 -403l-76 -54l-199 197l2 8 l-155 -227z" />
<glyph unicode="&#xeb;" horiz-adv-x="897" d="M57 350l55 348l172 220l142 65l215 -16l167 -123l68 -299l-592 -62l-14 -47l82 -182l196 -125l172 39l111 145l63 -86l-215 -217l-196 -49l-256 84zM278 584l379 53l-33 178l-135 80l-119 -37l-69 -74zM130 1117l141 174l153 -142l-125 -166zM545 1127l146 166l151 -152 l-135 -147z" />
<glyph unicode="&#xec;" horiz-adv-x="544" d="M61 868l170 54l139 77l58 -38l-33 -809l63 -78l70 -41l-10 -72l-211 29l-244 -13l16 95l91 10l49 92l-19 549l-63 74l-45 -15zM86 1330l168 108l215 -403l-90 -31z" />
<glyph unicode="&#xed;" horiz-adv-x="544" d="M61 868l170 54l139 77l58 -38l-33 -809l63 -78l70 -41l-10 -72l-211 29l-244 -13l16 95l91 10l49 92l-19 549l-63 74l-45 -15zM137 1045l211 385l172 -131l-322 -305z" />
<glyph unicode="&#xee;" horiz-adv-x="544" d="M61 868l170 54l139 77l58 -38l-33 -809l63 -78l70 -41l-10 -72l-211 29l-244 -13l16 95l91 10l49 92l-19 549l-63 74l-45 -15zM14 1016l47 51l-2 -4l240 371l258 -403l-76 -54l-199 197l2 8l-155 -227z" />
<glyph unicode="&#xef;" horiz-adv-x="544" d="M61 868l170 54l139 77l58 -38l-33 -809l63 -78l70 -41l-10 -72l-211 29l-244 -13l16 95l91 10l49 92l-19 549l-63 74l-45 -15zM-51 1117l141 174l153 -142l-125 -166zM364 1127l146 166l151 -152l-135 -147z" />
<glyph unicode="&#xf0;" horiz-adv-x="1056" d="M39 317l37 349l229 268l264 76l133 -66l-157 250l-209 -164l-105 90l234 144l-133 96l-96 2l-23 70l135 61h-2l115 63l160 -182l167 170l101 -104l-217 -144l90 -108l205 -381l43 -371l-191 -373l-295 -112l-311 78zM260 459l102 -262l156 -125l146 14l88 117l41 262 l-66 338l-137 92l-170 -23l-72 -28l-41 -84z" />
<glyph unicode="&#xf1;" horiz-adv-x="1085" d="M71 51l72 27l53 94v551l-61 72l-27 -13l-35 76l166 51l121 92l49 -40l-16 -119l96 73l258 76l193 -108l41 -209v-543l57 -68l37 -14l4 -78l-197 21l-205 -25l-10 90l80 19l45 74v514l-92 157l-145 10l-173 -81v-605l50 -73l92 -17l-15 -71h-413zM186 1080l213 143l94 10 l217 -80l115 7l98 104l76 -55l-213 -193l-121 -12l-241 90l-172 -98z" />
<glyph unicode="&#xf2;" horiz-adv-x="1103" d="M63 494l123 342l262 131h260l105 -29l178 -127l90 -272l-45 -293l-168 -211l-279 -68l-280 45l-205 189zM278 356l102 -221l166 -82l164 25l105 176l51 303l-74 229l-137 88l-182 -6l-154 -166zM309 1330l168 108l215 -403l-90 -31z" />
<glyph unicode="&#xf3;" horiz-adv-x="1103" d="M63 494l123 342l262 131h260l105 -29l178 -127l90 -272l-45 -293l-168 -211l-279 -68l-280 45l-205 189zM278 356l102 -221l166 -82l164 25l105 176l51 303l-74 229l-137 88l-182 -6l-154 -166zM406 1045l211 385l172 -131l-322 -305z" />
<glyph unicode="&#xf4;" horiz-adv-x="1103" d="M63 494l123 342l262 131h260l105 -29l178 -127l90 -272l-45 -293l-168 -211l-279 -68l-280 45l-205 189zM278 356l102 -221l166 -82l164 25l105 176l51 303l-74 229l-137 88l-182 -6l-154 -166zM301 1016l47 51l-2 -4l240 371l258 -403l-76 -54l-199 197l2 8l-155 -227z " />
<glyph unicode="&#xf5;" horiz-adv-x="1103" d="M63 494l123 342l262 131h260l105 -29l178 -127l90 -272l-45 -293l-168 -211l-279 -68l-280 45l-205 189zM278 356l102 -221l166 -82l164 25l105 176l51 303l-74 229l-137 88l-182 -6l-154 -166zM170 1080l213 143l94 10l217 -80l115 7l98 104l76 -55l-213 -193l-121 -12 l-241 90l-172 -98z" />
<glyph unicode="&#xf6;" horiz-adv-x="1103" d="M63 494l123 342l262 131h260l105 -29l178 -127l90 -272l-45 -293l-168 -211l-279 -68l-280 45l-205 189zM278 356l102 -221l166 -82l164 25l105 176l51 303l-74 229l-137 88l-182 -6l-154 -166zM224 1117l141 174l153 -142l-125 -166zM639 1127l146 166l151 -152 l-135 -147z" />
<glyph unicode="&#xf8;" horiz-adv-x="1103" d="M43 494l123 342l262 131h260l105 -29l178 -127l90 -272l-45 -293l-168 -211l-279 -68l-280 45l-205 189zM258 356l39 -86l270 258l189 275l-123 71l-180 -6l-154 -166zM348 162l12 -27l166 -82l164 25l105 176l51 303l-35 109l-201 -199h2z" />
<glyph unicode="&#xf9;" horiz-adv-x="1095" d="M45 961l172 -17l165 33v-703l103 -155h153l138 88l-23 14v563l-49 64l-88 16l-14 92l176 -14l203 33l-19 -465v-367l39 -34l84 16l-12 -98l-150 -9l-162 -65l-6 153l-137 -92l-207 -43l-203 111l-30 385v311l-58 70l-55 20zM325 1330l168 108l215 -403l-90 -31z" />
<glyph unicode="&#xfa;" horiz-adv-x="1095" d="M45 961l172 -17l165 33v-703l103 -155h153l138 88l-23 14v563l-49 64l-88 16l-14 92l176 -14l203 33l-19 -465v-367l39 -34l84 16l-12 -98l-150 -9l-162 -65l-6 153l-137 -92l-207 -43l-203 111l-30 385v311l-58 70l-55 20zM389 1045l211 385l172 -131l-322 -305z" />
<glyph unicode="&#xfb;" horiz-adv-x="1095" d="M45 961l172 -17l165 33v-703l103 -155h153l138 88l-23 14v563l-49 64l-88 16l-14 92l176 -14l203 33l-19 -465v-367l39 -34l84 16l-12 -98l-150 -9l-162 -65l-6 153l-137 -92l-207 -43l-203 111l-30 385v311l-58 70l-55 20zM266 1016l47 51l-2 -4l240 371l258 -403 l-76 -54l-199 197l2 8l-155 -227z" />
<glyph unicode="&#xfc;" horiz-adv-x="1095" d="M45 961l172 -17l165 33v-703l103 -155h153l138 88l-23 14v563l-49 64l-88 16l-14 92l176 -14l203 33l-19 -465v-367l39 -34l84 16l-12 -98l-150 -9l-162 -65l-6 153l-137 -92l-207 -43l-203 111l-30 385v311l-58 70l-55 20zM203 1117l141 174l153 -142l-125 -166z M618 1127l146 166l151 -152l-135 -147z" />
<glyph unicode="&#xfd;" horiz-adv-x="968" d="M45 887l4 76l186 -15l205 27l10 -86l-76 -12l-20 -58l211 -606l188 565l-35 90l-75 9l26 100l164 -29l170 25l10 -86l-98 -35l-55 -90v4l-424 -1155l-191 -133l-123 131l125 131l82 -76l39 23l103 260l-312 835v-2l-49 82zM389 1045l211 385l172 -131l-322 -305z" />
<glyph unicode="&#xfe;" horiz-adv-x="1101" d="M27 -512l120 4l17 105v1679l-92 96l-11 86l148 17l117 84l57 -56l-51 -651l254 129l305 -61l156 -277l-27 -358l-172 -211l-215 -94l-199 -23l-74 39l13 -27l-19 -403l47 -72l177 -20l-3 -101l-274 43l-260 -28zM352 764h10v-438l82 -217l150 -46l154 91l90 204l-27 281 l-143 172l-197 20z" />
<glyph unicode="&#xff;" horiz-adv-x="968" d="M45 887l4 76l186 -15l205 27l10 -86l-76 -12l-20 -58l211 -606l188 565l-35 90l-75 9l26 100l164 -29l170 25l10 -86l-98 -35l-55 -90v4l-424 -1155l-191 -133l-123 131l125 131l82 -76l39 23l103 260l-312 835v-2l-49 82zM181 1117l141 174l153 -142l-125 -166z M596 1127l146 166l151 -152l-135 -147z" />
<glyph unicode="&#x100;" horiz-adv-x="1421" d="M38 -29v99l103 12l80 113l-2 -7l483 1352l102 39l263 -862l-3 2l209 -541l103 -102l100 -13l-33 -88l-272 11l-225 -13l-39 107l86 -8l53 92l-141 403l10 17h-446l8 -17l-119 -368l27 -123l145 -19l25 -86l-271 25zM501 700l381 -14l-198 524zM400 1681l336 -24l305 37 l26 -187l-329 13l-324 -21z" />
<glyph unicode="&#x101;" horiz-adv-x="899" d="M98 367l162 133l315 100l-4 133l-47 86l-105 39l-100 -86l53 -76l-133 -110l-133 119l289 262l225 12l141 -211l-20 -557l82 -117l57 6l19 -84l-232 -49l-98 92l-57 -49l-185 -45l-213 107zM276 197l100 -80l105 -11l100 76l-16 318l-285 -121zM154 1196l336 -24l305 37 l26 -187l-329 13l-324 -21z" />
<glyph unicode="&#x102;" horiz-adv-x="1421" d="M38 -29v99l103 12l80 113l-2 -7l483 1352l102 39l263 -862l-3 2l209 -541l103 -102l100 -13l-33 -88l-272 11l-225 -13l-39 107l86 -8l53 92l-141 403l10 17h-446l8 -17l-119 -368l27 -123l145 -19l25 -86l-271 25zM501 700l381 -14l-198 524zM473 1907l94 18l39 -194 l100 -72l103 12l61 84l35 172l90 -8l-27 -264l-110 -139l-154 -31l-164 96z" />
<glyph unicode="&#x103;" horiz-adv-x="899" d="M98 367l162 133l315 100l-4 133l-47 86l-105 39l-100 -86l53 -76l-133 -110l-133 119l289 262l225 12l141 -211l-20 -557l82 -117l57 6l19 -84l-232 -49l-98 92l-57 -49l-185 -45l-213 107zM276 197l100 -80l105 -11l100 76l-16 318l-285 -121zM215 1422l94 18l39 -194 l100 -72l103 12l61 84l35 172l90 -8l-27 -264l-110 -139l-154 -31l-164 96z" />
<glyph unicode="&#x104;" horiz-adv-x="1421" d="M38 -29v99l103 12l80 113l-2 -7l483 1352l102 39l263 -862l-3 2l209 -541l103 -102l100 -13l-33 -88l-272 11l-225 -13l-39 107l86 -8l53 92l-141 403l10 17h-446l8 -17l-119 -368l27 -123l145 -19l25 -86l-271 25zM501 700l381 -14l-198 524zM1063 -281l123 181l-21 37 l-92 75l70 68l157 -150v-80l-100 -122v-31l178 -131l62 43l57 -62l-129 -118l-144 34l-161 134v122z" />
<glyph unicode="&#x105;" horiz-adv-x="899" d="M98 367l162 133l315 100l-4 133l-47 86l-105 39l-100 -86l53 -76l-133 -110l-133 119l289 262l225 12l141 -211l-20 -557l82 -117l57 6l19 -84l-232 -49l-98 92l-57 -49l-185 -45l-213 107zM276 197l100 -80l105 -11l100 76l-16 318l-285 -121zM621 -281l123 181l-21 37 l-92 75l70 68l157 -150v-80l-100 -122v-31l178 -131l62 43l57 -62l-129 -118l-144 34l-161 134v122z" />
<glyph unicode="&#x106;" horiz-adv-x="1421" d="M75 682l70 358l203 287l329 137l412 17l260 -127l14 -166l21 -225l-100 16l-41 182l2 -4l-72 154l-233 75l-308 -69l-213 -250l-69 -352l45 -316l215 -249l278 -107l207 35l191 198l65 205l86 -26l-117 -420l-233 -74l-303 -20l-371 129l-252 235zM707 1530l211 385 l172 -131l-322 -305z" />
<glyph unicode="&#x107;" horiz-adv-x="862" d="M67 578l203 307l303 100l190 -29l107 -120l-135 -125l-172 147h-148l-119 -133l-24 -231l98 -250l174 -115l156 12l125 84l59 -39l-100 -133l-238 -86l-250 41l-204 225zM367 1045l211 385l172 -131l-322 -305z" />
<glyph unicode="&#x10c;" horiz-adv-x="1421" d="M75 682l70 358l203 287l329 137l412 17l260 -127l14 -166l21 -225l-100 16l-41 182l2 -4l-72 154l-233 75l-308 -69l-213 -250l-69 -352l45 -316l215 -249l278 -107l207 35l191 198l65 205l86 -26l-117 -420l-233 -74l-303 -20l-371 129l-252 235zM620 1878l76 53 l199 -207l-2 -8l155 238l115 -62l-47 -51l2 4l-240 -370z" />
<glyph unicode="&#x10d;" horiz-adv-x="862" d="M67 578l203 307l303 100l190 -29l107 -120l-135 -125l-172 147h-148l-119 -133l-24 -231l98 -250l174 -115l156 12l125 84l59 -39l-100 -133l-238 -86l-250 41l-204 225zM266 1393l76 53l199 -207l-2 -8l155 238l115 -62l-47 -51l2 4l-240 -370z" />
<glyph unicode="&#x10e;" horiz-adv-x="1636" d="M104 45l131 45l78 139v983l-76 142h-108l-3 96l248 -8l205 31h234l333 -99l314 -250l112 -344l-49 -381l-260 -272l-299 -135l-301 -25l-244 19l-303 -27zM520 326l35 -146l163 -121l267 35l192 154l105 233v342l-109 291l-248 172l-282 82l-123 -4v-1038zM446 1878 l76 53l199 -207l-2 -8l155 238l115 -62l-47 -51l2 4l-240 -370z" />
<glyph unicode="&#x10f;" horiz-adv-x="1308" d="M77 563l170 299l285 123l117 4l123 -33l-13 13l21 383l-137 90l-7 78l168 6l164 78l17 -70l-17 -64v-1312l43 -66l66 31l33 -103l-132 -22h3l-218 -64l25 146v-4l2 65l-47 -61l-219 -125l-199 37l-207 182zM272 481l86 -262l186 -88l172 43l76 90h-10v373l-86 203 l-174 37l-187 -109zM971 1589l162 178l167 -122l78 -238l-45 -158l-125 -123l-200 -77l4 104l141 59l84 134l-43 110l-33 47l-67 -26z" />
<glyph unicode="&#x110;" horiz-adv-x="1636" d="M104 45l131 45l78 139v983l-76 142h-108l-3 96l248 -8l205 31h234l333 -99l314 -250l112 -344l-49 -381l-260 -272l-299 -135l-301 -25l-244 19l-303 -27zM520 326l35 -146l163 -121l267 35l192 154l105 233v342l-109 291l-248 172l-282 82l-123 -4v-1038zM174 631l9 195 l247 -49l240 34l-12 -223l-203 39l4 4h-285z" />
<glyph unicode="&#x111;" horiz-adv-x="1064" d="M77 563l170 299l285 123l117 4l123 -33l-13 13l21 383l-137 90l-7 78l168 6l164 78l17 -70l-17 -64v-1312l43 -66l66 31l33 -103l-132 -22h3l-218 -64l25 146v-4l2 65l-47 -61l-219 -125l-199 37l-207 182zM272 481l86 -262l186 -88l172 43l76 90h-10v373l-86 203 l-174 37l-187 -109zM624 1143l9 195l247 -49l240 34l-12 -223l-203 39l4 4h-285z" />
<glyph unicode="&#x112;" d="M83 -41l21 90l141 47l54 142v999l-74 125h-113l8 92h539h516l-43 -178l14 -189l-79 -8l-43 203l-152 74l-348 -15v-548l289 10l110 76l39 141l86 -33l-33 -252l23 -243l-96 -9l-29 123l-125 68h-279l11 -17v-428l112 -137l164 -24l207 32l143 156l35 225l92 -39l-28 -227 l-78 -235h-723zM387 1681l336 -24l305 37l26 -187l-329 13l-324 -21z" />
<glyph unicode="&#x113;" horiz-adv-x="897" d="M57 350l55 348l172 220l142 65l215 -16l167 -123l68 -299l-592 -62l-14 -47l82 -182l196 -125l172 39l111 145l63 -86l-215 -217l-196 -49l-256 84zM278 584l379 53l-33 178l-135 80l-119 -37l-69 -74zM144 1196l336 -24l305 37l26 -187l-329 13l-324 -21z" />
<glyph unicode="&#x116;" d="M83 -41l21 90l141 47l54 142v999l-74 125h-113l8 92h539h516l-43 -178l14 -189l-79 -8l-43 203l-152 74l-348 -15v-548l289 10l110 76l39 141l86 -33l-33 -252l23 -243l-96 -9l-29 123l-125 68h-279l11 -17v-428l112 -137l164 -24l207 32l143 156l35 225l92 -39l-28 -227 l-78 -235h-723zM538 1661l168 162l162 -176l-176 -160z" />
<glyph unicode="&#x117;" horiz-adv-x="897" d="M57 350l55 348l172 220l142 65l215 -16l167 -123l68 -299l-592 -62l-14 -47l82 -182l196 -125l172 39l111 145l63 -86l-215 -217l-196 -49l-256 84zM278 584l379 53l-33 178l-135 80l-119 -37l-69 -74zM315 1176l168 162l162 -176l-176 -160z" />
<glyph unicode="&#x118;" d="M83 -41l21 90l141 47l54 142v999l-74 125h-113l8 92h539h516l-43 -178l14 -189l-79 -8l-43 203l-152 74l-348 -15v-548l289 10l110 76l39 141l86 -33l-33 -252l23 -243l-96 -9l-29 123l-125 68h-279l11 -17v-428l112 -137l164 -24l207 32l143 156l35 225l92 -39l-28 -227 l-78 -235h-723zM611 -281l123 181l-21 37l-92 75l70 68l157 -150v-80l-100 -122v-31l178 -131l62 43l57 -62l-129 -118l-144 34l-161 134v122z" />
<glyph unicode="&#x119;" horiz-adv-x="897" d="M57 350l55 348l172 220l142 65l215 -16l167 -123l68 -299l-592 -62l-14 -47l82 -182l196 -125l172 39l111 145l63 -86l-215 -217l-196 -49l-256 84zM278 584l379 53l-33 178l-135 80l-119 -37l-69 -74zM348 -281l123 181l-21 37l-92 75l70 68l157 -150v-80l-100 -122v-31 l178 -131l62 43l57 -62l-129 -118l-144 34l-161 134v122z" />
<glyph unicode="&#x11a;" d="M83 -41l21 90l141 47l54 142v999l-74 125h-113l8 92h539h516l-43 -178l14 -189l-79 -8l-43 203l-152 74l-348 -15v-548l289 10l110 76l39 141l86 -33l-33 -252l23 -243l-96 -9l-29 123l-125 68h-279l11 -17v-428l112 -137l164 -24l207 32l143 156l35 225l92 -39l-28 -227 l-78 -235h-723zM469 1878l76 53l199 -207l-2 -8l155 238l115 -62l-47 -51l2 4l-240 -370z" />
<glyph unicode="&#x11b;" horiz-adv-x="897" d="M57 350l55 348l172 220l142 65l215 -16l167 -123l68 -299l-592 -62l-14 -47l82 -182l196 -125l172 39l111 145l63 -86l-215 -217l-196 -49l-256 84zM278 584l379 53l-33 178l-135 80l-119 -37l-69 -74zM223 1393l76 53l199 -207l-2 -8l155 238l115 -62l-47 -51l2 4 l-240 -370z" />
<glyph unicode="&#x11e;" horiz-adv-x="1529" d="M92 856l170 344l329 242l428 39l410 -84l-43 -191l14 -227l-80 12l-79 240l-207 147h-281l-239 -123l-117 -233l-33 -328l37 -250l178 -227l256 -135l254 -29l78 60v235l-51 119l-146 37l29 104l244 -33l260 33l4 -80l-129 -79l10 -236l88 -117l-215 -102l-209 -31h-366 l-322 139l-231 285zM613 1907l94 18l39 -194l100 -72l103 12l61 84l35 172l90 -8l-27 -264l-110 -139l-154 -31l-164 96z" />
<glyph unicode="&#x11f;" horiz-adv-x="1067" d="M81 111l129 157l76 60l-106 98l-70 221l111 252l211 98l241 -12l99 -63l299 41l-11 -164l-217 16l49 -94l-20 -225l-125 -170l-246 -66l-125 19l-88 -97l58 -104l567 -74l117 -205l-125 -211l-295 -98h-320l-164 53l-40 287l96 -10l102 -172l195 -76l227 47l111 229 l-17 58l-610 45zM301 672l30 -178l101 -125l84 -15l114 37l60 109v211l-125 186l-92 21l-109 -56zM242 1422l94 18l39 -194l100 -72l103 12l61 84l35 172l90 -8l-27 -264l-110 -139l-154 -31l-164 96z" />
<glyph unicode="&#x122;" horiz-adv-x="1529" d="M92 856l170 344l329 242l428 39l410 -84l-43 -191l14 -227l-80 12l-79 240l-207 147h-281l-239 -123l-117 -233l-33 -328l37 -250l178 -227l256 -135l254 -29l78 60v235l-51 119l-146 37l29 104l244 -33l260 33l4 -80l-129 -79l10 -236l88 -117l-215 -102l-209 -31h-366 l-322 139l-231 285zM617 -467l110 133l127 -104l58 30l-158 201l39 80l174 190l76 -28l-99 -96l-20 -39l123 -181v-122l-162 -134l-141 -34z" />
<glyph unicode="&#x123;" horiz-adv-x="1067" d="M81 111l129 157l76 60l-106 98l-70 221l111 252l211 98l241 -12l99 -63l299 41l-11 -164l-217 16l49 -94l-20 -225l-125 -170l-246 -66l-125 19l-88 -97l58 -104l567 -74l117 -205l-125 -211l-295 -98h-320l-164 53l-40 287l96 -10l102 -172l195 -76l227 47l111 229 l-17 58l-610 45zM301 672l30 -178l101 -125l84 -15l114 37l60 109v211l-125 186l-92 21l-109 -56zM379 1505l162 178l167 -122l78 -238l-45 -158l-125 -123l-200 -77l4 104l141 59l84 134l-43 110l-33 47l-67 -26z" />
<glyph unicode="&#x12a;" horiz-adv-x="784" d="M79 1370l27 107l315 -64l310 51l26 -86l-143 -39l-90 -139v-1003l65 -109l142 -39v-92l-338 51l-291 -37v97l166 53l22 86v1071l-118 78zM109 1681l336 -24l305 37l26 -187l-329 13l-324 -21z" />
<glyph unicode="&#x12b;" horiz-adv-x="544" d="M61 868l170 54l139 77l58 -38l-33 -809l63 -78l70 -41l-10 -72l-211 29l-244 -13l16 95l91 10l49 92l-19 549l-63 74l-45 -15zM-32 1196l336 -24l305 37l26 -187l-329 13l-324 -21z" />
<glyph unicode="&#x12e;" horiz-adv-x="784" d="M79 1370l27 107l315 -64l310 51l26 -86l-143 -39l-90 -139v-1003l65 -109l142 -39v-92l-338 51l-291 -37v97l166 53l22 86v1071l-118 78zM338 -269l123 181l-21 37l-92 75l70 68l157 -150v-80l-100 -122v-31l178 -131l62 43l57 -62l-129 -118l-144 34l-161 134v122z" />
<glyph unicode="&#x12f;" horiz-adv-x="544" d="M61 868l170 54l139 77l58 -38l-33 -809l63 -78l70 -41l-10 -72l-211 29l-244 -13l16 95l91 10l49 92l-19 549l-63 74l-45 -15zM149 1382l154 170l139 -186l-166 -137zM203 -281l123 181l-21 37l-92 75l70 68l157 -150v-80l-100 -122v-31l178 -131l62 43l57 -62l-129 -118 l-144 34l-161 134v122z" />
<glyph unicode="&#x130;" horiz-adv-x="784" d="M79 1370l27 107l315 -64l310 51l26 -86l-143 -39l-90 -139v-1003l65 -109l142 -39v-92l-338 51l-291 -37v97l166 53l22 86v1071l-118 78zM245 1661l168 162l162 -176l-176 -160z" />
<glyph unicode="&#x131;" horiz-adv-x="544" d="M41 868l170 54l139 77l58 -38l-33 -809l63 -78l70 -41l-10 -72l-211 29l-244 -13l16 95l91 10l49 92l-19 549l-63 74l-45 -15z" />
<glyph unicode="&#x136;" horiz-adv-x="1531" d="M108 -29l12 82l123 23l70 117v985l-60 155l-118 37l-2 86l260 -22l282 41l21 -99l-117 -30l-43 -78v-480l201 160l268 350l-27 70l-63 10l-18 78l249 -12l213 16l72 -82l-117 -18l-204 -117l-400 -450l23 8l430 -527l235 -190l138 -39l-9 -82l-254 10l-192 99l-223 241 l-322 326l-6 -281l57 -229l158 -70v-94l-309 31zM516 -467l110 133l127 -104l58 30l-158 201l39 80l174 190l76 -28l-99 -96l-20 -39l123 -181v-122l-162 -134l-141 -34z" />
<glyph unicode="&#x137;" horiz-adv-x="972" d="M61 51l88 35l27 92l8 -6v1149l-58 84l-30 6l-15 82l142 20l116 80l50 -34l-33 -814l8 -196l193 250l-5 47l-38 4l-17 94l205 -12l256 41v-92l-104 -13l-189 -104l-160 -195l17 2l344 -428l102 -90l56 -2l-7 -61l-161 -35l-183 115l-280 401l-15 -20v-326l35 -53l84 -13 v-82l-221 21l-199 -25zM277 -467l110 133l127 -104l58 30l-158 201l39 80l174 190l76 -28l-99 -96l-20 -39l123 -181v-122l-162 -134l-141 -34z" />
<glyph unicode="&#x139;" d="M90 1354l8 119l297 -39l397 28l-31 -100l-145 -12l-96 -90v-1092l59 -68h422l133 101l86 211l107 -19l-129 -430l-492 27l-604 -21l-2 99l102 4l90 98v1094l-86 90h-116zM342 1530l211 385l172 -131l-322 -305z" />
<glyph unicode="&#x13a;" horiz-adv-x="514" d="M59 74l86 4l43 104v1170l-68 63l-18 84l139 27l-6 -4l111 69l67 -30l-41 -988l10 -423l52 -78l82 -13v-92l-226 29l-229 -19zM76 1577l211 385l172 -131l-322 -305z" />
<glyph unicode="&#x13b;" d="M90 1354l8 119l297 -39l397 28l-31 -100l-145 -12l-96 -90v-1092l59 -68h422l133 101l86 211l107 -19l-129 -430l-492 27l-604 -21l-2 99l102 4l90 98v1094l-86 90h-116zM307 -467l110 133l127 -104l58 30l-158 201l39 80l174 190l76 -28l-99 -96l-20 -39l123 -181v-122 l-162 -134l-141 -34z" />
<glyph unicode="&#x13c;" horiz-adv-x="514" d="M59 74l86 4l43 104v1170l-68 63l-18 84l139 27l-6 -4l111 69l67 -30l-41 -988l10 -423l52 -78l82 -13v-92l-226 29l-229 -19zM23 -467l110 133l127 -104l58 30l-158 201l39 80l174 190l76 -28l-99 -96l-20 -39l123 -181v-122l-162 -134l-141 -34z" />
<glyph unicode="&#x13d;" d="M90 1354l8 119l297 -39l397 28l-31 -100l-145 -12l-96 -90v-1092l59 -68h422l133 101l86 211l107 -19l-129 -430l-492 27l-604 -21l-2 99l102 4l90 98v1094l-86 90h-116zM789 1323l162 178l167 -122l78 -238l-45 -158l-125 -123l-200 -77l4 104l141 59l84 134l-43 110 l-33 47l-67 -26z" />
<glyph unicode="&#x13e;" horiz-adv-x="716" d="M59 74l86 4l43 104v1170l-68 63l-18 84l139 27l-6 -4l111 69l67 -30l-41 -988l10 -423l52 -78l82 -13v-92l-226 29l-229 -19zM416 1499l162 178l167 -122l78 -238l-45 -158l-125 -123l-200 -77l4 104l141 59l84 134l-43 110l-33 47l-67 -26z" />
<glyph unicode="&#x141;" d="M-14 698l286 93v473l-86 90h-116l8 119l297 -39l397 28l-31 -100l-145 -12l-88 -90v-367l223 117l43 -136l-274 -102v-604l59 -68h422l133 101l86 211l107 -19l-129 -430l-492 27l-604 -21l-2 99l102 4l92 98v504l-221 -99z" />
<glyph unicode="&#x142;" horiz-adv-x="514" d="M-33 784l215 58l-12 510l-68 63l-18 84l139 27l-6 -4l111 69l67 -30l-37 -658l197 80l25 -133l-215 -66v-634l51 -78l82 -13v-92l-226 29l-229 -19l-2 97l86 4l55 104v523l-164 -93z" />
<glyph unicode="&#x143;" horiz-adv-x="1638" d="M-11 1446l191 12l180 17l907 -1061l19 -54v844l-74 148l-174 30l8 93l299 -27l254 20l23 -88l-140 -24l-80 -137v-1119l35 -243l-1026 1165l-18 63v-847l98 -132l119 -38l2 -95l-289 13l-307 -37l-8 84l170 53l98 178v922l-117 160l-155 18zM641 1530l211 385l172 -131 l-322 -305z" />
<glyph unicode="&#x144;" horiz-adv-x="1085" d="M71 51l72 27l53 94v551l-61 72l-27 -13l-35 76l166 51l121 92l49 -40l-16 -119l96 73l258 76l193 -108l41 -209v-543l57 -68l37 -14l4 -78l-197 21l-205 -25l-10 90l80 19l45 74v514l-92 157l-145 10l-173 -81v-605l50 -73l92 -17l-15 -71h-413zM418 1045l211 385 l172 -131l-322 -305z" />
<glyph unicode="&#x145;" horiz-adv-x="1638" d="M-11 1446l191 12l180 17l907 -1061l19 -54v844l-74 148l-174 30l8 93l299 -27l254 20l23 -88l-140 -24l-80 -137v-1119l35 -243l-1026 1165l-18 63v-847l98 -132l119 -38l2 -95l-289 13l-307 -37l-8 84l170 53l98 178v922l-117 160l-155 18zM555 -467l110 133l127 -104 l58 30l-158 201l39 80l174 190l76 -28l-99 -96l-20 -39l123 -181v-122l-162 -134l-141 -34z" />
<glyph unicode="&#x146;" horiz-adv-x="1085" d="M71 51l72 27l53 94v551l-61 72l-27 -13l-35 76l166 51l121 92l49 -40l-16 -119l96 73l258 76l193 -108l41 -209v-543l57 -68l37 -14l4 -78l-197 21l-205 -25l-10 90l80 19l45 74v514l-92 157l-145 10l-173 -81v-605l50 -73l92 -17l-15 -71h-413zM252 -467l110 133 l127 -104l58 30l-158 201l39 80l174 190l76 -28l-99 -96l-20 -39l123 -181v-122l-162 -134l-141 -34z" />
<glyph unicode="&#x147;" horiz-adv-x="1638" d="M-11 1446l191 12l180 17l907 -1061l19 -54v844l-74 148l-174 30l8 93l299 -27l254 20l23 -88l-140 -24l-80 -137v-1119l35 -243l-1026 1165l-18 63v-847l98 -132l119 -38l2 -95l-289 13l-307 -37l-8 84l170 53l98 178v922l-117 160l-155 18zM508 1878l76 53l199 -207 l-2 -8l155 238l115 -62l-47 -51l2 4l-240 -370z" />
<glyph unicode="&#x148;" horiz-adv-x="1085" d="M71 51l72 27l53 94v551l-61 72l-27 -13l-35 76l166 51l121 92l49 -40l-16 -119l96 73l258 76l193 -108l41 -209v-543l57 -68l37 -14l4 -78l-197 21l-205 -25l-10 90l80 19l45 74v514l-92 157l-145 10l-173 -81v-605l50 -73l92 -17l-15 -71h-413zM336 1393l76 53l199 -207 l-2 -8l155 238l115 -62l-47 -51l2 4l-240 -370z" />
<glyph unicode="&#x14c;" horiz-adv-x="1640" d="M81 715l17 151l143 383l361 211l419 13l361 -179l190 -370v-418l-163 -332l-322 -199l-328 -22l-325 100l-248 234zM354 739l63 -340l205 -276l285 -55l282 137l119 278l10 379l-118 320l2 -8l-146 165l-205 47l-204 -49l-201 -182zM516 1681l336 -24l305 37l26 -187 l-329 13l-324 -21z" />
<glyph unicode="&#x14d;" horiz-adv-x="1103" d="M63 494l123 342l262 131h260l105 -29l178 -127l90 -272l-45 -293l-168 -211l-279 -68l-280 45l-205 189zM278 356l102 -221l166 -82l164 25l105 176l51 303l-74 229l-137 88l-182 -6l-154 -166zM267 1196l336 -24l305 37l26 -187l-329 13l-324 -21z" />
<glyph unicode="&#x150;" horiz-adv-x="1640" d="M81 715l17 151l143 383l361 211l419 13l361 -179l190 -370v-418l-163 -332l-322 -199l-328 -22l-325 100l-248 234zM354 739l63 -340l205 -276l285 -55l282 137l119 278l10 379l-118 320l2 -8l-146 165l-205 47l-204 -49l-201 -182zM596 1552l256 377l149 -76l-346 -374z M768 1540l311 363l150 -93l-392 -342z" />
<glyph unicode="&#x151;" horiz-adv-x="1103" d="M63 494l123 342l262 131h260l105 -29l178 -127l90 -272l-45 -293l-168 -211l-279 -68l-280 45l-205 189zM278 356l102 -221l166 -82l164 25l105 176l51 303l-74 229l-137 88l-182 -6l-154 -166zM262 1067l256 377l149 -76l-346 -374zM434 1055l311 363l150 -93l-392 -342 z" />
<glyph unicode="&#x152;" horiz-adv-x="1968" d="M92 528l33 523l250 297l391 112l731 -18l344 26l-31 -153l-2 4v-195l-94 -16l-8 127l-166 111h-321l-13 -545h221l127 55l52 143l88 23l-45 -291l30 -260l-86 16l-16 99l-117 92h-235v-494l139 -116l225 6l191 131l45 225l106 -18l-94 -426h-713l-411 -11l-406 179z M344 606l96 -311l277 -211l194 -16l97 79v570v643l-183 12l-221 -63l-244 -301z" />
<glyph unicode="&#x153;" horiz-adv-x="1671" d="M37 502l108 342l246 137h236l106 -37l164 -131l6 -22l98 127l144 65l211 -16l172 -123l69 -299l-602 -53l6 -7l-14 -49l80 -180l205 -125l166 37l110 139l66 -86l-213 -211l-199 -49l-258 84l-65 119l-95 -135l-262 -72l-260 47l-190 197zM238 354l94 -225l155 -84 l144 27l98 178l45 311l-65 232l-127 92l-164 -6l-144 -168zM1012 590l350 47l-35 178l-137 80l-96 -33l-60 -78z" />
<glyph unicode="&#x154;" horiz-adv-x="1531" d="M102 -27l18 90l142 37l67 99v1061l-80 86l-135 24l39 90l223 -12l252 18l240 -12l276 -192l9 -306l-125 -170l-131 -53l75 -26l125 -316l123 -272l225 -62l25 -96l-279 6l-210 125l-164 455l-101 96l-170 6l-8 -385l39 -129l180 -74l6 -88l-325 29zM546 743l183 25 l182 160v262l-168 172l-168 27l-29 -7v-639zM525 1530l211 385l172 -131l-322 -305z" />
<glyph unicode="&#x155;" horiz-adv-x="724" d="M83 55l82 27l43 92l-18 553l-55 59h-41l-4 78l123 35l135 92l45 -43l-19 -196l109 159l147 74l129 -147l-149 -152l-82 94l-102 -75l-39 -160l-5 4v-381l56 -80l121 -33l4 -73l-262 20l-213 -29zM287 1045l211 385l172 -131l-322 -305z" />
<glyph unicode="&#x156;" horiz-adv-x="1531" d="M102 -27l18 90l142 37l67 99v1061l-80 86l-135 24l39 90l223 -12l252 18l240 -12l276 -192l9 -306l-125 -170l-131 -53l75 -26l125 -316l123 -272l225 -62l25 -96l-279 6l-210 125l-164 455l-101 96l-170 6l-8 -385l39 -129l180 -74l6 -88l-325 29zM546 743l183 25 l182 160v262l-168 172l-168 27l-29 -7v-639zM555 -467l110 133l127 -104l58 30l-158 201l39 80l174 190l76 -28l-99 -96l-20 -39l123 -181v-122l-162 -134l-141 -34z" />
<glyph unicode="&#x157;" horiz-adv-x="724" d="M83 55l82 27l43 92l-18 553l-55 59h-41l-4 78l123 35l135 92l45 -43l-19 -196l109 159l147 74l129 -147l-149 -152l-82 94l-102 -75l-39 -160l-5 4v-381l56 -80l121 -33l4 -73l-262 20l-213 -29zM68 -467l110 133l127 -104l58 30l-158 201l39 80l174 190l76 -28l-99 -96 l-20 -39l123 -181v-122l-162 -134l-141 -34z" />
<glyph unicode="&#x158;" horiz-adv-x="1531" d="M102 -27l18 90l142 37l67 99v1061l-80 86l-135 24l39 90l223 -12l252 18l240 -12l276 -192l9 -306l-125 -170l-131 -53l75 -26l125 -316l123 -272l225 -62l25 -96l-279 6l-210 125l-164 455l-101 96l-170 6l-8 -385l39 -129l180 -74l6 -88l-325 29zM546 743l183 25 l182 160v262l-168 172l-168 27l-29 -7v-639zM409 1878l76 53l199 -207l-2 -8l155 238l115 -62l-47 -51l2 4l-240 -370z" />
<glyph unicode="&#x159;" horiz-adv-x="724" d="M83 55l82 27l43 92l-18 553l-55 59h-41l-4 78l123 35l135 92l45 -43l-19 -196l109 159l147 74l129 -147l-149 -152l-82 94l-102 -75l-39 -160l-5 4v-381l56 -80l121 -33l4 -73l-262 20l-213 -29zM155 1393l76 53l199 -207l-2 -8l155 238l115 -62l-47 -51l2 4l-240 -370z " />
<glyph unicode="&#x15a;" horiz-adv-x="1103" d="M94 426l65 49l88 -239l183 -162l213 -6l157 141l-24 213l-516 420l-52 245l84 252l230 150h256l219 -100l-27 -342h-69l-68 256l-156 83l-184 -28l-80 -209l78 -172l338 -234l201 -223l6 -274l-164 -205l-238 -94l-256 20l-225 99zM518 1530l211 385l172 -131l-322 -305z " />
<glyph unicode="&#x15b;" horiz-adv-x="755" d="M75 332l74 -25l61 -168l121 -80l135 31l41 160l-86 112l-278 175l-43 206l94 166l180 72l97 -6l178 -68l6 -243l-76 12l-45 141l-106 72l-95 -23l-45 -100l45 -111l324 -243l43 -164l-90 -197l-197 -82l-217 21l-106 65zM254 1045l211 385l172 -131l-322 -305z" />
<glyph unicode="&#x15e;" horiz-adv-x="1103" d="M94 426l65 49l88 -239l183 -162l213 -6l157 141l-24 213l-516 420l-52 245l84 252l230 150h256l219 -100l-27 -342h-69l-68 256l-156 83l-184 -28l-80 -209l78 -172l338 -234l201 -223l6 -274l-164 -205l-238 -94l-256 20l-225 99zM307 -467l110 133l127 -104l58 30 l-158 201l39 80l174 190l76 -28l-99 -96l-20 -39l123 -181v-122l-162 -134l-141 -34z" />
<glyph unicode="&#x15f;" horiz-adv-x="755" d="M75 332l74 -25l61 -168l121 -80l135 31l41 160l-86 112l-278 175l-43 206l94 166l180 72l97 -6l178 -68l6 -243l-76 12l-45 141l-106 72l-95 -23l-45 -100l45 -111l324 -243l43 -164l-90 -197l-197 -82l-217 21l-106 65zM99 -467l110 133l127 -104l58 30l-158 201l39 80 l174 190l76 -28l-99 -96l-20 -39l123 -181v-122l-162 -134l-141 -34z" />
<glyph unicode="&#x160;" horiz-adv-x="1103" d="M94 426l65 49l88 -239l183 -162l213 -6l157 141l-24 213l-516 420l-52 245l84 252l230 150h256l219 -100l-27 -342h-69l-68 256l-156 83l-184 -28l-80 -209l78 -172l338 -234l201 -223l6 -274l-164 -205l-238 -94l-256 20l-225 99zM405 1878l76 53l199 -207l-2 -8 l155 238l115 -62l-47 -51l2 4l-240 -370z" />
<glyph unicode="&#x161;" horiz-adv-x="755" d="M75 332l74 -25l61 -168l121 -80l135 31l41 160l-86 112l-278 175l-43 206l94 166l180 72l97 -6l178 -68l6 -243l-76 12l-45 141l-106 72l-95 -23l-45 -100l45 -111l324 -243l43 -164l-90 -197l-197 -82l-217 21l-106 65zM143 1393l76 53l199 -207l-2 -8l155 238l115 -62 l-47 -51l2 4l-240 -370z" />
<glyph unicode="&#x162;" horiz-adv-x="1316" d="M6 1104l57 430l113 -86h1024l100 115l35 -476l-82 -30l-43 155l-158 121l-272 6v-1071l53 -145l211 -68v-84l-362 27l-379 -25l8 70l203 70l53 143v1083h-162l-215 -41l-102 -237zM307 -467l110 133l127 -104l58 30l-158 201l39 80l174 190l76 -28l-99 -96l-20 -39 l123 -181v-122l-162 -134l-141 -34z" />
<glyph unicode="&#x163;" horiz-adv-x="557" d="M36 846l297 299l70 -10l-14 -197h147l16 -147l-176 -13v-372v2l23 -248l43 -54l104 39l25 -77l-152 -113l-180 43l-51 180v608h-115zM84 -467l110 133l127 -104l58 30l-158 201l39 80l174 190l76 -28l-99 -96l-20 -39l123 -181v-122l-162 -134l-141 -34z" />
<glyph unicode="&#x164;" horiz-adv-x="1316" d="M6 1104l57 430l113 -86h1024l100 115l35 -476l-82 -30l-43 155l-158 121l-272 6v-1071l53 -145l211 -68v-84l-362 27l-379 -25l8 70l203 70l53 143v1083h-162l-215 -41l-102 -237zM399 1878l76 53l199 -207l-2 -8l155 238l115 -62l-47 -51l2 4l-240 -370z" />
<glyph unicode="&#x165;" horiz-adv-x="710" d="M36 846l297 299l70 -10l-14 -197h147l16 -147l-176 -13v-372v2l23 -248l43 -54l104 39l25 -77l-152 -113l-180 43l-51 180v608h-115zM400 1147l162 178l167 -122l78 -238l-45 -158l-125 -123l-200 -77l4 104l141 59l84 134l-43 110l-33 47l-67 -26z" />
<glyph unicode="&#x16a;" horiz-adv-x="1636" d="M77 1450l322 -14l301 26l-8 -98l-113 -14l-80 -140v-866l162 -207l277 -31l237 64l113 209v819l-72 139l-129 47l23 70l258 -10l225 12l-2 -86l-86 -24l-68 -125v-629l-55 -340l-211 -248l-330 -59l-344 69l-221 273v930l-74 129l-110 18zM525 1681l336 -24l305 37 l26 -187l-329 13l-324 -21z" />
<glyph unicode="&#x16b;" horiz-adv-x="1095" d="M45 961l172 -17l165 33v-703l103 -155h153l138 88l-23 14v563l-49 64l-88 16l-14 92l176 -14l203 33l-19 -465v-367l39 -34l84 16l-12 -98l-150 -9l-162 -65l-6 153l-137 -92l-207 -43l-203 111l-30 385v311l-58 70l-55 20zM222 1196l336 -24l305 37l26 -187l-329 13 l-324 -21z" />
<glyph unicode="&#x16e;" horiz-adv-x="1636" d="M77 1450l322 -14l301 26l-8 -98l-113 -14l-80 -140v-866l162 -207l277 -31l237 64l113 209v819l-72 139l-129 47l23 70l258 -10l225 12l-2 -86l-86 -24l-68 -125v-629l-55 -340l-211 -248l-330 -59l-344 69l-221 273v930l-74 129l-110 18zM633 1602v194l107 117l194 31 l133 -111l27 -188l-78 -160l-233 -23zM740 1645l88 -84l108 34l50 140l-76 90l-92 -4l-72 -68z" />
<glyph unicode="&#x16f;" horiz-adv-x="1095" d="M45 961l172 -17l165 33v-703l103 -155h153l138 88l-23 14v563l-49 64l-88 16l-14 92l176 -14l203 33l-19 -465v-367l39 -34l84 16l-12 -98l-150 -9l-162 -65l-6 153l-137 -92l-207 -43l-203 111l-30 385v311l-58 70l-55 20zM348 1117v194l107 117l194 31l133 -111 l27 -188l-78 -160l-233 -23zM455 1160l88 -84l108 34l50 140l-76 90l-92 -4l-72 -68z" />
<glyph unicode="&#x170;" horiz-adv-x="1636" d="M77 1450l322 -14l301 26l-8 -98l-113 -14l-80 -140v-866l162 -207l277 -31l237 64l113 209v819l-72 139l-129 47l23 70l258 -10l225 12l-2 -86l-86 -24l-68 -125v-629l-55 -340l-211 -248l-330 -59l-344 69l-221 273v930l-74 129l-110 18zM664 1552l256 377l149 -76 l-346 -374zM836 1540l311 363l150 -93l-392 -342z" />
<glyph unicode="&#x171;" horiz-adv-x="1095" d="M45 961l172 -17l165 33v-703l103 -155h153l138 88l-23 14v563l-49 64l-88 16l-14 92l176 -14l203 33l-19 -465v-367l39 -34l84 16l-12 -98l-150 -9l-162 -65l-6 153l-137 -92l-207 -43l-203 111l-30 385v311l-58 70l-55 20zM264 1067l256 377l149 -76l-346 -374z M436 1055l311 363l150 -93l-392 -342z" />
<glyph unicode="&#x172;" horiz-adv-x="1636" d="M77 1450l322 -14l301 26l-8 -98l-113 -14l-80 -140v-866l162 -207l277 -31l237 64l113 209v819l-72 139l-129 47l23 70l258 -10l225 12l-2 -86l-86 -24l-68 -125v-629l-55 -340l-211 -248l-330 -59l-344 69l-221 273v930l-74 129l-110 18zM762 -281l123 181l-21 37 l-92 75l70 68l157 -150v-80l-100 -122v-31l178 -131l62 43l57 -62l-129 -118l-144 34l-161 134v122z" />
<glyph unicode="&#x173;" horiz-adv-x="1095" d="M45 961l172 -17l165 33v-703l103 -155h153l138 88l-23 14v563l-49 64l-88 16l-14 92l176 -14l203 33l-19 -465v-367l39 -34l84 16l-12 -98l-150 -9l-162 -65l-6 153l-137 -92l-207 -43l-203 111l-30 385v311l-58 70l-55 20zM432 -281l123 181l-21 37l-92 75l70 68 l157 -150v-80l-100 -122v-31l178 -131l62 43l57 -62l-129 -118l-144 34l-161 134v122z" />
<glyph unicode="&#x178;" d="M94 1368l10 84l225 -27l250 35l10 -84l-77 -20l-25 -56l235 -544l252 512l-45 104l-88 4v80l226 -18l233 22v-86l-68 -8l-139 -117l-321 -598v-401l59 -139l137 -50v-84l-313 21l-275 -27l21 105l84 16l76 109v399l-340 715zM314 1602l141 174l153 -142l-125 -166z M729 1612l146 166l151 -152l-135 -147z" />
<glyph unicode="&#x179;" horiz-adv-x="1427" d="M61 -37l938 1358h6h-498l-180 -125l-76 -213l-59 39l43 420l539 -12l589 14l-884 -1338l542 13l207 117l109 231h94l-106 -475h-979zM672 1530l211 385l172 -131l-322 -305z" />
<glyph unicode="&#x17a;" horiz-adv-x="899" d="M6 -37l565 885l-293 -10l-84 -58l-43 -153l-68 8l25 301h354l428 16l-553 -872l314 22l123 72l65 176l82 -8l-92 -350h-514zM316 1045l211 385l172 -131l-322 -305z" />
<glyph unicode="&#x17b;" horiz-adv-x="1427" d="M61 -37l938 1358h6h-498l-180 -125l-76 -213l-59 39l43 420l539 -12l589 14l-884 -1338l542 13l207 117l109 231h94l-106 -475h-979zM643 1661l168 162l162 -176l-176 -160z" />
<glyph unicode="&#x17c;" horiz-adv-x="899" d="M6 -37l565 885l-293 -10l-84 -58l-43 -153l-68 8l25 301h354l428 16l-553 -872l314 22l123 72l65 176l82 -8l-92 -350h-514zM325 1176l168 162l162 -176l-176 -160z" />
<glyph unicode="&#x17d;" horiz-adv-x="1427" d="M61 -37l938 1358h6h-498l-180 -125l-76 -213l-59 39l43 420l539 -12l589 14l-884 -1338l542 13l207 117l109 231h94l-106 -475h-979zM536 1878l76 53l199 -207l-2 -8l155 238l115 -62l-47 -51l2 4l-240 -370z" />
<glyph unicode="&#x17e;" horiz-adv-x="899" d="M6 -37l565 885l-293 -10l-84 -58l-43 -153l-68 8l25 301h354l428 16l-553 -872l314 22l123 72l65 176l82 -8l-92 -350h-514zM268 1393l76 53l199 -207l-2 -8l155 238l115 -62l-47 -51l2 4l-240 -370z" />
<glyph unicode="&#x192;" horiz-adv-x="1103" d="M-35 -231l156 157l121 -141l94 104l98 756l-203 4l31 101h133l66 84l151 512l314 227l186 -66l72 -112l-131 -125l-162 155l-82 -32l-150 -625l285 -10l-51 -115h-240l-143 -737l-279 -289h-133z" />
<glyph unicode="&#x2c6;" horiz-adv-x="1005" d="M215 1501l47 51l-2 -4l240 371l258 -403l-76 -54l-199 197l2 8l-155 -227z" />
<glyph unicode="&#x2c7;" horiz-adv-x="1005" d="M221 1878l76 53l199 -207l-2 -8l155 238l115 -62l-47 -51l2 4l-240 -370z" />
<glyph unicode="&#x2d8;" horiz-adv-x="1005" d="M242 1907l94 18l39 -194l100 -72l103 12l61 84l35 172l90 -8l-27 -264l-110 -139l-154 -31l-164 96z" />
<glyph unicode="&#x2d9;" horiz-adv-x="706" d="M184 1661l168 162l162 -176l-176 -160z" />
<glyph unicode="&#x2db;" horiz-adv-x="1005" d="M328 -281l123 181l-21 37l-92 75l70 68l157 -150v-80l-100 -122v-31l178 -131l62 43l57 -62l-129 -118l-144 34l-161 134v122z" />
<glyph unicode="&#x2dc;" horiz-adv-x="1005" d="M94 1565l213 143l94 10l217 -80l115 7l98 104l76 -55l-213 -193l-121 -12l-241 90l-172 -98z" />
<glyph unicode="&#x2dd;" horiz-adv-x="1005" d="M246 1552l256 377l149 -76l-346 -374zM418 1540l311 363l150 -93l-392 -342z" />
<glyph unicode="&#x2013;" horiz-adv-x="1005" d="M-6 410v180l506 -35l465 20l24 -159l-463 10z" />
<glyph unicode="&#x2014;" horiz-adv-x="1968" d="M0 397l6 187h1090h835l19 -168l-865 22z" />
<glyph unicode="&#x2018;" horiz-adv-x="471" d="M35 1141l104 276l174 82l148 -8l-12 -72l-150 -18l-115 -131l25 -137l57 -48l60 31l108 -139l-102 -131l-180 61z" />
<glyph unicode="&#x2019;" horiz-adv-x="471" d="M27 1380l182 162l172 -143l59 -273l-125 -196l-243 -82l-25 72l201 86l39 178l-66 88l-61 -10z" />
<glyph unicode="&#x201a;" horiz-adv-x="471" d="M16 113l129 145l234 -125l55 -258l-92 -174l-149 -88l-162 -27l10 103h129l123 121l-4 141l-72 76l-57 -29z" />
<glyph unicode="&#x201c;" horiz-adv-x="890" d="M33 1171l78 207l163 99l150 18l18 -82l-153 -29l-94 -69l6 -174l67 -70l62 39l102 -133l-110 -143l-211 98zM463 1077l10 236l180 151l213 29l-32 -78l-146 -31l-82 -102l12 -115l97 -102l51 57l104 -151l-102 -129l-166 35z" />
<glyph unicode="&#x201d;" horiz-adv-x="890" d="M41 965l100 -21l168 125l-51 197l-51 14l-51 -20l-113 122l133 142l186 -109l80 -229l-80 -228l-159 -86l-142 -18zM438 1374l133 166l250 -168l31 -254l-102 -188l-179 -72l-131 4l15 94l96 -8l174 125l-94 215l-66 -22z" />
<glyph unicode="&#x201e;" horiz-adv-x="890" d="M27 102l151 160l228 -170l40 -196l-96 -199l-168 -100l-131 -9v84l123 21l113 135l-11 143l-63 41l-41 -18zM436 98l148 166l243 -194l29 -195l-115 -217l-190 -64l-82 15l-2 84l125 4l125 164l-17 98l-73 66l-62 -15z" />
<glyph unicode="&#x2020;" horiz-adv-x="1110" d="M119 864v195l381 -49l-45 460h252l-86 -458l380 55l-18 -256l-369 70l70 -1186h-311l116 1184z" />
<glyph unicode="&#x2021;" horiz-adv-x="1110" d="M117 135l30 197l353 -29v596l-381 -43v254l370 -92l-34 430l282 43l-102 -490l336 60l4 -195l-352 27v-596l360 14l-25 -202l-348 51l35 -453l-209 -16l58 489z" />
<glyph unicode="&#x2022;" horiz-adv-x="1175" d="M295 893l203 188l217 6l164 -202l18 -228l-172 -206l-256 -9l-164 142z" />
<glyph unicode="&#x2026;" horiz-adv-x="1968" d="M188 86l160 182l137 -168l-141 -170zM809 106l190 166l154 -184l-164 -156zM1452 100l176 189l144 -183l-144 -157z" />
<glyph unicode="&#x2030;" horiz-adv-x="2435" d="M82 1026l61 285l166 137l144 27l196 -58l150 -270l-6 -285l-103 -186l-176 -131l12 47l-180 12l-207 182zM336 -8l479 725l-2 -2l440 803l136 -115l-469 -719h2l-437 -815zM344 981l49 -270l64 -31l102 82l21 258l-21 283l-98 77l-51 -12l-66 -104v-283zM977 252v313 l96 252l197 25l176 -25l182 -211l19 -295l-70 -252l-182 -98l-252 43zM1151 315l51 -200l82 -66l115 45l67 244l-30 274l2 -4l-45 127l-133 -16l-93 -139zM1673 252v313l96 234l197 43l176 -25l182 -211l19 -295l-70 -252l-182 -98l-252 43zM1847 315l51 -200l82 -66l115 45 l68 244l-31 274l2 -4l-45 127l-133 -16l-92 -139z" />
<glyph unicode="&#x2039;" horiz-adv-x="575" d="M10 475l436 399l86 -24l-149 -244l-166 -125l141 -78l172 -272l-69 -68z" />
<glyph unicode="&#x203a;" horiz-adv-x="575" d="M35 819l80 60l436 -416l-440 -389l-74 61l160 244l122 102l-122 103z" />
<glyph unicode="&#x20ac;" horiz-adv-x="1421" d="M-39 393l14 174l127 -10l-27 125l15 82l-121 -8v207l157 -13l19 90l203 287l329 137l412 17l260 -127v-17l-108 -174l-68 148l-233 75l-308 -69l-213 -250l-26 -135l708 8l-110 -174l-539 27l-90 -9l-12 -69l24 -176l107 -7l375 19l-97 -154l-276 11l-88 -5l215 -253 l278 -107l207 35l156 162l106 -74l-37 -131l-233 -74l-303 -20l-371 129l-252 235l-22 92z" />
<glyph unicode="&#x2122;" horiz-adv-x="1624" d="M219 1272l43 201l187 -9l243 15l33 -209l-88 -8l-12 94l-62 37l-39 2v-408l15 -33l65 7l-16 -93l-123 29l-127 -12l-10 82l61 -15l19 31l-13 406l-30 2l-33 -27l-29 -109zM727 1481l131 -17l82 11l125 -377l129 381l66 -19h116v-82l-47 11l-10 -23l-16 -375l16 -37l76 9 v-89l-140 25l-139 -29l-8 91l72 -7l24 52v260l-133 -381l-67 2l-113 354v-217l10 -61l74 -2l24 -80h-270v73h57l35 31v356l-14 45l-45 13z" />
<glyph unicode="&#x2212;" horiz-adv-x="692" d="M80 373l24 100l-8 115l246 10h-2l268 35l-26 -129l26 -111l-264 33z" />
<glyph unicode="&#x2219;" horiz-adv-x="573" d="M121 731l180 139l150 -157l-172 -172z" />
<glyph unicode="&#xe000;" horiz-adv-x="970" d="M0 970h970v-970h-970v970z" />
<glyph horiz-adv-x="673" d="M98 1602v194l107 117l194 31l133 -111l27 -188l-78 -160l-233 -23zM205 1645l88 -84l108 34l50 140l-76 90l-92 -4l-72 -68z" />
<glyph horiz-adv-x="1753" d="M82 1026l61 285l166 137l144 27l196 -58l150 -270l-6 -285l-103 -186l-176 -131l12 47l-180 12l-207 182zM336 -8l479 725l-2 -2l440 803l136 -115l-469 -719h2l-437 -815zM344 981l49 -270l64 -31l102 82l21 258l-21 283l-98 77l-51 -12l-66 -104v-283zM977 252v313 l96 234l197 43l176 -25l182 -211l19 -295l-70 -252l-182 -98l-252 43zM1151 315l51 -200l82 -66l115 45l67 244l-30 274l2 -4l-45 127l-133 -16l-93 -139z" />
</font>
</defs>
</svg>
